solid Exported from Blender-2.78 (sub 0)
facet normal 0.000000 1.000000 0.000000
outer loop
vertex 0.000000 -0.194369 -0.000800
vertex 0.000000 -0.194369 0.499266
vertex 0.041009 -0.194369 0.499266
endloop
endfacet
facet normal 0.000000 1.000000 0.000000
outer loop
vertex 0.041009 -0.194369 0.499266
vertex 0.041009 -0.194369 -0.000800
vertex 0.000000 -0.194369 -0.000800
endloop
endfacet
facet normal 1.000000 0.000000 0.000000
outer loop
vertex 0.041009 -0.252754 0.484148
vertex 0.041009 -0.252754 -0.000800
vertex 0.041009 -0.194369 -0.000800
endloop
endfacet
facet normal 1.000000 -0.000000 0.000000
outer loop
vertex 0.041009 -0.194369 -0.000800
vertex 0.041009 -0.194369 0.499266
vertex 0.041009 -0.252754 0.484148
endloop
endfacet
facet normal 0.000000 -1.000000 0.000000
outer loop
vertex 0.041009 -0.252754 -0.000800
vertex 0.041009 -0.252754 0.484148
vertex 0.000000 -0.252754 0.484148
endloop
endfacet
facet normal 0.000000 -1.000000 0.000000
outer loop
vertex 0.000000 -0.252754 0.484148
vertex 0.000000 -0.252754 -0.000800
vertex 0.041009 -0.252754 -0.000800
endloop
endfacet
facet normal 0.000000 0.000000 -1.000000
outer loop
vertex 0.041009 -0.252754 -0.000800
vertex 0.000000 -0.252754 -0.000800
vertex 0.000000 -0.194369 -0.000800
endloop
endfacet
facet normal 0.000000 0.000000 -1.000000
outer loop
vertex 0.000000 -0.194369 -0.000800
vertex 0.041009 -0.194369 -0.000800
vertex 0.041009 -0.252754 -0.000800
endloop
endfacet
facet normal 0.000000 -0.250676 0.968071
outer loop
vertex 0.041009 -0.194369 0.499266
vertex 0.000000 -0.194369 0.499266
vertex 0.000000 -0.252754 0.484148
endloop
endfacet
facet normal 0.000000 -0.250676 0.968071
outer loop
vertex 0.000000 -0.252754 0.484148
vertex 0.041009 -0.252754 0.484148
vertex 0.041009 -0.194369 0.499266
endloop
endfacet
facet normal -1.000000 0.000000 0.000000
outer loop
vertex -1.150902 0.081581 0.505866
vertex -1.150902 0.081581 0.550336
vertex -1.150902 0.286080 0.550336
endloop
endfacet
facet normal -1.000000 0.000000 0.000000
outer loop
vertex -1.150902 0.286080 0.550336
vertex -1.150902 0.286080 0.505866
vertex -1.150902 0.081581 0.505866
endloop
endfacet
facet normal 0.000000 1.000000 0.000000
outer loop
vertex -1.150902 0.286080 0.505866
vertex -1.150902 0.286080 0.550336
vertex 0.000000 0.286080 0.550336
endloop
endfacet
facet normal 0.000000 1.000000 0.000000
outer loop
vertex 0.000000 0.286080 0.550336
vertex 0.000000 0.286080 0.505866
vertex -1.150902 0.286080 0.505866
endloop
endfacet
facet normal 0.000000 -0.931353 -0.364119
outer loop
vertex 0.000000 -0.268814 0.443616
vertex 0.000000 -0.285006 0.485034
vertex -1.150902 -0.285006 0.485034
endloop
endfacet
facet normal 0.000000 -0.931353 -0.364119
outer loop
vertex -1.150902 -0.285006 0.485034
vertex -1.150902 -0.268814 0.443616
vertex 0.000000 -0.268814 0.443616
endloop
endfacet
facet normal -0.000000 0.432513 -0.901627
outer loop
vertex -1.150902 -0.174661 0.488782
vertex 0.000000 -0.174661 0.488782
vertex 0.000000 -0.268814 0.443616
endloop
endfacet
facet normal 0.000000 0.432514 -0.901627
outer loop
vertex 0.000000 -0.268814 0.443616
vertex -1.150902 -0.268814 0.443616
vertex -1.150902 -0.174661 0.488782
endloop
endfacet
facet normal 0.000000 -0.400415 0.916334
outer loop
vertex 0.000000 -0.174661 0.533252
vertex -1.150902 -0.174661 0.533252
vertex -1.150902 -0.285006 0.485034
endloop
endfacet
facet normal 0.000000 -0.400415 0.916334
outer loop
vertex -1.150902 -0.285006 0.485034
vertex 0.000000 -0.285006 0.485034
vertex 0.000000 -0.174661 0.533252
endloop
endfacet
facet normal 0.000000 0.000000 1.000000
outer loop
vertex 0.000000 0.286080 0.550336
vertex -1.150902 0.286080 0.550336
vertex -1.150902 0.081581 0.550336
endloop
endfacet
facet normal 0.000000 0.000000 1.000000
outer loop
vertex -1.150902 0.081581 0.550336
vertex 0.000000 0.081581 0.550336
vertex 0.000000 0.286080 0.550336
endloop
endfacet
facet normal 0.000000 0.000000 1.000000
outer loop
vertex 0.000000 0.004585 0.550336
vertex -1.150902 0.004585 0.550336
vertex -1.150902 -0.072411 0.550336
endloop
endfacet
facet normal -0.000000 0.000000 1.000000
outer loop
vertex -1.150902 -0.072411 0.550336
vertex 0.000000 -0.072411 0.550336
vertex 0.000000 0.004585 0.550336
endloop
endfacet
facet normal 0.000000 0.000000 -1.000000
outer loop
vertex -1.150902 0.286080 0.505866
vertex 0.000000 0.286080 0.505866
vertex 0.000000 0.081581 0.505866
endloop
endfacet
facet normal 0.000000 0.000000 -1.000000
outer loop
vertex 0.000000 0.081581 0.505866
vertex -1.150902 0.081581 0.505866
vertex -1.150902 0.286080 0.505866
endloop
endfacet
facet normal 0.000000 0.000000 -1.000000
outer loop
vertex -1.150902 0.004585 0.505866
vertex 0.000000 0.004585 0.505866
vertex 0.000000 -0.072411 0.505866
endloop
endfacet
facet normal 0.000000 0.000000 -1.000000
outer loop
vertex 0.000000 -0.072411 0.505866
vertex -1.150902 -0.072411 0.505866
vertex -1.150902 0.004585 0.505866
endloop
endfacet
facet normal -1.000000 -0.000002 0.000000
outer loop
vertex -1.150902 -0.174661 0.488782
vertex -1.150902 -0.174661 0.533252
vertex -1.150902 -0.072411 0.550336
endloop
endfacet
facet normal -1.000000 0.000002 0.000000
outer loop
vertex -1.150902 -0.072411 0.550336
vertex -1.150902 -0.072411 0.505866
vertex -1.150902 -0.174661 0.488782
endloop
endfacet
facet normal -1.000000 0.000000 0.000000
outer loop
vertex -1.150902 0.004585 0.505866
vertex -1.150902 0.004585 0.550336
vertex -1.150902 0.081581 0.550336
endloop
endfacet
facet normal -1.000000 0.000000 0.000000
outer loop
vertex -1.150902 0.081581 0.550336
vertex -1.150902 0.081581 0.505866
vertex -1.150902 0.004585 0.505866
endloop
endfacet
facet normal -1.000000 0.000002 0.000000
outer loop
vertex -1.131806 -0.252754 -0.000800
vertex -1.131806 -0.252754 0.484148
vertex -1.131806 -0.194369 0.499266
endloop
endfacet
facet normal -1.000000 0.000000 0.000000
outer loop
vertex -1.131806 -0.194369 0.499266
vertex -1.131806 -0.194369 -0.000800
vertex -1.131806 -0.252754 -0.000800
endloop
endfacet
facet normal 0.000000 1.000000 0.000000
outer loop
vertex -1.131806 -0.194369 -0.000800
vertex -1.131806 -0.194369 0.499266
vertex -1.073421 -0.194369 0.499266
endloop
endfacet
facet normal 0.000000 1.000000 0.000000
outer loop
vertex -1.073421 -0.194369 0.499266
vertex -1.073421 -0.194369 -0.000800
vertex -1.131806 -0.194369 -0.000800
endloop
endfacet
facet normal 1.000000 -0.000002 0.000000
outer loop
vertex -1.073421 -0.194369 -0.000800
vertex -1.073421 -0.194369 0.499266
vertex -1.073421 -0.252754 0.484148
endloop
endfacet
facet normal 1.000000 0.000000 0.000000
outer loop
vertex -1.073421 -0.252754 0.484148
vertex -1.073421 -0.252754 -0.000800
vertex -1.073421 -0.194369 -0.000800
endloop
endfacet
facet normal 0.000000 -1.000000 0.000000
outer loop
vertex -1.073421 -0.252754 -0.000800
vertex -1.073421 -0.252754 0.484148
vertex -1.131806 -0.252754 0.484148
endloop
endfacet
facet normal 0.000000 -1.000000 0.000000
outer loop
vertex -1.131806 -0.252754 0.484148
vertex -1.131806 -0.252754 -0.000800
vertex -1.073421 -0.252754 -0.000800
endloop
endfacet
facet normal 0.000000 0.000000 -1.000000
outer loop
vertex -1.131806 -0.194369 -0.000800
vertex -1.073421 -0.194369 -0.000800
vertex -1.073421 -0.252754 -0.000800
endloop
endfacet
facet normal 0.000000 0.000000 -1.000000
outer loop
vertex -1.073421 -0.252754 -0.000800
vertex -1.131806 -0.252754 -0.000800
vertex -1.131806 -0.194369 -0.000800
endloop
endfacet
facet normal 0.000000 -0.250676 0.968071
outer loop
vertex -1.073421 -0.194369 0.499266
vertex -1.131806 -0.194369 0.499266
vertex -1.131806 -0.252754 0.484148
endloop
endfacet
facet normal 0.000000 -0.250676 0.968071
outer loop
vertex -1.131806 -0.252754 0.484148
vertex -1.073421 -0.252754 0.484148
vertex -1.073421 -0.194369 0.499266
endloop
endfacet
facet normal -1.000000 0.000001 0.000000
outer loop
vertex -1.150902 -0.268814 0.443616
vertex -1.150902 -0.285006 0.485034
vertex -1.150902 -0.174661 0.533252
endloop
endfacet
facet normal -1.000000 -0.000002 0.000000
outer loop
vertex -1.150902 -0.174661 0.533252
vertex -1.150902 -0.174661 0.488782
vertex -1.150902 -0.268814 0.443616
endloop
endfacet
facet normal 0.000000 -0.164798 0.986327
outer loop
vertex 0.000000 -0.072411 0.550336
vertex -1.150902 -0.072411 0.550336
vertex -1.150902 -0.174661 0.533252
endloop
endfacet
facet normal 0.000000 -0.164798 0.986327
outer loop
vertex -1.150902 -0.174661 0.533252
vertex 0.000000 -0.174661 0.533252
vertex 0.000000 -0.072411 0.550336
endloop
endfacet
facet normal 0.000000 0.164798 -0.986327
outer loop
vertex -1.150902 -0.072411 0.505866
vertex 0.000000 -0.072411 0.505866
vertex 0.000000 -0.174661 0.488782
endloop
endfacet
facet normal 0.000000 0.164798 -0.986327
outer loop
vertex 0.000000 -0.174661 0.488782
vertex -1.150902 -0.174661 0.488782
vertex -1.150902 -0.072411 0.505866
endloop
endfacet
facet normal -1.000000 0.000000 0.000000
outer loop
vertex -1.150902 -0.072411 0.505866
vertex -1.150902 -0.072411 0.550336
vertex -1.150902 0.004585 0.550336
endloop
endfacet
facet normal -1.000000 0.000000 0.000000
outer loop
vertex -1.150902 0.004585 0.550336
vertex -1.150902 0.004585 0.505866
vertex -1.150902 -0.072411 0.505866
endloop
endfacet
facet normal 0.000000 0.000000 -1.000000
outer loop
vertex -1.150902 0.081581 0.505866
vertex 0.000000 0.081581 0.505866
vertex 0.000000 0.004585 0.505866
endloop
endfacet
facet normal 0.000000 0.000000 -1.000000
outer loop
vertex 0.000000 0.004585 0.505866
vertex -1.150902 0.004585 0.505866
vertex -1.150902 0.081581 0.505866
endloop
endfacet
facet normal 0.000000 0.000000 1.000000
outer loop
vertex 0.000000 0.081581 0.550336
vertex -1.150902 0.081581 0.550336
vertex -1.150902 0.004585 0.550336
endloop
endfacet
facet normal -0.000000 0.000000 1.000000
outer loop
vertex -1.150902 0.004585 0.550336
vertex 0.000000 0.004585 0.550336
vertex 0.000000 0.081581 0.550336
endloop
endfacet
facet normal 1.000000 0.000000 0.000000
outer loop
vertex 0.000000 -0.252754 -0.000800
vertex 0.000000 -0.194369 -0.000800
vertex 0.000000 -0.194369 0.499266
endloop
endfacet
facet normal 1.000000 0.000000 0.000000
outer loop
vertex 0.000000 -0.194369 0.499266
vertex 0.000000 -0.252754 0.484148
vertex 0.000000 -0.252754 -0.000800
endloop
endfacet
facet normal 0.000000 1.000000 0.000000
outer loop
vertex 0.000000 -0.194369 -0.000800
vertex -0.041009 -0.194369 -0.000800
vertex -0.041009 -0.194369 0.499266
endloop
endfacet
facet normal 0.000000 1.000000 0.000000
outer loop
vertex -0.041009 -0.194369 0.499266
vertex 0.000000 -0.194369 0.499266
vertex 0.000000 -0.194369 -0.000800
endloop
endfacet
facet normal -1.000000 0.000000 0.000000
outer loop
vertex -0.041009 -0.194369 -0.000800
vertex -0.041009 -0.252754 -0.000800
vertex -0.041009 -0.252754 0.484148
endloop
endfacet
facet normal -1.000000 0.000000 0.000000
outer loop
vertex -0.041009 -0.252754 0.484148
vertex -0.041009 -0.194369 0.499266
vertex -0.041009 -0.194369 -0.000800
endloop
endfacet
facet normal 0.000000 -1.000000 0.000000
outer loop
vertex -0.041009 -0.252754 -0.000800
vertex 0.000000 -0.252754 -0.000800
vertex 0.000000 -0.252754 0.484148
endloop
endfacet
facet normal 0.000000 -1.000000 0.000000
outer loop
vertex 0.000000 -0.252754 0.484148
vertex -0.041009 -0.252754 0.484148
vertex -0.041009 -0.252754 -0.000800
endloop
endfacet
facet normal 0.000000 0.000000 -1.000000
outer loop
vertex 0.000000 -0.194369 -0.000800
vertex 0.000000 -0.252754 -0.000800
vertex -0.041009 -0.252754 -0.000800
endloop
endfacet
facet normal 0.000000 0.000000 -1.000000
outer loop
vertex -0.041009 -0.252754 -0.000800
vertex -0.041009 -0.194369 -0.000800
vertex 0.000000 -0.194369 -0.000800
endloop
endfacet
facet normal 0.000000 -0.250676 0.968071
outer loop
vertex -0.041009 -0.194369 0.499266
vertex -0.041009 -0.252754 0.484148
vertex 0.000000 -0.252754 0.484148
endloop
endfacet
facet normal 0.000000 -0.250676 0.968071
outer loop
vertex 0.000000 -0.252754 0.484148
vertex 0.000000 -0.194369 0.499266
vertex -0.041009 -0.194369 0.499266
endloop
endfacet
facet normal 1.000000 0.000000 0.000000
outer loop
vertex 1.150902 0.081581 0.505866
vertex 1.150902 0.286080 0.505866
vertex 1.150902 0.286080 0.550336
endloop
endfacet
facet normal 1.000000 0.000000 0.000000
outer loop
vertex 1.150902 0.286080 0.550336
vertex 1.150902 0.081581 0.550336
vertex 1.150902 0.081581 0.505866
endloop
endfacet
facet normal 0.000000 1.000000 0.000000
outer loop
vertex 1.150902 0.286080 0.505866
vertex 0.000000 0.286080 0.505866
vertex 0.000000 0.286080 0.550336
endloop
endfacet
facet normal 0.000000 1.000000 0.000000
outer loop
vertex 0.000000 0.286080 0.550336
vertex 1.150902 0.286080 0.550336
vertex 1.150902 0.286080 0.505866
endloop
endfacet
facet normal -1.000000 0.000000 0.000000
outer loop
vertex 0.000000 -0.174661 0.488782
vertex 0.000000 -0.268814 0.443616
vertex 0.000000 -0.285006 0.485034
endloop
endfacet
facet normal -1.000000 0.000000 0.000000
outer loop
vertex 0.000000 -0.285006 0.485034
vertex 0.000000 -0.174661 0.533252
vertex 0.000000 -0.174661 0.488782
endloop
endfacet
facet normal 0.000000 -0.931353 -0.364119
outer loop
vertex 0.000000 -0.268814 0.443616
vertex 1.150902 -0.268814 0.443616
vertex 1.150902 -0.285006 0.485034
endloop
endfacet
facet normal 0.000000 -0.931353 -0.364119
outer loop
vertex 1.150902 -0.285006 0.485034
vertex 0.000000 -0.285006 0.485034
vertex 0.000000 -0.268814 0.443616
endloop
endfacet
facet normal 0.000000 0.432514 -0.901627
outer loop
vertex 1.150902 -0.174661 0.488782
vertex 1.150902 -0.268814 0.443616
vertex 0.000000 -0.268814 0.443616
endloop
endfacet
facet normal 0.000000 0.432513 -0.901627
outer loop
vertex 0.000000 -0.268814 0.443616
vertex 0.000000 -0.174661 0.488782
vertex 1.150902 -0.174661 0.488782
endloop
endfacet
facet normal 0.000000 -0.400415 0.916334
outer loop
vertex 0.000000 -0.174661 0.533252
vertex 0.000000 -0.285006 0.485034
vertex 1.150902 -0.285006 0.485034
endloop
endfacet
facet normal 0.000000 -0.400415 0.916334
outer loop
vertex 1.150902 -0.285006 0.485034
vertex 1.150902 -0.174661 0.533252
vertex 0.000000 -0.174661 0.533252
endloop
endfacet
facet normal 0.000000 0.000000 1.000000
outer loop
vertex 0.000000 0.286080 0.550336
vertex 0.000000 0.081581 0.550336
vertex 1.150902 0.081581 0.550336
endloop
endfacet
facet normal 0.000000 0.000000 1.000000
outer loop
vertex 1.150902 0.081581 0.550336
vertex 1.150902 0.286080 0.550336
vertex 0.000000 0.286080 0.550336
endloop
endfacet
facet normal 0.000000 0.000000 1.000000
outer loop
vertex 0.000000 0.004585 0.550336
vertex 0.000000 -0.072411 0.550336
vertex 1.150902 -0.072411 0.550336
endloop
endfacet
facet normal -0.000000 0.000000 1.000000
outer loop
vertex 1.150902 -0.072411 0.550336
vertex 1.150902 0.004585 0.550336
vertex 0.000000 0.004585 0.550336
endloop
endfacet
facet normal 0.000000 0.000000 -1.000000
outer loop
vertex 1.150902 0.286080 0.505866
vertex 1.150902 0.081581 0.505866
vertex 0.000000 0.081581 0.505866
endloop
endfacet
facet normal 0.000000 0.000000 -1.000000
outer loop
vertex 0.000000 0.081581 0.505866
vertex 0.000000 0.286080 0.505866
vertex 1.150902 0.286080 0.505866
endloop
endfacet
facet normal -0.000000 0.000000 -1.000000
outer loop
vertex 1.150902 0.004585 0.505866
vertex 1.150902 -0.072411 0.505866
vertex 0.000000 -0.072411 0.505866
endloop
endfacet
facet normal 0.000000 0.000000 -1.000000
outer loop
vertex 0.000000 -0.072411 0.505866
vertex 0.000000 0.004585 0.505866
vertex 1.150902 0.004585 0.505866
endloop
endfacet
facet normal -1.000000 0.000000 0.000000
outer loop
vertex 0.000000 0.286080 0.505866
vertex 0.000000 0.081581 0.505866
vertex 0.000000 0.081581 0.550336
endloop
endfacet
facet normal -1.000000 0.000000 0.000000
outer loop
vertex 0.000000 0.081581 0.550336
vertex 0.000000 0.286080 0.550336
vertex 0.000000 0.286080 0.505866
endloop
endfacet
facet normal -1.000000 0.000000 0.000000
outer loop
vertex 0.000000 0.004585 0.505866
vertex 0.000000 -0.072411 0.505866
vertex 0.000000 -0.072411 0.550336
endloop
endfacet
facet normal -1.000000 0.000000 0.000000
outer loop
vertex 0.000000 -0.072411 0.550336
vertex 0.000000 0.004585 0.550336
vertex 0.000000 0.004585 0.505866
endloop
endfacet
facet normal 1.000000 0.000002 0.000000
outer loop
vertex 1.150902 -0.174661 0.488782
vertex 1.150902 -0.072411 0.505866
vertex 1.150902 -0.072411 0.550336
endloop
endfacet
facet normal 1.000000 -0.000002 0.000000
outer loop
vertex 1.150902 -0.072411 0.550336
vertex 1.150902 -0.174661 0.533252
vertex 1.150902 -0.174661 0.488782
endloop
endfacet
facet normal 1.000000 0.000000 0.000000
outer loop
vertex 1.150902 0.004585 0.505866
vertex 1.150902 0.081581 0.505866
vertex 1.150902 0.081581 0.550336
endloop
endfacet
facet normal 1.000000 0.000000 0.000000
outer loop
vertex 1.150902 0.081581 0.550336
vertex 1.150902 0.004585 0.550336
vertex 1.150902 0.004585 0.505866
endloop
endfacet
facet normal 1.000000 0.000000 0.000000
outer loop
vertex 1.131806 -0.252754 -0.000800
vertex 1.131806 -0.194369 -0.000800
vertex 1.131806 -0.194369 0.499266
endloop
endfacet
facet normal 1.000000 0.000000 0.000000
outer loop
vertex 1.131806 -0.194369 0.499266
vertex 1.131806 -0.252754 0.484148
vertex 1.131806 -0.252754 -0.000800
endloop
endfacet
facet normal 0.000000 1.000000 0.000000
outer loop
vertex 1.131806 -0.194369 -0.000800
vertex 1.073421 -0.194369 -0.000800
vertex 1.073421 -0.194369 0.499266
endloop
endfacet
facet normal 0.000000 1.000000 0.000000
outer loop
vertex 1.073421 -0.194369 0.499266
vertex 1.131806 -0.194369 0.499266
vertex 1.131806 -0.194369 -0.000800
endloop
endfacet
facet normal -1.000000 0.000000 0.000000
outer loop
vertex 1.073421 -0.194369 -0.000800
vertex 1.073421 -0.252754 -0.000800
vertex 1.073421 -0.252754 0.484148
endloop
endfacet
facet normal -1.000000 0.000000 0.000000
outer loop
vertex 1.073421 -0.252754 0.484148
vertex 1.073421 -0.194369 0.499266
vertex 1.073421 -0.194369 -0.000800
endloop
endfacet
facet normal 0.000000 -1.000000 0.000000
outer loop
vertex 1.073421 -0.252754 -0.000800
vertex 1.131806 -0.252754 -0.000800
vertex 1.131806 -0.252754 0.484148
endloop
endfacet
facet normal 0.000000 -1.000000 0.000000
outer loop
vertex 1.131806 -0.252754 0.484148
vertex 1.073421 -0.252754 0.484148
vertex 1.073421 -0.252754 -0.000800
endloop
endfacet
facet normal 0.000000 0.000000 -1.000000
outer loop
vertex 1.131806 -0.194369 -0.000800
vertex 1.131806 -0.252754 -0.000800
vertex 1.073421 -0.252754 -0.000800
endloop
endfacet
facet normal 0.000000 0.000000 -1.000000
outer loop
vertex 1.073421 -0.252754 -0.000800
vertex 1.073421 -0.194369 -0.000800
vertex 1.131806 -0.194369 -0.000800
endloop
endfacet
facet normal 0.000000 -0.250676 0.968071
outer loop
vertex 1.073421 -0.194369 0.499266
vertex 1.073421 -0.252754 0.484148
vertex 1.131806 -0.252754 0.484148
endloop
endfacet
facet normal 0.000000 -0.250676 0.968071
outer loop
vertex 1.131806 -0.252754 0.484148
vertex 1.131806 -0.194369 0.499266
vertex 1.073421 -0.194369 0.499266
endloop
endfacet
facet normal 1.000000 -0.000002 0.000000
outer loop
vertex 1.150902 -0.268814 0.443616
vertex 1.150902 -0.174661 0.488782
vertex 1.150902 -0.174661 0.533252
endloop
endfacet
facet normal 1.000000 0.000001 0.000000
outer loop
vertex 1.150902 -0.174661 0.533252
vertex 1.150902 -0.285006 0.485034
vertex 1.150902 -0.268814 0.443616
endloop
endfacet
facet normal -0.000000 -0.164798 0.986327
outer loop
vertex 0.000000 -0.072411 0.550336
vertex 0.000000 -0.174661 0.533252
vertex 1.150902 -0.174661 0.533252
endloop
endfacet
facet normal 0.000000 -0.164798 0.986327
outer loop
vertex 1.150902 -0.174661 0.533252
vertex 1.150902 -0.072411 0.550336
vertex 0.000000 -0.072411 0.550336
endloop
endfacet
facet normal 0.000000 0.164798 -0.986327
outer loop
vertex 1.150902 -0.072411 0.505866
vertex 1.150902 -0.174661 0.488782
vertex 0.000000 -0.174661 0.488782
endloop
endfacet
facet normal 0.000000 0.164798 -0.986327
outer loop
vertex 0.000000 -0.174661 0.488782
vertex 0.000000 -0.072411 0.505866
vertex 1.150902 -0.072411 0.505866
endloop
endfacet
facet normal -1.000000 0.000000 0.000000
outer loop
vertex 0.000000 -0.072411 0.505866
vertex 0.000000 -0.174661 0.488782
vertex 0.000000 -0.174661 0.533252
endloop
endfacet
facet normal -1.000000 0.000000 0.000000
outer loop
vertex 0.000000 -0.174661 0.533252
vertex 0.000000 -0.072411 0.550336
vertex 0.000000 -0.072411 0.505866
endloop
endfacet
facet normal 1.000000 0.000000 0.000000
outer loop
vertex 1.150902 -0.072411 0.505866
vertex 1.150902 0.004585 0.505866
vertex 1.150902 0.004585 0.550336
endloop
endfacet
facet normal 1.000000 0.000000 0.000000
outer loop
vertex 1.150902 0.004585 0.550336
vertex 1.150902 -0.072411 0.550336
vertex 1.150902 -0.072411 0.505866
endloop
endfacet
facet normal -1.000000 0.000000 0.000000
outer loop
vertex 0.000000 0.081581 0.505866
vertex 0.000000 0.004585 0.505866
vertex 0.000000 0.004585 0.550336
endloop
endfacet
facet normal -1.000000 0.000000 0.000000
outer loop
vertex 0.000000 0.004585 0.550336
vertex 0.000000 0.081581 0.550336
vertex 0.000000 0.081581 0.505866
endloop
endfacet
facet normal -0.000000 0.000000 -1.000000
outer loop
vertex 1.150902 0.081581 0.505866
vertex 1.150902 0.004585 0.505866
vertex 0.000000 0.004585 0.505866
endloop
endfacet
facet normal 0.000000 0.000000 -1.000000
outer loop
vertex 0.000000 0.004585 0.505866
vertex 0.000000 0.081581 0.505866
vertex 1.150902 0.081581 0.505866
endloop
endfacet
facet normal 0.000000 0.000000 1.000000
outer loop
vertex 0.000000 0.081581 0.550336
vertex 0.000000 0.004585 0.550336
vertex 1.150902 0.004585 0.550336
endloop
endfacet
facet normal -0.000000 0.000000 1.000000
outer loop
vertex 1.150902 0.004585 0.550336
vertex 1.150902 0.081581 0.550336
vertex 0.000000 0.081581 0.550336
endloop
endfacet
facet normal -1.000000 0.000000 0.000000
outer loop
vertex -0.041009 0.244877 -0.000800
vertex -0.041009 0.244877 0.535038
vertex -0.041009 0.303261 0.535038
endloop
endfacet
facet normal -1.000000 0.000000 0.000000
outer loop
vertex -0.041009 0.303261 0.535038
vertex -0.041009 0.303261 -0.000800
vertex -0.041009 0.244877 -0.000800
endloop
endfacet
facet normal 0.000000 1.000000 0.000000
outer loop
vertex -0.041009 0.303261 -0.000800
vertex -0.041009 0.303261 0.535038
vertex 0.000000 0.303261 0.535038
endloop
endfacet
facet normal 0.000000 1.000000 0.000000
outer loop
vertex 0.000000 0.303261 0.535038
vertex 0.000000 0.303261 -0.000800
vertex -0.041009 0.303261 -0.000800
endloop
endfacet
facet normal 0.000000 -1.000000 0.000000
outer loop
vertex -0.041009 0.244877 0.535038
vertex -0.041009 0.244877 -0.000800
vertex 0.000000 0.244877 -0.000800
endloop
endfacet
facet normal 0.000000 -1.000000 0.000000
outer loop
vertex 0.000000 0.244877 -0.000800
vertex 0.000000 0.244877 0.535038
vertex -0.041009 0.244877 0.535038
endloop
endfacet
facet normal 0.000000 0.000000 -1.000000
outer loop
vertex 0.000000 0.244877 -0.000800
vertex -0.041009 0.244877 -0.000800
vertex -0.041009 0.303261 -0.000800
endloop
endfacet
facet normal 0.000000 0.000000 -1.000000
outer loop
vertex -0.041009 0.303261 -0.000800
vertex 0.000000 0.303261 -0.000800
vertex 0.000000 0.244877 -0.000800
endloop
endfacet
facet normal -1.000000 -0.000000 0.000000
outer loop
vertex -0.041009 0.380928 1.084107
vertex -0.041009 0.357391 1.089984
vertex -0.041009 0.408050 1.269658
endloop
endfacet
facet normal -1.000000 0.000000 0.000000
outer loop
vertex -0.041009 0.408050 1.269658
vertex -0.041009 0.431242 1.262539
vertex -0.041009 0.380928 1.084107
endloop
endfacet
facet normal 0.000000 0.293443 0.955976
outer loop
vertex 0.000000 0.431242 1.262539
vertex -0.041009 0.431242 1.262539
vertex -0.041009 0.408050 1.269658
endloop
endfacet
facet normal 0.000000 0.293443 0.955976
outer loop
vertex -0.041009 0.408050 1.269658
vertex 0.000000 0.408050 1.269658
vertex 0.000000 0.431242 1.262539
endloop
endfacet
facet normal 0.000000 -0.962475 0.271371
outer loop
vertex -0.041009 0.357391 1.089984
vertex 0.000000 0.357391 1.089984
vertex 0.000000 0.408050 1.269658
endloop
endfacet
facet normal 0.000000 -0.962475 0.271371
outer loop
vertex 0.000000 0.408050 1.269658
vertex -0.041009 0.408050 1.269658
vertex -0.041009 0.357391 1.089984
endloop
endfacet
facet normal 0.000000 0.962468 -0.271394
outer loop
vertex 0.000000 0.380928 1.084107
vertex -0.041009 0.380928 1.084107
vertex -0.041009 0.431242 1.262539
endloop
endfacet
facet normal 0.000000 0.962468 -0.271394
outer loop
vertex -0.041009 0.431242 1.262539
vertex 0.000000 0.431242 1.262539
vertex 0.000000 0.380928 1.084107
endloop
endfacet
facet normal 0.000000 1.000000 0.000000
outer loop
vertex -0.041009 0.303261 0.535038
vertex -0.041009 0.303261 0.549465
vertex 0.000000 0.303261 0.549465
endloop
endfacet
facet normal 0.000000 1.000000 0.000000
outer loop
vertex 0.000000 0.303261 0.549465
vertex 0.000000 0.303261 0.535038
vertex -0.041009 0.303261 0.535038
endloop
endfacet
facet normal 0.000000 -0.389408 0.921065
outer loop
vertex 0.000000 0.244877 0.535038
vertex 0.000000 0.279001 0.549465
vertex -0.041009 0.279001 0.549465
endloop
endfacet
facet normal 0.000000 -0.389408 0.921065
outer loop
vertex -0.041009 0.279001 0.549465
vertex -0.041009 0.244877 0.535038
vertex 0.000000 0.244877 0.535038
endloop
endfacet
facet normal -1.000000 0.000000 0.000000
outer loop
vertex -0.041009 0.244877 0.535038
vertex -0.041009 0.279001 0.549465
vertex -0.041009 0.303261 0.549465
endloop
endfacet
facet normal -1.000000 0.000000 0.000000
outer loop
vertex -0.041009 0.303261 0.549465
vertex -0.041009 0.303261 0.535038
vertex -0.041009 0.244877 0.535038
endloop
endfacet
facet normal 0.000000 0.997735 -0.067264
outer loop
vertex 0.000000 0.303261 0.549465
vertex -0.041009 0.303261 0.549465
vertex -0.041009 0.315263 0.727481
endloop
endfacet
facet normal 0.000000 0.997735 -0.067264
outer loop
vertex -0.041009 0.315263 0.727481
vertex 0.000000 0.315263 0.727481
vertex 0.000000 0.303261 0.549465
endloop
endfacet
facet normal 0.000000 0.989221 -0.146430
outer loop
vertex 0.000000 0.315263 0.727481
vertex -0.041009 0.315263 0.727481
vertex -0.041009 0.341381 0.903924
endloop
endfacet
facet normal 0.000000 0.989221 -0.146430
outer loop
vertex -0.041009 0.341381 0.903924
vertex 0.000000 0.341381 0.903924
vertex 0.000000 0.315263 0.727481
endloop
endfacet
facet normal 0.000000 0.976750 -0.214382
outer loop
vertex 0.000000 0.341381 0.903924
vertex -0.041009 0.341381 0.903924
vertex -0.041009 0.380928 1.084107
endloop
endfacet
facet normal 0.000000 0.976750 -0.214382
outer loop
vertex -0.041009 0.380928 1.084107
vertex 0.000000 0.380928 1.084107
vertex 0.000000 0.341381 0.903924
endloop
endfacet
facet normal 0.000000 -0.997753 0.067000
outer loop
vertex -0.041009 0.279001 0.549465
vertex 0.000000 0.279001 0.549465
vertex 0.000000 0.291105 0.729704
endloop
endfacet
facet normal 0.000000 -0.997753 0.067000
outer loop
vertex 0.000000 0.291105 0.729704
vertex -0.041009 0.291105 0.729704
vertex -0.041009 0.279001 0.549465
endloop
endfacet
facet normal 0.000000 -0.989151 0.146902
outer loop
vertex -0.041009 0.291105 0.729704
vertex 0.000000 0.291105 0.729704
vertex 0.000000 0.317863 0.909880
endloop
endfacet
facet normal 0.000000 -0.989151 0.146902
outer loop
vertex 0.000000 0.317863 0.909880
vertex -0.041009 0.317863 0.909880
vertex -0.041009 0.291105 0.729704
endloop
endfacet
facet normal 0.000000 -0.976753 0.214369
outer loop
vertex -0.041009 0.317863 0.909880
vertex 0.000000 0.317863 0.909880
vertex 0.000000 0.357391 1.089984
endloop
endfacet
facet normal 0.000000 -0.976753 0.214369
outer loop
vertex 0.000000 0.357391 1.089984
vertex -0.041009 0.357391 1.089984
vertex -0.041009 0.317863 0.909880
endloop
endfacet
facet normal -1.000000 0.000000 0.000000
outer loop
vertex -0.041009 0.303261 0.549465
vertex -0.041009 0.279001 0.549465
vertex -0.041009 0.291105 0.729704
endloop
endfacet
facet normal -1.000000 0.000000 0.000000
outer loop
vertex -0.041009 0.291105 0.729704
vertex -0.041009 0.315263 0.727481
vertex -0.041009 0.303261 0.549465
endloop
endfacet
facet normal -1.000000 0.000000 0.000000
outer loop
vertex -0.041009 0.315263 0.727481
vertex -0.041009 0.291105 0.729704
vertex -0.041009 0.317863 0.909880
endloop
endfacet
facet normal -1.000000 0.000000 0.000000
outer loop
vertex -0.041009 0.317863 0.909880
vertex -0.041009 0.341381 0.903924
vertex -0.041009 0.315263 0.727481
endloop
endfacet
facet normal -1.000000 0.000000 0.000000
outer loop
vertex -0.041009 0.341381 0.903924
vertex -0.041009 0.317863 0.909880
vertex -0.041009 0.357391 1.089984
endloop
endfacet
facet normal -1.000000 0.000000 0.000000
outer loop
vertex -0.041009 0.357391 1.089984
vertex -0.041009 0.380928 1.084107
vertex -0.041009 0.341381 0.903924
endloop
endfacet
facet normal -1.000000 0.000000 0.000000
outer loop
vertex -1.155440 0.244877 -0.000800
vertex -1.155440 0.244877 0.535038
vertex -1.155440 0.303261 0.535038
endloop
endfacet
facet normal -1.000000 0.000000 0.000000
outer loop
vertex -1.155440 0.303261 0.535038
vertex -1.155440 0.303261 -0.000800
vertex -1.155440 0.244877 -0.000800
endloop
endfacet
facet normal 0.000000 1.000000 0.000000
outer loop
vertex -1.155440 0.303261 -0.000800
vertex -1.155440 0.303261 0.535038
vertex -1.084526 0.303261 0.535038
endloop
endfacet
facet normal 0.000000 1.000000 0.000000
outer loop
vertex -1.084526 0.303261 0.535038
vertex -1.084526 0.303261 -0.000800
vertex -1.155440 0.303261 -0.000800
endloop
endfacet
facet normal 1.000000 0.000000 0.000000
outer loop
vertex -1.084526 0.303261 -0.000800
vertex -1.084526 0.303261 0.535038
vertex -1.084526 0.244877 0.535038
endloop
endfacet
facet normal 1.000000 0.000000 0.000000
outer loop
vertex -1.084526 0.244877 0.535038
vertex -1.084526 0.244877 -0.000800
vertex -1.084526 0.303261 -0.000800
endloop
endfacet
facet normal 0.000000 -1.000000 0.000000
outer loop
vertex -1.084526 0.244877 -0.000800
vertex -1.084526 0.244877 0.535038
vertex -1.155440 0.244877 0.535038
endloop
endfacet
facet normal 0.000000 -1.000000 0.000000
outer loop
vertex -1.155440 0.244877 0.535038
vertex -1.155440 0.244877 -0.000800
vertex -1.084526 0.244877 -0.000800
endloop
endfacet
facet normal 0.000000 0.000000 -1.000000
outer loop
vertex -1.155440 0.303261 -0.000800
vertex -1.084526 0.303261 -0.000800
vertex -1.084526 0.244877 -0.000800
endloop
endfacet
facet normal 0.000000 0.000000 -1.000000
outer loop
vertex -1.084526 0.244877 -0.000800
vertex -1.155440 0.244877 -0.000800
vertex -1.155440 0.303261 -0.000800
endloop
endfacet
facet normal -1.000000 -0.000003 0.000000
outer loop
vertex -1.155440 0.380054 1.080607
vertex -1.155440 0.323409 1.094751
vertex -1.155440 0.375428 1.279672
endloop
endfacet
facet normal -1.000000 0.000000 0.000000
outer loop
vertex -1.155440 0.375428 1.279672
vertex -1.155440 0.431242 1.262539
vertex -1.155440 0.380054 1.080607
endloop
endfacet
facet normal 0.000000 0.293446 0.955976
outer loop
vertex -1.084526 0.431242 1.262539
vertex -1.155440 0.431242 1.262539
vertex -1.155440 0.375428 1.279672
endloop
endfacet
facet normal 0.000000 0.293447 0.955975
outer loop
vertex -1.155440 0.375428 1.279672
vertex -1.084526 0.375428 1.279672
vertex -1.084526 0.431242 1.262539
endloop
endfacet
facet normal 0.000000 -0.962637 0.270794
outer loop
vertex -1.155440 0.323409 1.094751
vertex -1.084526 0.323409 1.094751
vertex -1.084526 0.375428 1.279672
endloop
endfacet
facet normal 0.000000 -0.962637 0.270794
outer loop
vertex -1.084526 0.375428 1.279672
vertex -1.155440 0.375428 1.279672
vertex -1.155440 0.323409 1.094751
endloop
endfacet
facet normal 0.000000 0.962624 -0.270841
outer loop
vertex -1.084526 0.380054 1.080607
vertex -1.155440 0.380054 1.080607
vertex -1.155440 0.431242 1.262539
endloop
endfacet
facet normal 0.000000 0.962625 -0.270840
outer loop
vertex -1.155440 0.431242 1.262539
vertex -1.084526 0.431242 1.262539
vertex -1.084526 0.380054 1.080607
endloop
endfacet
facet normal 1.000000 0.000000 0.000000
outer loop
vertex -1.084526 0.323409 1.094751
vertex -1.084526 0.380054 1.080607
vertex -1.084526 0.431242 1.262539
endloop
endfacet
facet normal 1.000000 -0.000003 0.000000
outer loop
vertex -1.084526 0.431242 1.262539
vertex -1.084526 0.375428 1.279672
vertex -1.084526 0.323409 1.094751
endloop
endfacet
facet normal -1.000000 0.000001 0.000000
outer loop
vertex -1.107798 0.323116 0.901109
vertex -1.107798 0.300647 0.754320
vertex -1.107798 0.283899 0.755861
endloop
endfacet
facet normal -1.000000 0.000000 0.000000
outer loop
vertex -1.107798 0.283899 0.755861
vertex -1.107798 0.306813 0.905238
vertex -1.107798 0.323116 0.901109
endloop
endfacet
facet normal 0.000000 0.964128 -0.265438
outer loop
vertex -1.107798 0.363547 1.084729
vertex -1.107798 0.404291 1.232720
vertex 0.000000 0.404291 1.232720
endloop
endfacet
facet normal 0.000000 0.964128 -0.265438
outer loop
vertex 0.000000 0.404291 1.232720
vertex 0.000000 0.363547 1.084729
vertex -1.107798 0.363547 1.084729
endloop
endfacet
facet normal 0.000000 -0.091654 -0.995791
outer loop
vertex -1.107798 0.283899 0.755861
vertex -1.107798 0.300647 0.754320
vertex 0.000000 0.300647 0.754320
endloop
endfacet
facet normal 0.000000 -0.091654 -0.995791
outer loop
vertex 0.000000 0.300647 0.754320
vertex 0.000000 0.283899 0.755861
vertex -1.107798 0.283899 0.755861
endloop
endfacet
facet normal 0.000000 -0.988439 0.151619
outer loop
vertex -1.107798 0.306813 0.905238
vertex -1.107798 0.283899 0.755861
vertex 0.000000 0.283899 0.755861
endloop
endfacet
facet normal 0.000000 -0.988439 0.151619
outer loop
vertex 0.000000 0.283899 0.755861
vertex 0.000000 0.306813 0.905238
vertex -1.107798 0.306813 0.905238
endloop
endfacet
facet normal 0.000000 0.293444 0.955976
outer loop
vertex -1.107798 0.404291 1.232720
vertex -1.107798 0.388213 1.237656
vertex 0.000000 0.388213 1.237656
endloop
endfacet
facet normal 0.000000 0.293442 0.955977
outer loop
vertex 0.000000 0.388213 1.237656
vertex 0.000000 0.404291 1.232720
vertex -1.107798 0.404291 1.232720
endloop
endfacet
facet normal 1.000000 0.000000 0.000000
outer loop
vertex -1.084526 0.244877 0.535038
vertex -1.084526 0.303261 0.535038
vertex -1.084526 0.314271 0.716706
endloop
endfacet
facet normal 1.000000 0.000000 0.000000
outer loop
vertex -1.084526 0.314271 0.716706
vertex -1.084526 0.256132 0.722057
vertex -1.084526 0.244877 0.535038
endloop
endfacet
facet normal 1.000000 0.000000 0.000000
outer loop
vertex -1.084526 0.256132 0.722057
vertex -1.084526 0.314271 0.716706
vertex -1.084526 0.339610 0.896931
endloop
endfacet
facet normal 1.000000 0.000000 0.000000
outer loop
vertex -1.084526 0.339610 0.896931
vertex -1.084526 0.283012 0.911266
vertex -1.084526 0.256132 0.722057
endloop
endfacet
facet normal 1.000000 -0.000003 0.000000
outer loop
vertex -1.084526 0.283012 0.911266
vertex -1.084526 0.339610 0.896931
vertex -1.084526 0.380054 1.080607
endloop
endfacet
facet normal 1.000000 0.000000 0.000000
outer loop
vertex -1.084526 0.380054 1.080607
vertex -1.084526 0.323409 1.094751
vertex -1.084526 0.283012 0.911266
endloop
endfacet
facet normal 0.000000 0.998169 -0.060491
outer loop
vertex -1.084526 0.303261 0.535038
vertex -1.155440 0.303261 0.535038
vertex -1.155440 0.314271 0.716706
endloop
endfacet
facet normal 0.000000 0.998169 -0.060491
outer loop
vertex -1.155440 0.314271 0.716706
vertex -1.084526 0.314271 0.716706
vertex -1.084526 0.303261 0.535038
endloop
endfacet
facet normal 0.000000 0.990261 -0.139225
outer loop
vertex -1.084526 0.314271 0.716706
vertex -1.155440 0.314271 0.716706
vertex -1.155440 0.339610 0.896931
endloop
endfacet
facet normal 0.000000 0.990261 -0.139225
outer loop
vertex -1.155440 0.339610 0.896931
vertex -1.084526 0.339610 0.896931
vertex -1.084526 0.314271 0.716706
endloop
endfacet
facet normal 0.000000 0.976604 -0.215045
outer loop
vertex -1.084526 0.339610 0.896931
vertex -1.155440 0.339610 0.896931
vertex -1.155440 0.380054 1.080607
endloop
endfacet
facet normal 0.000000 0.976604 -0.215045
outer loop
vertex -1.155440 0.380054 1.080607
vertex -1.084526 0.380054 1.080607
vertex -1.084526 0.339610 0.896931
endloop
endfacet
facet normal 0.000000 -0.998194 0.060073
outer loop
vertex -1.155440 0.244877 0.535038
vertex -1.084526 0.244877 0.535038
vertex -1.084526 0.256132 0.722057
endloop
endfacet
facet normal 0.000000 -0.998194 0.060073
outer loop
vertex -1.084526 0.256132 0.722057
vertex -1.155440 0.256132 0.722057
vertex -1.155440 0.244877 0.535038
endloop
endfacet
facet normal 0.000000 -0.990059 0.140653
outer loop
vertex -1.155440 0.256132 0.722057
vertex -1.084526 0.256132 0.722057
vertex -1.084526 0.283012 0.911266
endloop
endfacet
facet normal 0.000000 -0.990059 0.140653
outer loop
vertex -1.084526 0.283012 0.911266
vertex -1.155440 0.283012 0.911266
vertex -1.155440 0.256132 0.722057
endloop
endfacet
facet normal 0.000000 -0.976611 0.215014
outer loop
vertex -1.155440 0.283012 0.911266
vertex -1.084526 0.283012 0.911266
vertex -1.084526 0.323409 1.094751
endloop
endfacet
facet normal 0.000000 -0.976611 0.215015
outer loop
vertex -1.084526 0.323409 1.094751
vertex -1.155440 0.323409 1.094751
vertex -1.155440 0.283012 0.911266
endloop
endfacet
facet normal -1.000000 0.000000 0.000000
outer loop
vertex -1.155440 0.303261 0.535038
vertex -1.155440 0.244877 0.535038
vertex -1.155440 0.256132 0.722057
endloop
endfacet
facet normal -1.000000 0.000000 0.000000
outer loop
vertex -1.155440 0.256132 0.722057
vertex -1.155440 0.314271 0.716706
vertex -1.155440 0.303261 0.535038
endloop
endfacet
facet normal -1.000000 0.000000 0.000000
outer loop
vertex -1.155440 0.314271 0.716706
vertex -1.155440 0.256132 0.722057
vertex -1.155440 0.283012 0.911266
endloop
endfacet
facet normal -1.000000 0.000000 0.000000
outer loop
vertex -1.155440 0.283012 0.911266
vertex -1.155440 0.339610 0.896931
vertex -1.155440 0.314271 0.716706
endloop
endfacet
facet normal -1.000000 0.000000 0.000000
outer loop
vertex -1.155440 0.339610 0.896931
vertex -1.155440 0.283012 0.911266
vertex -1.155440 0.323409 1.094751
endloop
endfacet
facet normal -1.000000 0.000000 0.000000
outer loop
vertex -1.155440 0.323409 1.094751
vertex -1.155440 0.380054 1.080607
vertex -1.155440 0.339610 0.896931
endloop
endfacet
facet normal 0.000000 -0.964124 0.265453
outer loop
vertex -1.107798 0.388213 1.237656
vertex -1.107798 0.347230 1.088803
vertex 0.000000 0.347230 1.088803
endloop
endfacet
facet normal 0.000000 -0.964124 0.265453
outer loop
vertex 0.000000 0.347230 1.088803
vertex 0.000000 0.388213 1.237656
vertex -1.107798 0.388213 1.237656
endloop
endfacet
facet normal 0.000000 -0.976608 0.215027
outer loop
vertex -1.107798 0.347230 1.088803
vertex -1.107798 0.306813 0.905238
vertex 0.000000 0.306813 0.905238
endloop
endfacet
facet normal 0.000000 -0.976608 0.215027
outer loop
vertex 0.000000 0.306813 0.905238
vertex 0.000000 0.347230 1.088803
vertex -1.107798 0.347230 1.088803
endloop
endfacet
facet normal 0.000000 0.988486 -0.151310
outer loop
vertex -1.107798 0.300647 0.754320
vertex -1.107798 0.323116 0.901109
vertex 0.000000 0.323116 0.901109
endloop
endfacet
facet normal 0.000000 0.988486 -0.151310
outer loop
vertex 0.000000 0.323116 0.901109
vertex 0.000000 0.300647 0.754320
vertex -1.107798 0.300647 0.754320
endloop
endfacet
facet normal 0.000000 0.976606 -0.215036
outer loop
vertex -1.107798 0.323116 0.901109
vertex -1.107798 0.363547 1.084729
vertex 0.000000 0.363547 1.084729
endloop
endfacet
facet normal 0.000000 0.976606 -0.215036
outer loop
vertex 0.000000 0.363547 1.084729
vertex 0.000000 0.323116 0.901109
vertex -1.107798 0.323116 0.901109
endloop
endfacet
facet normal -1.000000 -0.000001 0.000000
outer loop
vertex -1.107798 0.404291 1.232720
vertex -1.107798 0.363547 1.084729
vertex -1.107798 0.347230 1.088803
endloop
endfacet
facet normal -1.000000 0.000001 0.000000
outer loop
vertex -1.107798 0.347230 1.088803
vertex -1.107798 0.388213 1.237656
vertex -1.107798 0.404291 1.232720
endloop
endfacet
facet normal -1.000000 0.000000 0.000000
outer loop
vertex -1.107798 0.363547 1.084729
vertex -1.107798 0.323116 0.901109
vertex -1.107798 0.306813 0.905238
endloop
endfacet
facet normal -1.000000 0.000001 0.000000
outer loop
vertex -1.107798 0.306813 0.905238
vertex -1.107798 0.347230 1.088803
vertex -1.107798 0.363547 1.084729
endloop
endfacet
facet normal 1.000000 0.000000 0.000000
outer loop
vertex 0.041009 0.244877 -0.000800
vertex 0.041009 0.303261 -0.000800
vertex 0.041009 0.303261 0.535038
endloop
endfacet
facet normal 1.000000 0.000000 0.000000
outer loop
vertex 0.041009 0.303261 0.535038
vertex 0.041009 0.244877 0.535038
vertex 0.041009 0.244877 -0.000800
endloop
endfacet
facet normal 0.000000 1.000000 0.000000
outer loop
vertex 0.041009 0.303261 -0.000800
vertex 0.000000 0.303261 -0.000800
vertex 0.000000 0.303261 0.535038
endloop
endfacet
facet normal 0.000000 1.000000 0.000000
outer loop
vertex 0.000000 0.303261 0.535038
vertex 0.041009 0.303261 0.535038
vertex 0.041009 0.303261 -0.000800
endloop
endfacet
facet normal -1.000000 0.000000 0.000000
outer loop
vertex 0.000000 0.303261 -0.000800
vertex 0.000000 0.244877 -0.000800
vertex 0.000000 0.244877 0.535038
endloop
endfacet
facet normal -1.000000 0.000000 0.000000
outer loop
vertex 0.000000 0.244877 0.535038
vertex 0.000000 0.303261 0.535038
vertex 0.000000 0.303261 -0.000800
endloop
endfacet
facet normal 0.000000 -1.000000 0.000000
outer loop
vertex 0.000000 0.244877 -0.000800
vertex 0.041009 0.244877 -0.000800
vertex 0.041009 0.244877 0.535038
endloop
endfacet
facet normal 0.000000 -1.000000 0.000000
outer loop
vertex 0.041009 0.244877 0.535038
vertex 0.000000 0.244877 0.535038
vertex 0.000000 0.244877 -0.000800
endloop
endfacet
facet normal 0.000000 0.000000 -1.000000
outer loop
vertex 0.041009 0.303261 -0.000800
vertex 0.041009 0.244877 -0.000800
vertex 0.000000 0.244877 -0.000800
endloop
endfacet
facet normal 0.000000 0.000000 -1.000000
outer loop
vertex 0.000000 0.244877 -0.000800
vertex 0.000000 0.303261 -0.000800
vertex 0.041009 0.303261 -0.000800
endloop
endfacet
facet normal 1.000000 0.000000 0.000000
outer loop
vertex 0.041009 0.380928 1.084107
vertex 0.041009 0.431242 1.262539
vertex 0.041009 0.408050 1.269658
endloop
endfacet
facet normal 1.000000 -0.000000 0.000000
outer loop
vertex 0.041009 0.408050 1.269658
vertex 0.041009 0.357391 1.089984
vertex 0.041009 0.380928 1.084107
endloop
endfacet
facet normal 0.000000 0.293443 0.955976
outer loop
vertex 0.000000 0.431242 1.262539
vertex 0.000000 0.408050 1.269658
vertex 0.041009 0.408050 1.269658
endloop
endfacet
facet normal 0.000000 0.293443 0.955976
outer loop
vertex 0.041009 0.408050 1.269658
vertex 0.041009 0.431242 1.262539
vertex 0.000000 0.431242 1.262539
endloop
endfacet
facet normal 0.000000 -0.962475 0.271371
outer loop
vertex 0.041009 0.357391 1.089984
vertex 0.041009 0.408050 1.269658
vertex 0.000000 0.408050 1.269658
endloop
endfacet
facet normal 0.000000 -0.962475 0.271371
outer loop
vertex 0.000000 0.408050 1.269658
vertex 0.000000 0.357391 1.089984
vertex 0.041009 0.357391 1.089984
endloop
endfacet
facet normal 0.000000 0.962468 -0.271394
outer loop
vertex 0.000000 0.380928 1.084107
vertex 0.000000 0.431242 1.262539
vertex 0.041009 0.431242 1.262539
endloop
endfacet
facet normal 0.000000 0.962468 -0.271394
outer loop
vertex 0.041009 0.431242 1.262539
vertex 0.041009 0.380928 1.084107
vertex 0.000000 0.380928 1.084107
endloop
endfacet
facet normal -1.000000 0.000000 0.000000
outer loop
vertex 0.000000 0.357391 1.089984
vertex 0.000000 0.408050 1.269658
vertex 0.000000 0.431242 1.262539
endloop
endfacet
facet normal -1.000000 0.000000 0.000000
outer loop
vertex 0.000000 0.431242 1.262539
vertex 0.000000 0.380928 1.084107
vertex 0.000000 0.357391 1.089984
endloop
endfacet
facet normal 0.000000 1.000000 0.000000
outer loop
vertex 0.041009 0.303261 0.535038
vertex 0.000000 0.303261 0.535038
vertex 0.000000 0.303261 0.549465
endloop
endfacet
facet normal 0.000000 1.000000 0.000000
outer loop
vertex 0.000000 0.303261 0.549465
vertex 0.041009 0.303261 0.549465
vertex 0.041009 0.303261 0.535038
endloop
endfacet
facet normal -1.000000 0.000000 0.000000
outer loop
vertex 0.000000 0.303261 0.535038
vertex 0.000000 0.244877 0.535038
vertex 0.000000 0.279001 0.549465
endloop
endfacet
facet normal -1.000000 0.000000 0.000000
outer loop
vertex 0.000000 0.279001 0.549465
vertex 0.000000 0.303261 0.549465
vertex 0.000000 0.303261 0.535038
endloop
endfacet
facet normal 0.000000 -0.389408 0.921065
outer loop
vertex 0.000000 0.244877 0.535038
vertex 0.041009 0.244877 0.535038
vertex 0.041009 0.279001 0.549465
endloop
endfacet
facet normal 0.000000 -0.389408 0.921065
outer loop
vertex 0.041009 0.279001 0.549465
vertex 0.000000 0.279001 0.549465
vertex 0.000000 0.244877 0.535038
endloop
endfacet
facet normal 1.000000 0.000000 0.000000
outer loop
vertex 0.041009 0.244877 0.535038
vertex 0.041009 0.303261 0.535038
vertex 0.041009 0.303261 0.549465
endloop
endfacet
facet normal 1.000000 0.000000 0.000000
outer loop
vertex 0.041009 0.303261 0.549465
vertex 0.041009 0.279001 0.549465
vertex 0.041009 0.244877 0.535038
endloop
endfacet
facet normal -1.000000 0.000000 0.000000
outer loop
vertex 0.000000 0.279001 0.549465
vertex 0.000000 0.291105 0.729704
vertex 0.000000 0.315263 0.727481
endloop
endfacet
facet normal -1.000000 0.000000 0.000000
outer loop
vertex 0.000000 0.315263 0.727481
vertex 0.000000 0.303261 0.549465
vertex 0.000000 0.279001 0.549465
endloop
endfacet
facet normal -1.000000 0.000000 0.000000
outer loop
vertex 0.000000 0.291105 0.729704
vertex 0.000000 0.317863 0.909880
vertex 0.000000 0.341381 0.903924
endloop
endfacet
facet normal -1.000000 0.000000 0.000000
outer loop
vertex 0.000000 0.341381 0.903924
vertex 0.000000 0.315263 0.727481
vertex 0.000000 0.291105 0.729704
endloop
endfacet
facet normal -1.000000 0.000000 0.000000
outer loop
vertex 0.000000 0.317863 0.909880
vertex 0.000000 0.357391 1.089984
vertex 0.000000 0.380928 1.084107
endloop
endfacet
facet normal -1.000000 0.000000 0.000000
outer loop
vertex 0.000000 0.380928 1.084107
vertex 0.000000 0.341381 0.903924
vertex 0.000000 0.317863 0.909880
endloop
endfacet
facet normal 0.000000 0.997735 -0.067264
outer loop
vertex 0.000000 0.303261 0.549465
vertex 0.000000 0.315263 0.727481
vertex 0.041009 0.315263 0.727481
endloop
endfacet
facet normal 0.000000 0.997735 -0.067264
outer loop
vertex 0.041009 0.315263 0.727481
vertex 0.041009 0.303261 0.549465
vertex 0.000000 0.303261 0.549465
endloop
endfacet
facet normal 0.000000 0.989221 -0.146430
outer loop
vertex 0.000000 0.315263 0.727481
vertex 0.000000 0.341381 0.903924
vertex 0.041009 0.341381 0.903924
endloop
endfacet
facet normal 0.000000 0.989221 -0.146430
outer loop
vertex 0.041009 0.341381 0.903924
vertex 0.041009 0.315263 0.727481
vertex 0.000000 0.315263 0.727481
endloop
endfacet
facet normal 0.000000 0.976750 -0.214382
outer loop
vertex 0.000000 0.341381 0.903924
vertex 0.000000 0.380928 1.084107
vertex 0.041009 0.380928 1.084107
endloop
endfacet
facet normal 0.000000 0.976750 -0.214382
outer loop
vertex 0.041009 0.380928 1.084107
vertex 0.041009 0.341381 0.903924
vertex 0.000000 0.341381 0.903924
endloop
endfacet
facet normal 0.000000 -0.997753 0.067000
outer loop
vertex 0.041009 0.279001 0.549465
vertex 0.041009 0.291105 0.729704
vertex 0.000000 0.291105 0.729704
endloop
endfacet
facet normal 0.000000 -0.997753 0.067000
outer loop
vertex 0.000000 0.291105 0.729704
vertex 0.000000 0.279001 0.549465
vertex 0.041009 0.279001 0.549465
endloop
endfacet
facet normal 0.000000 -0.989151 0.146902
outer loop
vertex 0.041009 0.291105 0.729704
vertex 0.041009 0.317863 0.909880
vertex 0.000000 0.317863 0.909880
endloop
endfacet
facet normal 0.000000 -0.989151 0.146902
outer loop
vertex 0.000000 0.317863 0.909880
vertex 0.000000 0.291105 0.729704
vertex 0.041009 0.291105 0.729704
endloop
endfacet
facet normal 0.000000 -0.976753 0.214369
outer loop
vertex 0.041009 0.317863 0.909880
vertex 0.041009 0.357391 1.089984
vertex 0.000000 0.357391 1.089984
endloop
endfacet
facet normal 0.000000 -0.976753 0.214369
outer loop
vertex 0.000000 0.357391 1.089984
vertex 0.000000 0.317863 0.909880
vertex 0.041009 0.317863 0.909880
endloop
endfacet
facet normal 1.000000 0.000000 0.000000
outer loop
vertex 0.041009 0.303261 0.549465
vertex 0.041009 0.315263 0.727481
vertex 0.041009 0.291105 0.729704
endloop
endfacet
facet normal 1.000000 0.000000 0.000000
outer loop
vertex 0.041009 0.291105 0.729704
vertex 0.041009 0.279001 0.549465
vertex 0.041009 0.303261 0.549465
endloop
endfacet
facet normal 1.000000 -0.000000 0.000000
outer loop
vertex 0.041009 0.315263 0.727481
vertex 0.041009 0.341381 0.903924
vertex 0.041009 0.317863 0.909880
endloop
endfacet
facet normal 1.000000 0.000000 0.000000
outer loop
vertex 0.041009 0.317863 0.909880
vertex 0.041009 0.291105 0.729704
vertex 0.041009 0.315263 0.727481
endloop
endfacet
facet normal 1.000000 -0.000000 0.000000
outer loop
vertex 0.041009 0.341381 0.903924
vertex 0.041009 0.380928 1.084107
vertex 0.041009 0.357391 1.089984
endloop
endfacet
facet normal 1.000000 0.000000 0.000000
outer loop
vertex 0.041009 0.357391 1.089984
vertex 0.041009 0.317863 0.909880
vertex 0.041009 0.341381 0.903924
endloop
endfacet
facet normal 1.000000 0.000000 0.000000
outer loop
vertex 1.155440 0.244877 -0.000800
vertex 1.155440 0.303261 -0.000800
vertex 1.155440 0.303261 0.535038
endloop
endfacet
facet normal 1.000000 0.000000 0.000000
outer loop
vertex 1.155440 0.303261 0.535038
vertex 1.155440 0.244877 0.535038
vertex 1.155440 0.244877 -0.000800
endloop
endfacet
facet normal 0.000000 1.000000 0.000000
outer loop
vertex 1.155440 0.303261 -0.000800
vertex 1.084526 0.303261 -0.000800
vertex 1.084526 0.303261 0.535038
endloop
endfacet
facet normal 0.000000 1.000000 0.000000
outer loop
vertex 1.084526 0.303261 0.535038
vertex 1.155440 0.303261 0.535038
vertex 1.155440 0.303261 -0.000800
endloop
endfacet
facet normal -1.000000 0.000000 0.000000
outer loop
vertex 1.084526 0.303261 -0.000800
vertex 1.084526 0.244877 -0.000800
vertex 1.084526 0.244877 0.535038
endloop
endfacet
facet normal -1.000000 0.000000 0.000000
outer loop
vertex 1.084526 0.244877 0.535038
vertex 1.084526 0.303261 0.535038
vertex 1.084526 0.303261 -0.000800
endloop
endfacet
facet normal 0.000000 -1.000000 0.000000
outer loop
vertex 1.084526 0.244877 -0.000800
vertex 1.155440 0.244877 -0.000800
vertex 1.155440 0.244877 0.535038
endloop
endfacet
facet normal 0.000000 -1.000000 0.000000
outer loop
vertex 1.155440 0.244877 0.535038
vertex 1.084526 0.244877 0.535038
vertex 1.084526 0.244877 -0.000800
endloop
endfacet
facet normal 0.000000 0.000000 -1.000000
outer loop
vertex 1.155440 0.303261 -0.000800
vertex 1.155440 0.244877 -0.000800
vertex 1.084526 0.244877 -0.000800
endloop
endfacet
facet normal 0.000000 0.000000 -1.000000
outer loop
vertex 1.084526 0.244877 -0.000800
vertex 1.084526 0.303261 -0.000800
vertex 1.155440 0.303261 -0.000800
endloop
endfacet
facet normal 1.000000 -0.000001 0.000000
outer loop
vertex 1.155440 0.380054 1.080607
vertex 1.155440 0.431242 1.262539
vertex 1.155440 0.375428 1.279672
endloop
endfacet
facet normal 1.000000 -0.000002 0.000000
outer loop
vertex 1.155440 0.375428 1.279672
vertex 1.155440 0.323409 1.094751
vertex 1.155440 0.380054 1.080607
endloop
endfacet
facet normal 0.000000 0.293447 0.955975
outer loop
vertex 1.084526 0.431242 1.262539
vertex 1.084526 0.375428 1.279672
vertex 1.155440 0.375428 1.279672
endloop
endfacet
facet normal 0.000000 0.293446 0.955976
outer loop
vertex 1.155440 0.375428 1.279672
vertex 1.155440 0.431242 1.262539
vertex 1.084526 0.431242 1.262539
endloop
endfacet
facet normal 0.000000 -0.962637 0.270794
outer loop
vertex 1.155440 0.323409 1.094751
vertex 1.155440 0.375428 1.279672
vertex 1.084526 0.375428 1.279672
endloop
endfacet
facet normal 0.000000 -0.962637 0.270794
outer loop
vertex 1.084526 0.375428 1.279672
vertex 1.084526 0.323409 1.094751
vertex 1.155440 0.323409 1.094751
endloop
endfacet
facet normal 0.000000 0.962625 -0.270840
outer loop
vertex 1.084526 0.380054 1.080607
vertex 1.084526 0.431242 1.262539
vertex 1.155440 0.431242 1.262539
endloop
endfacet
facet normal 0.000000 0.962624 -0.270841
outer loop
vertex 1.155440 0.431242 1.262539
vertex 1.155440 0.380054 1.080607
vertex 1.084526 0.380054 1.080607
endloop
endfacet
facet normal -1.000000 -0.000002 0.000000
outer loop
vertex 1.084526 0.323409 1.094751
vertex 1.084526 0.375428 1.279672
vertex 1.084526 0.431242 1.262539
endloop
endfacet
facet normal -1.000000 -0.000001 0.000000
outer loop
vertex 1.084526 0.431242 1.262539
vertex 1.084526 0.380054 1.080607
vertex 1.084526 0.323409 1.094751
endloop
endfacet
facet normal 1.000000 0.000000 0.000000
outer loop
vertex 1.107798 0.323116 0.901109
vertex 1.107798 0.306813 0.905238
vertex 1.107798 0.283899 0.755861
endloop
endfacet
facet normal 1.000000 0.000000 0.000000
outer loop
vertex 1.107798 0.283899 0.755861
vertex 1.107798 0.300647 0.754320
vertex 1.107798 0.323116 0.901109
endloop
endfacet
facet normal -1.000000 0.000000 0.000000
outer loop
vertex 0.000000 0.323116 0.901109
vertex 0.000000 0.300647 0.754320
vertex 0.000000 0.283899 0.755861
endloop
endfacet
facet normal -1.000000 0.000000 0.000000
outer loop
vertex 0.000000 0.283899 0.755861
vertex 0.000000 0.306813 0.905238
vertex 0.000000 0.323116 0.901109
endloop
endfacet
facet normal 0.000000 0.964128 -0.265438
outer loop
vertex 1.107798 0.363547 1.084729
vertex 0.000000 0.363547 1.084729
vertex 0.000000 0.404291 1.232720
endloop
endfacet
facet normal 0.000000 0.964128 -0.265438
outer loop
vertex 0.000000 0.404291 1.232720
vertex 1.107798 0.404291 1.232720
vertex 1.107798 0.363547 1.084729
endloop
endfacet
facet normal 0.000000 -0.091654 -0.995791
outer loop
vertex 1.107798 0.283899 0.755861
vertex 0.000000 0.283899 0.755861
vertex 0.000000 0.300647 0.754320
endloop
endfacet
facet normal 0.000000 -0.091654 -0.995791
outer loop
vertex 0.000000 0.300647 0.754320
vertex 1.107798 0.300647 0.754320
vertex 1.107798 0.283899 0.755861
endloop
endfacet
facet normal 0.000000 -0.988439 0.151619
outer loop
vertex 1.107798 0.306813 0.905238
vertex 0.000000 0.306813 0.905238
vertex 0.000000 0.283899 0.755861
endloop
endfacet
facet normal 0.000000 -0.988439 0.151619
outer loop
vertex 0.000000 0.283899 0.755861
vertex 1.107798 0.283899 0.755861
vertex 1.107798 0.306813 0.905238
endloop
endfacet
facet normal 0.000000 0.293442 0.955977
outer loop
vertex 1.107798 0.404291 1.232720
vertex 0.000000 0.404291 1.232720
vertex 0.000000 0.388213 1.237656
endloop
endfacet
facet normal 0.000000 0.293444 0.955976
outer loop
vertex 0.000000 0.388213 1.237656
vertex 1.107798 0.388213 1.237656
vertex 1.107798 0.404291 1.232720
endloop
endfacet
facet normal -1.000000 -0.000001 0.000000
outer loop
vertex 1.084526 0.244877 0.535038
vertex 1.084526 0.256132 0.722057
vertex 1.084526 0.314271 0.716706
endloop
endfacet
facet normal -1.000000 0.000000 0.000000
outer loop
vertex 1.084526 0.314271 0.716706
vertex 1.084526 0.303261 0.535038
vertex 1.084526 0.244877 0.535038
endloop
endfacet
facet normal -1.000000 -0.000001 0.000000
outer loop
vertex 1.084526 0.256132 0.722057
vertex 1.084526 0.283012 0.911266
vertex 1.084526 0.339610 0.896931
endloop
endfacet
facet normal -1.000000 0.000001 0.000000
outer loop
vertex 1.084526 0.339610 0.896931
vertex 1.084526 0.314271 0.716706
vertex 1.084526 0.256132 0.722057
endloop
endfacet
facet normal -1.000000 0.000001 0.000000
outer loop
vertex 1.084526 0.283012 0.911266
vertex 1.084526 0.323409 1.094751
vertex 1.084526 0.380054 1.080607
endloop
endfacet
facet normal -1.000000 -0.000002 0.000000
outer loop
vertex 1.084526 0.380054 1.080607
vertex 1.084526 0.339610 0.896931
vertex 1.084526 0.283012 0.911266
endloop
endfacet
facet normal 0.000000 0.998169 -0.060491
outer loop
vertex 1.084526 0.303261 0.535038
vertex 1.084526 0.314271 0.716706
vertex 1.155440 0.314271 0.716706
endloop
endfacet
facet normal 0.000000 0.998169 -0.060491
outer loop
vertex 1.155440 0.314271 0.716706
vertex 1.155440 0.303261 0.535038
vertex 1.084526 0.303261 0.535038
endloop
endfacet
facet normal 0.000000 0.990261 -0.139225
outer loop
vertex 1.084526 0.314271 0.716706
vertex 1.084526 0.339610 0.896931
vertex 1.155440 0.339610 0.896931
endloop
endfacet
facet normal 0.000000 0.990261 -0.139225
outer loop
vertex 1.155440 0.339610 0.896931
vertex 1.155440 0.314271 0.716706
vertex 1.084526 0.314271 0.716706
endloop
endfacet
facet normal 0.000000 0.976604 -0.215045
outer loop
vertex 1.084526 0.339610 0.896931
vertex 1.084526 0.380054 1.080607
vertex 1.155440 0.380054 1.080607
endloop
endfacet
facet normal 0.000000 0.976604 -0.215045
outer loop
vertex 1.155440 0.380054 1.080607
vertex 1.155440 0.339610 0.896931
vertex 1.084526 0.339610 0.896931
endloop
endfacet
facet normal 0.000000 -0.998194 0.060073
outer loop
vertex 1.155440 0.244877 0.535038
vertex 1.155440 0.256132 0.722057
vertex 1.084526 0.256132 0.722057
endloop
endfacet
facet normal 0.000000 -0.998194 0.060073
outer loop
vertex 1.084526 0.256132 0.722057
vertex 1.084526 0.244877 0.535038
vertex 1.155440 0.244877 0.535038
endloop
endfacet
facet normal 0.000000 -0.990059 0.140653
outer loop
vertex 1.155440 0.256132 0.722057
vertex 1.155440 0.283012 0.911266
vertex 1.084526 0.283012 0.911266
endloop
endfacet
facet normal 0.000000 -0.990059 0.140653
outer loop
vertex 1.084526 0.283012 0.911266
vertex 1.084526 0.256132 0.722057
vertex 1.155440 0.256132 0.722057
endloop
endfacet
facet normal 0.000000 -0.976611 0.215015
outer loop
vertex 1.155440 0.283012 0.911266
vertex 1.155440 0.323409 1.094751
vertex 1.084526 0.323409 1.094751
endloop
endfacet
facet normal 0.000000 -0.976611 0.215014
outer loop
vertex 1.084526 0.323409 1.094751
vertex 1.084526 0.283012 0.911266
vertex 1.155440 0.283012 0.911266
endloop
endfacet
facet normal 1.000000 -0.000000 0.000000
outer loop
vertex 1.155440 0.303261 0.535038
vertex 1.155440 0.314271 0.716706
vertex 1.155440 0.256132 0.722057
endloop
endfacet
facet normal 1.000000 0.000000 0.000000
outer loop
vertex 1.155440 0.256132 0.722057
vertex 1.155440 0.244877 0.535038
vertex 1.155440 0.303261 0.535038
endloop
endfacet
facet normal 1.000000 -0.000000 0.000000
outer loop
vertex 1.155440 0.314271 0.716706
vertex 1.155440 0.339610 0.896931
vertex 1.155440 0.283012 0.911266
endloop
endfacet
facet normal 1.000000 0.000000 0.000000
outer loop
vertex 1.155440 0.283012 0.911266
vertex 1.155440 0.256132 0.722057
vertex 1.155440 0.314271 0.716706
endloop
endfacet
facet normal 1.000000 -0.000001 0.000000
outer loop
vertex 1.155440 0.339610 0.896931
vertex 1.155440 0.380054 1.080607
vertex 1.155440 0.323409 1.094751
endloop
endfacet
facet normal 1.000000 0.000000 0.000000
outer loop
vertex 1.155440 0.323409 1.094751
vertex 1.155440 0.283012 0.911266
vertex 1.155440 0.339610 0.896931
endloop
endfacet
facet normal 0.000000 -0.964124 0.265453
outer loop
vertex 1.107798 0.388213 1.237656
vertex 0.000000 0.388213 1.237656
vertex 0.000000 0.347230 1.088803
endloop
endfacet
facet normal 0.000000 -0.964124 0.265453
outer loop
vertex 0.000000 0.347230 1.088803
vertex 1.107798 0.347230 1.088803
vertex 1.107798 0.388213 1.237656
endloop
endfacet
facet normal 0.000000 -0.976608 0.215027
outer loop
vertex 1.107798 0.347230 1.088803
vertex 0.000000 0.347230 1.088803
vertex 0.000000 0.306813 0.905238
endloop
endfacet
facet normal 0.000000 -0.976608 0.215027
outer loop
vertex 0.000000 0.306813 0.905238
vertex 1.107798 0.306813 0.905238
vertex 1.107798 0.347230 1.088803
endloop
endfacet
facet normal 0.000000 0.988486 -0.151310
outer loop
vertex 1.107798 0.300647 0.754320
vertex 0.000000 0.300647 0.754320
vertex 0.000000 0.323116 0.901109
endloop
endfacet
facet normal 0.000000 0.988486 -0.151310
outer loop
vertex 0.000000 0.323116 0.901109
vertex 1.107798 0.323116 0.901109
vertex 1.107798 0.300647 0.754320
endloop
endfacet
facet normal 0.000000 0.976606 -0.215036
outer loop
vertex 1.107798 0.323116 0.901109
vertex 0.000000 0.323116 0.901109
vertex 0.000000 0.363547 1.084729
endloop
endfacet
facet normal 0.000000 0.976606 -0.215036
outer loop
vertex 0.000000 0.363547 1.084729
vertex 1.107798 0.363547 1.084729
vertex 1.107798 0.323116 0.901109
endloop
endfacet
facet normal -1.000000 0.000000 0.000000
outer loop
vertex 0.000000 0.404291 1.232720
vertex 0.000000 0.363547 1.084729
vertex 0.000000 0.347230 1.088803
endloop
endfacet
facet normal -1.000000 0.000000 0.000000
outer loop
vertex 0.000000 0.347230 1.088803
vertex 0.000000 0.388213 1.237656
vertex 0.000000 0.404291 1.232720
endloop
endfacet
facet normal -1.000000 0.000000 0.000000
outer loop
vertex 0.000000 0.363547 1.084729
vertex 0.000000 0.323116 0.901109
vertex 0.000000 0.306813 0.905238
endloop
endfacet
facet normal -1.000000 0.000000 0.000000
outer loop
vertex 0.000000 0.306813 0.905238
vertex 0.000000 0.347230 1.088803
vertex 0.000000 0.363547 1.084729
endloop
endfacet
facet normal 1.000000 0.000000 0.000000
outer loop
vertex 1.107798 0.404291 1.232720
vertex 1.107798 0.388213 1.237656
vertex 1.107798 0.347230 1.088803
endloop
endfacet
facet normal 1.000000 0.000000 0.000000
outer loop
vertex 1.107798 0.347230 1.088803
vertex 1.107798 0.363547 1.084729
vertex 1.107798 0.404291 1.232720
endloop
endfacet
facet normal 1.000000 0.000000 0.000000
outer loop
vertex 1.107798 0.363547 1.084729
vertex 1.107798 0.347230 1.088803
vertex 1.107798 0.306813 0.905238
endloop
endfacet
facet normal 1.000000 0.000000 0.000000
outer loop
vertex 1.107798 0.306813 0.905238
vertex 1.107798 0.323116 0.901109
vertex 1.107798 0.363547 1.084729
endloop
endfacet
endsolid Exported from Blender-2.78 (sub 0)
