solid Exported from Blender-2.78 (sub 0)
facet normal -1.000000 0.000000 0.000000
outer loop
vertex -0.021812 -0.005927 0.899580
vertex -0.021812 -0.005927 0.954980
vertex -0.021812 0.010133 0.954980
endloop
endfacet
facet normal -1.000000 0.000000 0.000000
outer loop
vertex -0.021812 0.010133 0.954980
vertex -0.021812 0.010133 0.899580
vertex -0.021812 -0.005927 0.899580
endloop
endfacet
facet normal 0.000000 1.000000 0.000000
outer loop
vertex -0.021812 0.010133 0.899580
vertex -0.021812 0.010133 0.954980
vertex 0.018075 0.010133 0.954980
endloop
endfacet
facet normal 0.000000 1.000000 0.000000
outer loop
vertex 0.018075 0.010133 0.954980
vertex 0.018075 0.010133 0.899580
vertex -0.021812 0.010133 0.899580
endloop
endfacet
facet normal 1.000000 0.000000 0.000000
outer loop
vertex 0.018075 0.010133 0.899580
vertex 0.018075 0.010133 0.954980
vertex 0.018075 -0.005927 0.954980
endloop
endfacet
facet normal 1.000000 0.000000 0.000000
outer loop
vertex 0.018075 -0.005927 0.954980
vertex 0.018075 -0.005927 0.899580
vertex 0.018075 0.010133 0.899580
endloop
endfacet
facet normal 0.000000 -1.000000 0.000000
outer loop
vertex -0.021812 -0.005927 0.954980
vertex -0.021812 -0.005927 0.899580
vertex 0.018075 -0.005927 0.899580
endloop
endfacet
facet normal 0.000000 -1.000000 0.000000
outer loop
vertex 0.018075 -0.005927 0.899580
vertex 0.018075 -0.005927 0.954980
vertex -0.021812 -0.005927 0.954980
endloop
endfacet
facet normal 0.000000 -0.543586 0.839353
outer loop
vertex 0.018075 -0.005927 0.899580
vertex -0.021812 -0.005927 0.899580
vertex -0.122798 -0.019164 0.891007
endloop
endfacet
facet normal 0.000000 -0.543586 0.839353
outer loop
vertex -0.122798 -0.019164 0.891007
vertex 0.119060 -0.019164 0.891007
vertex 0.018075 -0.005927 0.899580
endloop
endfacet
facet normal 0.000000 0.000000 1.000000
outer loop
vertex 0.018075 0.010133 0.954980
vertex -0.021812 0.010133 0.954980
vertex -0.021812 -0.005927 0.954980
endloop
endfacet
facet normal 0.000000 0.000000 1.000000
outer loop
vertex -0.021812 -0.005927 0.954980
vertex 0.018075 -0.005927 0.954980
vertex 0.018075 0.010133 0.954980
endloop
endfacet
facet normal -1.000000 -0.000001 -0.000004
outer loop
vertex -0.122798 -0.019164 0.891007
vertex -0.122798 0.010133 0.891007
vertex -0.122798 0.020723 0.885878
endloop
endfacet
facet normal -1.000000 0.000000 0.000000
outer loop
vertex -0.122798 0.020723 0.885878
vertex -0.122798 -0.019164 0.885878
vertex -0.122798 -0.019164 0.891007
endloop
endfacet
facet normal 0.000000 0.629202 0.777241
outer loop
vertex -0.021812 0.010133 0.899580
vertex 0.018075 0.010133 0.899580
vertex 0.119060 0.020723 0.891007
endloop
endfacet
facet normal -0.038886 0.888075 0.458052
outer loop
vertex 0.119060 0.020723 0.891007
vertex -0.122798 0.010133 0.891007
vertex -0.021812 0.010133 0.899580
endloop
endfacet
facet normal -0.084591 0.000000 0.996416
outer loop
vertex -0.021812 -0.005927 0.899580
vertex -0.021812 0.010133 0.899580
vertex -0.122798 0.010133 0.891007
endloop
endfacet
facet normal -0.084589 -0.000000 0.996416
outer loop
vertex -0.122798 0.010133 0.891007
vertex -0.122798 -0.019164 0.891007
vertex -0.021812 -0.005927 0.899580
endloop
endfacet
facet normal 0.084587 0.000000 0.996416
outer loop
vertex 0.018075 0.010133 0.899580
vertex 0.018075 -0.005927 0.899580
vertex 0.119060 -0.019164 0.891007
endloop
endfacet
facet normal 0.084590 0.000000 0.996416
outer loop
vertex 0.119060 -0.019164 0.891007
vertex 0.119060 0.020723 0.891007
vertex 0.018075 0.010133 0.899580
endloop
endfacet
facet normal 0.000000 0.000000 -1.000000
outer loop
vertex -0.122798 0.020723 0.885878
vertex 0.119060 0.020723 0.885878
vertex 0.119060 -0.019164 0.885878
endloop
endfacet
facet normal 0.000000 0.000000 -1.000000
outer loop
vertex 0.119060 -0.019164 0.885878
vertex -0.122798 -0.019164 0.885878
vertex -0.122798 0.020723 0.885878
endloop
endfacet
facet normal 0.000000 -1.000000 0.000000
outer loop
vertex 0.119060 -0.019164 0.891007
vertex -0.122798 -0.019164 0.891007
vertex -0.122798 -0.019164 0.885878
endloop
endfacet
facet normal 0.000000 -1.000000 0.000000
outer loop
vertex -0.122798 -0.019164 0.885878
vertex 0.119060 -0.019164 0.885878
vertex 0.119060 -0.019164 0.891007
endloop
endfacet
facet normal -0.043744 0.999043 0.000000
outer loop
vertex -0.122798 0.010133 0.891007
vertex 0.119060 0.020723 0.891007
vertex 0.119060 0.020723 0.885878
endloop
endfacet
facet normal 0.000000 0.435902 0.899994
outer loop
vertex 0.119060 0.020723 0.885878
vertex -0.122798 0.020723 0.885878
vertex -0.122798 0.010133 0.891007
endloop
endfacet
facet normal 1.000000 0.000000 0.000000
outer loop
vertex 0.119060 0.020723 0.891007
vertex 0.119060 -0.019164 0.891007
vertex 0.119060 -0.019164 0.885878
endloop
endfacet
facet normal 1.000000 0.000000 0.000000
outer loop
vertex 0.119060 -0.019164 0.885878
vertex 0.119060 0.020723 0.885878
vertex 0.119060 0.020723 0.891007
endloop
endfacet
facet normal -1.000000 0.000000 0.000000
outer loop
vertex -0.378928 -0.026015 1.228365
vertex -0.378928 -0.026015 1.375032
vertex -0.378928 0.016510 1.375032
endloop
endfacet
facet normal -1.000000 0.000000 0.000000
outer loop
vertex -0.378928 0.016510 1.375032
vertex -0.378928 0.016510 1.228365
vertex -0.378928 -0.026015 1.228365
endloop
endfacet
facet normal 0.000000 0.968555 0.248800
outer loop
vertex 0.187672 0.054185 1.228365
vertex 0.187672 0.016510 1.375032
vertex 0.376538 0.016510 1.375032
endloop
endfacet
facet normal 0.195627 0.980678 0.000000
outer loop
vertex 0.376538 0.016510 1.375032
vertex 0.376538 0.016510 1.228365
vertex 0.187672 0.054185 1.228365
endloop
endfacet
facet normal 1.000000 0.000000 0.000000
outer loop
vertex 0.376538 0.016510 1.228365
vertex 0.376538 0.016510 1.375032
vertex 0.376538 -0.026015 1.375032
endloop
endfacet
facet normal 1.000000 0.000000 0.000000
outer loop
vertex 0.376538 -0.026015 1.375032
vertex 0.376538 -0.026015 1.228365
vertex 0.376538 0.016510 1.228365
endloop
endfacet
facet normal 0.000000 -1.000000 0.000000
outer loop
vertex -0.178270 -0.015281 1.220473
vertex -0.178270 -0.015281 1.351357
vertex -0.355345 -0.015281 1.351357
endloop
endfacet
facet normal 0.000000 -1.000000 0.000000
outer loop
vertex -0.355345 -0.015281 1.351357
vertex -0.355345 -0.015281 1.220473
vertex -0.178270 -0.015281 1.220473
endloop
endfacet
facet normal 0.000000 0.000000 -1.000000
outer loop
vertex 0.187672 0.016510 0.935032
vertex 0.376538 0.016510 0.935032
vertex 0.376538 -0.026015 0.935032
endloop
endfacet
facet normal 0.000000 0.000000 -1.000000
outer loop
vertex 0.376538 -0.026015 0.935032
vertex 0.187672 -0.026015 0.935032
vertex 0.187672 0.016510 0.935032
endloop
endfacet
facet normal 0.000000 0.000000 1.000000
outer loop
vertex -0.190061 0.016510 1.375032
vertex -0.378928 0.016510 1.375032
vertex -0.378928 -0.026015 1.375032
endloop
endfacet
facet normal 0.000000 0.000000 1.000000
outer loop
vertex -0.378928 -0.026015 1.375032
vertex -0.190061 -0.026015 1.375032
vertex -0.190061 0.016510 1.375032
endloop
endfacet
facet normal 0.000000 -1.000000 0.000000
outer loop
vertex -0.358570 -0.026015 1.221548
vertex -0.358570 -0.026015 1.354582
vertex -0.378928 -0.026015 1.375032
endloop
endfacet
facet normal 0.000000 -1.000000 0.000000
outer loop
vertex -0.378928 -0.026015 1.375032
vertex -0.378928 -0.026015 1.228365
vertex -0.358570 -0.026015 1.221548
endloop
endfacet
facet normal 0.000000 -1.000000 0.000000
outer loop
vertex 0.356180 -0.026015 1.002043
vertex 0.356180 -0.026015 0.955482
vertex 0.376538 -0.026015 0.935032
endloop
endfacet
facet normal 0.000000 -1.000000 0.000000
outer loop
vertex 0.376538 -0.026015 0.935032
vertex 0.376538 -0.026015 0.986365
vertex 0.356180 -0.026015 1.002043
endloop
endfacet
facet normal 0.000000 -1.000000 0.000000
outer loop
vertex -0.179883 -0.026015 0.955482
vertex -0.358570 -0.026015 0.955482
vertex -0.378928 -0.026015 0.935032
endloop
endfacet
facet normal 0.000000 -1.000000 0.000000
outer loop
vertex -0.378928 -0.026015 0.935032
vertex -0.190061 -0.026015 0.935032
vertex -0.179883 -0.026015 0.955482
endloop
endfacet
facet normal 0.000000 -1.000000 -0.000000
outer loop
vertex 0.177493 -0.026015 1.354582
vertex 0.356180 -0.026015 1.354582
vertex 0.376538 -0.026015 1.375032
endloop
endfacet
facet normal 0.000000 -1.000000 -0.000000
outer loop
vertex 0.376538 -0.026015 1.375032
vertex 0.187672 -0.026015 1.375032
vertex 0.177493 -0.026015 1.354582
endloop
endfacet
facet normal 0.957713 -0.287726 0.000000
outer loop
vertex -0.355345 -0.015281 1.220473
vertex -0.355345 -0.015281 1.351357
vertex -0.358570 -0.026015 1.354582
endloop
endfacet
facet normal 0.957716 -0.287715 0.000000
outer loop
vertex -0.358570 -0.026015 1.354582
vertex -0.358570 -0.026015 1.221548
vertex -0.355345 -0.015281 1.220473
endloop
endfacet
facet normal -0.957713 -0.287725 0.000000
outer loop
vertex 0.352956 -0.015281 1.004516
vertex 0.352956 -0.015281 0.958706
vertex 0.356180 -0.026015 0.955482
endloop
endfacet
facet normal -0.957713 -0.287724 0.000000
outer loop
vertex 0.356180 -0.026015 0.955482
vertex 0.356180 -0.026015 1.002043
vertex 0.352956 -0.015281 1.004516
endloop
endfacet
facet normal 0.000000 -0.287724 0.957713
outer loop
vertex -0.178270 -0.015281 0.958706
vertex -0.355345 -0.015281 0.958706
vertex -0.358570 -0.026015 0.955482
endloop
endfacet
facet normal 0.000000 -0.287724 0.957713
outer loop
vertex -0.358570 -0.026015 0.955482
vertex -0.179883 -0.026015 0.955482
vertex -0.178270 -0.015281 0.958706
endloop
endfacet
facet normal 0.000000 -0.287714 -0.957716
outer loop
vertex 0.175880 -0.015281 1.351357
vertex 0.352956 -0.015281 1.351357
vertex 0.356180 -0.026015 1.354582
endloop
endfacet
facet normal 0.000000 -0.287714 -0.957716
outer loop
vertex 0.356180 -0.026015 1.354582
vertex 0.177493 -0.026015 1.354582
vertex 0.175880 -0.015281 1.351357
endloop
endfacet
facet normal -0.957713 -0.287724 0.000000
outer loop
vertex 0.352956 -0.015281 1.351357
vertex 0.352956 -0.015281 1.220473
vertex 0.356180 -0.026015 1.221548
endloop
endfacet
facet normal -0.957715 -0.287717 0.000000
outer loop
vertex 0.356180 -0.026015 1.221548
vertex 0.356180 -0.026015 1.354582
vertex 0.352956 -0.015281 1.351357
endloop
endfacet
facet normal -0.957714 -0.287723 0.000000
outer loop
vertex 0.352956 -0.015281 1.220473
vertex 0.352956 -0.015281 1.089590
vertex 0.356180 -0.026015 1.088515
endloop
endfacet
facet normal -0.957715 -0.287717 0.000000
outer loop
vertex 0.356180 -0.026015 1.088515
vertex 0.356180 -0.026015 1.221548
vertex 0.352956 -0.015281 1.220473
endloop
endfacet
facet normal 0.957714 -0.287722 0.000000
outer loop
vertex -0.355345 -0.015281 1.056869
vertex -0.355345 -0.015281 1.089590
vertex -0.358570 -0.026015 1.088515
endloop
endfacet
facet normal 0.957715 -0.287720 0.000000
outer loop
vertex -0.358570 -0.026015 1.088515
vertex -0.358570 -0.026015 1.055257
vertex -0.355345 -0.015281 1.056869
endloop
endfacet
facet normal 0.957714 -0.287721 0.000000
outer loop
vertex -0.355345 -0.015281 1.089590
vertex -0.355345 -0.015281 1.220473
vertex -0.358570 -0.026015 1.221548
endloop
endfacet
facet normal 0.957715 -0.287719 0.000000
outer loop
vertex -0.358570 -0.026015 1.221548
vertex -0.358570 -0.026015 1.088515
vertex -0.355345 -0.015281 1.089590
endloop
endfacet
facet normal 0.000000 -1.000000 0.000000
outer loop
vertex 0.356180 -0.026015 1.354582
vertex 0.356180 -0.026015 1.221548
vertex 0.376538 -0.026015 1.228365
endloop
endfacet
facet normal 0.000000 -1.000000 0.000000
outer loop
vertex 0.376538 -0.026015 1.228365
vertex 0.376538 -0.026015 1.375032
vertex 0.356180 -0.026015 1.354582
endloop
endfacet
facet normal 0.000000 -1.000000 0.000000
outer loop
vertex 0.356180 -0.026015 1.221548
vertex 0.356180 -0.026015 1.088515
vertex 0.376538 -0.026015 1.081698
endloop
endfacet
facet normal 0.000000 -1.000000 0.000000
outer loop
vertex 0.376538 -0.026015 1.081698
vertex 0.376538 -0.026015 1.228365
vertex 0.356180 -0.026015 1.221548
endloop
endfacet
facet normal 0.000000 -1.000000 0.000000
outer loop
vertex -0.358570 -0.026015 1.055257
vertex -0.358570 -0.026015 1.088515
vertex -0.378928 -0.026015 1.081698
endloop
endfacet
facet normal 0.000000 -1.000000 0.000000
outer loop
vertex -0.378928 -0.026015 1.081698
vertex -0.378928 -0.026015 1.045032
vertex -0.358570 -0.026015 1.055257
endloop
endfacet
facet normal 0.000000 -1.000000 0.000000
outer loop
vertex -0.358570 -0.026015 1.088515
vertex -0.358570 -0.026015 1.221548
vertex -0.378928 -0.026015 1.228365
endloop
endfacet
facet normal 0.000000 -1.000000 0.000000
outer loop
vertex -0.378928 -0.026015 1.228365
vertex -0.378928 -0.026015 1.081698
vertex -0.358570 -0.026015 1.088515
endloop
endfacet
facet normal 0.000000 -1.000000 0.000000
outer loop
vertex -0.178270 -0.015281 1.056869
vertex -0.178270 -0.015281 1.089590
vertex -0.355345 -0.015281 1.089590
endloop
endfacet
facet normal 0.000000 -1.000000 0.000000
outer loop
vertex -0.355345 -0.015281 1.089590
vertex -0.355345 -0.015281 1.056869
vertex -0.178270 -0.015281 1.056869
endloop
endfacet
facet normal 0.000000 -1.000000 0.000000
outer loop
vertex -0.178270 -0.015281 1.089590
vertex -0.178270 -0.015281 1.220473
vertex -0.355345 -0.015281 1.220473
endloop
endfacet
facet normal 0.000000 -1.000000 0.000000
outer loop
vertex -0.355345 -0.015281 1.220473
vertex -0.355345 -0.015281 1.089590
vertex -0.178270 -0.015281 1.089590
endloop
endfacet
facet normal 1.000000 0.000000 0.000000
outer loop
vertex 0.376538 0.016510 1.045032
vertex 0.376538 0.016510 1.081698
vertex 0.376538 -0.026015 1.081698
endloop
endfacet
facet normal 1.000000 0.000000 0.000000
outer loop
vertex 0.376538 -0.026015 1.081698
vertex 0.376538 -0.026015 1.045032
vertex 0.376538 0.016510 1.045032
endloop
endfacet
facet normal 1.000000 0.000000 0.000000
outer loop
vertex 0.376538 0.016510 1.081698
vertex 0.376538 0.016510 1.228365
vertex 0.376538 -0.026015 1.228365
endloop
endfacet
facet normal 1.000000 0.000000 0.000000
outer loop
vertex 0.376538 -0.026015 1.228365
vertex 0.376538 -0.026015 1.081698
vertex 0.376538 0.016510 1.081698
endloop
endfacet
facet normal 0.189700 0.950968 -0.244282
outer loop
vertex 0.187672 0.044766 1.045032
vertex 0.187672 0.054185 1.081698
vertex 0.376538 0.016510 1.081698
endloop
endfacet
facet normal 0.147964 0.988993 0.000000
outer loop
vertex 0.376538 0.016510 1.081698
vertex 0.376538 0.016510 1.045032
vertex 0.187672 0.044766 1.045032
endloop
endfacet
facet normal 0.195627 0.980678 0.000000
outer loop
vertex 0.187672 0.054185 1.081698
vertex 0.187672 0.054185 1.228365
vertex 0.376538 0.016510 1.228365
endloop
endfacet
facet normal 0.195627 0.980678 0.000000
outer loop
vertex 0.376538 0.016510 1.228365
vertex 0.376538 0.016510 1.081698
vertex 0.187672 0.054185 1.081698
endloop
endfacet
facet normal -1.000000 0.000000 0.000000
outer loop
vertex -0.378928 -0.026015 1.045032
vertex -0.378928 -0.026015 1.081698
vertex -0.378928 0.016510 1.081698
endloop
endfacet
facet normal -1.000000 0.000000 0.000000
outer loop
vertex -0.378928 0.016510 1.081698
vertex -0.378928 0.016510 1.045032
vertex -0.378928 -0.026015 1.045032
endloop
endfacet
facet normal -1.000000 0.000000 0.000000
outer loop
vertex -0.378928 -0.026015 1.081698
vertex -0.378928 -0.026015 1.228365
vertex -0.378928 0.016510 1.228365
endloop
endfacet
facet normal -1.000000 0.000000 0.000000
outer loop
vertex -0.378928 0.016510 1.228365
vertex -0.378928 0.016510 1.081698
vertex -0.378928 -0.026015 1.081698
endloop
endfacet
facet normal -0.195627 0.980678 0.000000
outer loop
vertex -0.378928 0.016510 1.081698
vertex -0.378928 0.016510 1.228365
vertex -0.190061 0.054185 1.228365
endloop
endfacet
facet normal -0.195627 0.980678 0.000000
outer loop
vertex -0.190061 0.054185 1.228365
vertex -0.190061 0.054185 1.081698
vertex -0.378928 0.016510 1.081698
endloop
endfacet
facet normal 0.000000 0.968555 -0.248800
outer loop
vertex -0.190061 0.016510 0.935032
vertex -0.190061 0.029696 0.986365
vertex 0.187672 0.029696 0.986365
endloop
endfacet
facet normal 0.000000 0.968555 -0.248800
outer loop
vertex 0.187672 0.029696 0.986365
vertex 0.187672 0.016510 0.935032
vertex -0.190061 0.016510 0.935032
endloop
endfacet
facet normal -0.195627 0.980678 0.000000
outer loop
vertex -0.378928 0.016510 1.045032
vertex -0.378928 0.016510 1.081698
vertex -0.190061 0.054185 1.081698
endloop
endfacet
facet normal -0.143408 0.958543 -0.246228
outer loop
vertex -0.190061 0.054185 1.081698
vertex -0.190061 0.044766 1.045032
vertex -0.378928 0.016510 1.045032
endloop
endfacet
facet normal 0.000000 -1.000000 0.000000
outer loop
vertex 0.175880 -0.015281 1.089590
vertex -0.178270 -0.015281 1.089590
vertex -0.178270 -0.015281 1.056869
endloop
endfacet
facet normal 0.000000 -1.000000 0.000000
outer loop
vertex -0.178270 -0.015281 1.056869
vertex 0.175880 -0.015281 1.056869
vertex 0.175880 -0.015281 1.089590
endloop
endfacet
facet normal 0.000000 -1.000000 0.000000
outer loop
vertex 0.352956 -0.015281 1.089590
vertex 0.352956 -0.015281 1.220473
vertex 0.175880 -0.015281 1.220473
endloop
endfacet
facet normal 0.000000 -1.000000 0.000000
outer loop
vertex 0.175880 -0.015281 1.220473
vertex 0.175880 -0.015281 1.089590
vertex 0.352956 -0.015281 1.089590
endloop
endfacet
facet normal 0.000000 -1.000000 0.000000
outer loop
vertex 0.175880 -0.015281 0.958706
vertex 0.175880 -0.015281 1.004516
vertex -0.178270 -0.015281 1.004516
endloop
endfacet
facet normal 0.000000 -1.000000 0.000000
outer loop
vertex -0.178270 -0.015281 1.004516
vertex -0.178270 -0.015281 0.958706
vertex 0.175880 -0.015281 0.958706
endloop
endfacet
facet normal 0.000000 -1.000000 0.000000
outer loop
vertex 0.352956 -0.015281 1.056869
vertex 0.352956 -0.015281 1.089590
vertex 0.175880 -0.015281 1.089590
endloop
endfacet
facet normal 0.000000 -1.000000 0.000000
outer loop
vertex 0.175880 -0.015281 1.089590
vertex 0.175880 -0.015281 1.056869
vertex 0.352956 -0.015281 1.056869
endloop
endfacet
facet normal 0.000000 -0.287714 -0.957716
outer loop
vertex -0.355345 -0.015281 1.351357
vertex -0.178270 -0.015281 1.351357
vertex -0.179883 -0.026015 1.354582
endloop
endfacet
facet normal 0.000000 -0.287714 -0.957716
outer loop
vertex -0.179883 -0.026015 1.354582
vertex -0.358570 -0.026015 1.354582
vertex -0.355345 -0.015281 1.351357
endloop
endfacet
facet normal 0.000000 -0.287724 0.957713
outer loop
vertex -0.178270 -0.015281 0.958706
vertex -0.179883 -0.026015 0.955482
vertex 0.177493 -0.026015 0.955482
endloop
endfacet
facet normal 0.000000 -0.287724 0.957713
outer loop
vertex 0.177493 -0.026015 0.955482
vertex 0.175880 -0.015281 0.958706
vertex -0.178270 -0.015281 0.958706
endloop
endfacet
facet normal 0.000000 -0.287724 0.957713
outer loop
vertex 0.352956 -0.015281 0.958706
vertex 0.175880 -0.015281 0.958706
vertex 0.177493 -0.026015 0.955482
endloop
endfacet
facet normal 0.000000 -0.287724 0.957713
outer loop
vertex 0.177493 -0.026015 0.955482
vertex 0.356180 -0.026015 0.955482
vertex 0.352956 -0.015281 0.958706
endloop
endfacet
facet normal 0.000000 -1.000000 0.000000
outer loop
vertex 0.177493 -0.026015 1.354582
vertex 0.187672 -0.026015 1.375032
vertex -0.190061 -0.026015 1.375032
endloop
endfacet
facet normal 0.000000 -1.000000 -0.000000
outer loop
vertex -0.190061 -0.026015 1.375032
vertex -0.179883 -0.026015 1.354582
vertex 0.177493 -0.026015 1.354582
endloop
endfacet
facet normal 0.000000 -1.000000 -0.000000
outer loop
vertex -0.358570 -0.026015 1.354582
vertex -0.179883 -0.026015 1.354582
vertex -0.190061 -0.026015 1.375032
endloop
endfacet
facet normal 0.000000 -1.000000 -0.000000
outer loop
vertex -0.190061 -0.026015 1.375032
vertex -0.378928 -0.026015 1.375032
vertex -0.358570 -0.026015 1.354582
endloop
endfacet
facet normal 0.000000 -1.000000 0.000000
outer loop
vertex -0.179883 -0.026015 0.955482
vertex -0.190061 -0.026015 0.935032
vertex 0.187672 -0.026015 0.935032
endloop
endfacet
facet normal 0.000000 -1.000000 0.000000
outer loop
vertex 0.187672 -0.026015 0.935032
vertex 0.177493 -0.026015 0.955482
vertex -0.179883 -0.026015 0.955482
endloop
endfacet
facet normal 0.000000 -1.000000 0.000000
outer loop
vertex 0.356180 -0.026015 0.955482
vertex 0.177493 -0.026015 0.955482
vertex 0.187672 -0.026015 0.935032
endloop
endfacet
facet normal 0.000000 -1.000000 0.000000
outer loop
vertex 0.187672 -0.026015 0.935032
vertex 0.376538 -0.026015 0.935032
vertex 0.356180 -0.026015 0.955482
endloop
endfacet
facet normal 0.000000 0.000000 1.000000
outer loop
vertex -0.190061 0.016510 1.375032
vertex -0.190061 -0.026015 1.375032
vertex 0.187672 -0.026015 1.375032
endloop
endfacet
facet normal 0.000000 0.000000 1.000000
outer loop
vertex 0.187672 -0.026015 1.375032
vertex 0.187672 0.016510 1.375032
vertex -0.190061 0.016510 1.375032
endloop
endfacet
facet normal 0.000000 0.000000 1.000000
outer loop
vertex 0.376538 0.016510 1.375032
vertex 0.187672 0.016510 1.375032
vertex 0.187672 -0.026015 1.375032
endloop
endfacet
facet normal 0.000000 0.000000 1.000000
outer loop
vertex 0.187672 -0.026015 1.375032
vertex 0.376538 -0.026015 1.375032
vertex 0.376538 0.016510 1.375032
endloop
endfacet
facet normal 0.000000 0.000000 -1.000000
outer loop
vertex 0.187672 0.016510 0.935032
vertex 0.187672 -0.026015 0.935032
vertex -0.190061 -0.026015 0.935032
endloop
endfacet
facet normal 0.000000 0.000000 -1.000000
outer loop
vertex -0.190061 -0.026015 0.935032
vertex -0.190061 0.016510 0.935032
vertex 0.187672 0.016510 0.935032
endloop
endfacet
facet normal 0.000000 0.000000 -1.000000
outer loop
vertex -0.378928 0.016510 0.935032
vertex -0.190061 0.016510 0.935032
vertex -0.190061 -0.026015 0.935032
endloop
endfacet
facet normal 0.000000 0.000000 -1.000000
outer loop
vertex -0.190061 -0.026015 0.935032
vertex -0.378928 -0.026015 0.935032
vertex -0.378928 0.016510 0.935032
endloop
endfacet
facet normal 0.000000 -1.000000 0.000000
outer loop
vertex 0.175880 -0.015281 1.351357
vertex -0.178270 -0.015281 1.351357
vertex -0.178270 -0.015281 1.220473
endloop
endfacet
facet normal 0.000000 -1.000000 0.000000
outer loop
vertex -0.178270 -0.015281 1.220473
vertex 0.175880 -0.015281 1.220473
vertex 0.175880 -0.015281 1.351357
endloop
endfacet
facet normal 0.000000 -1.000000 0.000000
outer loop
vertex 0.352956 -0.015281 1.220473
vertex 0.352956 -0.015281 1.351357
vertex 0.175880 -0.015281 1.351357
endloop
endfacet
facet normal 0.000000 -1.000000 0.000000
outer loop
vertex 0.175880 -0.015281 1.351357
vertex 0.175880 -0.015281 1.220473
vertex 0.352956 -0.015281 1.220473
endloop
endfacet
facet normal 0.000000 0.968555 0.248800
outer loop
vertex -0.190061 0.016510 1.375032
vertex 0.187672 0.016510 1.375032
vertex 0.187672 0.054185 1.228365
endloop
endfacet
facet normal 0.000000 0.968555 0.248800
outer loop
vertex 0.187672 0.054185 1.228365
vertex -0.190061 0.054185 1.228365
vertex -0.190061 0.016510 1.375032
endloop
endfacet
facet normal 0.000000 1.000000 0.000000
outer loop
vertex -0.378928 0.016510 1.228365
vertex -0.378928 0.016510 1.375032
vertex -0.190061 0.016510 1.375032
endloop
endfacet
facet normal -0.189700 0.950968 0.244282
outer loop
vertex -0.190061 0.016510 1.375032
vertex -0.190061 0.054185 1.228365
vertex -0.378928 0.016510 1.228365
endloop
endfacet
facet normal 0.000000 0.266821 0.963746
outer loop
vertex 0.187672 0.029696 0.986365
vertex -0.190061 0.029696 0.986365
vertex -0.151648 0.008147 0.992331
endloop
endfacet
facet normal 0.000000 0.266821 0.963746
outer loop
vertex -0.151648 0.008147 0.992331
vertex 0.149258 0.008147 0.992331
vertex 0.187672 0.029696 0.986365
endloop
endfacet
facet normal 0.000000 -0.287714 -0.957716
outer loop
vertex 0.175880 -0.015281 1.351357
vertex 0.177493 -0.026015 1.354582
vertex -0.179883 -0.026015 1.354582
endloop
endfacet
facet normal 0.000000 -0.287714 -0.957716
outer loop
vertex -0.179883 -0.026015 1.354582
vertex -0.178270 -0.015281 1.351357
vertex 0.175880 -0.015281 1.351357
endloop
endfacet
facet normal 0.000000 -1.000000 0.000000
outer loop
vertex 0.352956 -0.015281 0.958706
vertex 0.352956 -0.015281 1.004516
vertex 0.175880 -0.015281 1.004516
endloop
endfacet
facet normal 0.000000 -1.000000 0.000000
outer loop
vertex 0.175880 -0.015281 1.004516
vertex 0.175880 -0.015281 0.958706
vertex 0.352956 -0.015281 0.958706
endloop
endfacet
facet normal 0.000000 -1.000000 0.000000
outer loop
vertex 0.175880 -0.015281 1.220473
vertex -0.178270 -0.015281 1.220473
vertex -0.178270 -0.015281 1.089590
endloop
endfacet
facet normal 0.000000 -1.000000 0.000000
outer loop
vertex -0.178270 -0.015281 1.089590
vertex 0.175880 -0.015281 1.089590
vertex 0.175880 -0.015281 1.220473
endloop
endfacet
facet normal -0.069649 0.997572 0.000000
outer loop
vertex -0.378928 0.016510 0.935032
vertex -0.378928 0.016510 0.986365
vertex -0.190061 0.029696 0.986365
endloop
endfacet
facet normal 0.000000 0.968555 -0.248800
outer loop
vertex -0.190061 0.029696 0.986365
vertex -0.190061 0.016510 0.935032
vertex -0.378928 0.016510 0.935032
endloop
endfacet
facet normal -1.000000 0.000000 0.000000
outer loop
vertex -0.378928 -0.026015 0.935032
vertex -0.378928 -0.026015 0.986365
vertex -0.378928 0.016510 0.986365
endloop
endfacet
facet normal -1.000000 0.000000 0.000000
outer loop
vertex -0.378928 0.016510 0.986365
vertex -0.378928 0.016510 0.935032
vertex -0.378928 -0.026015 0.935032
endloop
endfacet
facet normal 0.067469 0.966348 -0.248233
outer loop
vertex 0.187672 0.016510 0.935032
vertex 0.187672 0.029696 0.986365
vertex 0.376538 0.016510 0.986365
endloop
endfacet
facet normal 0.000000 1.000000 0.000000
outer loop
vertex 0.376538 0.016510 0.986365
vertex 0.376538 0.016510 0.935032
vertex 0.187672 0.016510 0.935032
endloop
endfacet
facet normal 1.000000 0.000000 0.000000
outer loop
vertex 0.376538 0.016510 0.935032
vertex 0.376538 0.016510 0.986365
vertex 0.376538 -0.026015 0.986365
endloop
endfacet
facet normal 1.000000 0.000000 0.000000
outer loop
vertex 0.376538 -0.026015 0.986365
vertex 0.376538 -0.026015 0.935032
vertex 0.376538 0.016510 0.935032
endloop
endfacet
facet normal 0.000000 -1.000000 0.000000
outer loop
vertex -0.355345 -0.015281 1.004516
vertex -0.355345 -0.015281 0.958706
vertex -0.178270 -0.015281 0.958706
endloop
endfacet
facet normal 0.000000 -1.000000 0.000000
outer loop
vertex -0.178270 -0.015281 0.958706
vertex -0.178270 -0.015281 1.004516
vertex -0.355345 -0.015281 1.004516
endloop
endfacet
facet normal 0.000000 -1.000000 0.000000
outer loop
vertex -0.358570 -0.026015 0.955482
vertex -0.358570 -0.026015 1.002043
vertex -0.378928 -0.026015 0.986365
endloop
endfacet
facet normal 0.000000 -1.000000 0.000000
outer loop
vertex -0.378928 -0.026015 0.986365
vertex -0.378928 -0.026015 0.935032
vertex -0.358570 -0.026015 0.955482
endloop
endfacet
facet normal 0.957713 -0.287724 0.000000
outer loop
vertex -0.355345 -0.015281 0.958706
vertex -0.355345 -0.015281 1.004516
vertex -0.358570 -0.026015 1.002043
endloop
endfacet
facet normal 0.957714 -0.287722 0.000000
outer loop
vertex -0.358570 -0.026015 1.002043
vertex -0.358570 -0.026015 0.955482
vertex -0.355345 -0.015281 0.958706
endloop
endfacet
facet normal -0.957714 -0.287723 0.000000
outer loop
vertex 0.352956 -0.015281 1.056869
vertex 0.352956 -0.015281 1.004516
vertex 0.356180 -0.026015 1.002043
endloop
endfacet
facet normal -0.957715 -0.287718 0.000000
outer loop
vertex 0.356180 -0.026015 1.002043
vertex 0.356180 -0.026015 1.055257
vertex 0.352956 -0.015281 1.056869
endloop
endfacet
facet normal 0.000000 -1.000000 0.000000
outer loop
vertex 0.356180 -0.026015 1.055257
vertex 0.356180 -0.026015 1.002043
vertex 0.376538 -0.026015 0.986365
endloop
endfacet
facet normal 0.000000 -1.000000 0.000000
outer loop
vertex 0.376538 -0.026015 0.986365
vertex 0.376538 -0.026015 1.045032
vertex 0.356180 -0.026015 1.055257
endloop
endfacet
facet normal 0.000000 -1.000000 0.000000
outer loop
vertex 0.356180 -0.026015 1.088515
vertex 0.356180 -0.026015 1.055257
vertex 0.376538 -0.026015 1.045032
endloop
endfacet
facet normal 0.000000 -1.000000 0.000000
outer loop
vertex 0.376538 -0.026015 1.045032
vertex 0.376538 -0.026015 1.081698
vertex 0.356180 -0.026015 1.088515
endloop
endfacet
facet normal -0.957712 -0.287727 0.000000
outer loop
vertex 0.352956 -0.015281 1.089590
vertex 0.352956 -0.015281 1.056869
vertex 0.356180 -0.026015 1.055257
endloop
endfacet
facet normal -0.957715 -0.287719 0.000000
outer loop
vertex 0.356180 -0.026015 1.055257
vertex 0.356180 -0.026015 1.088515
vertex 0.352956 -0.015281 1.089590
endloop
endfacet
facet normal 0.000000 0.968555 -0.248800
outer loop
vertex -0.190061 0.054185 1.081698
vertex 0.187672 0.054185 1.081698
vertex 0.187672 0.044766 1.045032
endloop
endfacet
facet normal 0.000000 0.968555 -0.248800
outer loop
vertex 0.187672 0.044766 1.045032
vertex -0.190061 0.044766 1.045032
vertex -0.190061 0.054185 1.081698
endloop
endfacet
facet normal 0.000000 -1.000000 0.000000
outer loop
vertex 0.352956 -0.015281 1.004516
vertex 0.352956 -0.015281 1.056869
vertex 0.175880 -0.015281 1.056869
endloop
endfacet
facet normal 0.000000 -1.000000 0.000000
outer loop
vertex 0.175880 -0.015281 1.056869
vertex 0.175880 -0.015281 1.004516
vertex 0.352956 -0.015281 1.004516
endloop
endfacet
facet normal 0.000000 -1.000000 0.000000
outer loop
vertex 0.175880 -0.015281 1.056869
vertex -0.178270 -0.015281 1.056869
vertex -0.178270 -0.015281 1.004516
endloop
endfacet
facet normal 0.000000 -1.000000 0.000000
outer loop
vertex -0.178270 -0.015281 1.004516
vertex 0.175880 -0.015281 1.004516
vertex 0.175880 -0.015281 1.056869
endloop
endfacet
facet normal -0.147964 0.988993 0.000000
outer loop
vertex -0.378928 0.016510 0.986365
vertex -0.378928 0.016510 1.045032
vertex -0.190061 0.044766 1.045032
endloop
endfacet
facet normal -0.067469 0.966348 -0.248233
outer loop
vertex -0.190061 0.044766 1.045032
vertex -0.190061 0.029696 0.986365
vertex -0.378928 0.016510 0.986365
endloop
endfacet
facet normal -1.000000 0.000000 0.000000
outer loop
vertex -0.378928 -0.026015 0.986365
vertex -0.378928 -0.026015 1.045032
vertex -0.378928 0.016510 1.045032
endloop
endfacet
facet normal -1.000000 0.000000 0.000000
outer loop
vertex -0.378928 0.016510 1.045032
vertex -0.378928 0.016510 0.986365
vertex -0.378928 -0.026015 0.986365
endloop
endfacet
facet normal 0.143409 0.958544 -0.246228
outer loop
vertex 0.187672 0.029696 0.986365
vertex 0.187672 0.044766 1.045032
vertex 0.376538 0.016510 1.045032
endloop
endfacet
facet normal 0.069649 0.997572 0.000000
outer loop
vertex 0.376538 0.016510 1.045032
vertex 0.376538 0.016510 0.986365
vertex 0.187672 0.029696 0.986365
endloop
endfacet
facet normal 1.000000 0.000000 0.000000
outer loop
vertex 0.376538 0.016510 0.986365
vertex 0.376538 0.016510 1.045032
vertex 0.376538 -0.026015 1.045032
endloop
endfacet
facet normal 1.000000 0.000000 0.000000
outer loop
vertex 0.376538 -0.026015 1.045032
vertex 0.376538 -0.026015 0.986365
vertex 0.376538 0.016510 0.986365
endloop
endfacet
facet normal 0.000000 -1.000000 0.000000
outer loop
vertex -0.178270 -0.015281 1.004516
vertex -0.178270 -0.015281 1.056869
vertex -0.355345 -0.015281 1.056869
endloop
endfacet
facet normal 0.000000 -1.000000 0.000000
outer loop
vertex -0.355345 -0.015281 1.056869
vertex -0.355345 -0.015281 1.004516
vertex -0.178270 -0.015281 1.004516
endloop
endfacet
facet normal 0.000000 -1.000000 0.000000
outer loop
vertex -0.358570 -0.026015 1.002043
vertex -0.358570 -0.026015 1.055257
vertex -0.378928 -0.026015 1.045032
endloop
endfacet
facet normal 0.000000 -1.000000 0.000000
outer loop
vertex -0.378928 -0.026015 1.045032
vertex -0.378928 -0.026015 0.986365
vertex -0.358570 -0.026015 1.002043
endloop
endfacet
facet normal 0.957713 -0.287725 0.000000
outer loop
vertex -0.355345 -0.015281 1.004516
vertex -0.355345 -0.015281 1.056869
vertex -0.358570 -0.026015 1.055257
endloop
endfacet
facet normal 0.957715 -0.287720 0.000000
outer loop
vertex -0.358570 -0.026015 1.055257
vertex -0.358570 -0.026015 1.002043
vertex -0.355345 -0.015281 1.004516
endloop
endfacet
facet normal 0.000000 1.000000 0.000000
outer loop
vertex -0.190061 0.054185 1.228365
vertex 0.187672 0.054185 1.228365
vertex 0.187672 0.054185 1.081698
endloop
endfacet
facet normal 0.000000 1.000000 0.000000
outer loop
vertex 0.187672 0.054185 1.081698
vertex -0.190061 0.054185 1.081698
vertex -0.190061 0.054185 1.228365
endloop
endfacet
facet normal 0.000000 0.968555 -0.248800
outer loop
vertex -0.151648 0.020152 1.039065
vertex 0.149258 0.020152 1.039065
vertex 0.149258 0.008147 0.992331
endloop
endfacet
facet normal 0.000000 0.968555 -0.248800
outer loop
vertex 0.149258 0.008147 0.992331
vertex -0.151648 0.008147 0.992331
vertex -0.151648 0.020152 1.039065
endloop
endfacet
facet normal 0.503001 0.837108 -0.215034
outer loop
vertex -0.190061 0.029696 0.986365
vertex -0.190061 0.044766 1.045032
vertex -0.151648 0.020152 1.039065
endloop
endfacet
facet normal 0.503000 0.837109 -0.215034
outer loop
vertex -0.151648 0.020152 1.039065
vertex -0.151648 0.008147 0.992331
vertex -0.190061 0.029696 0.986365
endloop
endfacet
facet normal -0.503002 0.837108 -0.215034
outer loop
vertex 0.187672 0.044766 1.045032
vertex 0.187672 0.029696 0.986365
vertex 0.149258 0.008147 0.992331
endloop
endfacet
facet normal -0.503000 0.837109 -0.215034
outer loop
vertex 0.149258 0.008147 0.992331
vertex 0.149258 0.020152 1.039065
vertex 0.187672 0.044766 1.045032
endloop
endfacet
facet normal 0.000000 0.235562 -0.971859
outer loop
vertex -0.190061 0.044766 1.045032
vertex 0.187672 0.044766 1.045032
vertex 0.149258 0.020152 1.039065
endloop
endfacet
facet normal 0.000000 0.235562 -0.971859
outer loop
vertex 0.149258 0.020152 1.039065
vertex -0.151648 0.020152 1.039065
vertex -0.190061 0.044766 1.045032
endloop
endfacet
endsolid Exported from Blender-2.78 (sub 0)
