solid Exported from Blender-2.78 (sub 0)
facet normal -1.000000 0.000000 0.000000
outer loop
vertex -0.409806 0.136602 0.298913
vertex -0.409806 0.136602 0.358324
vertex -0.409806 0.409806 0.358324
endloop
endfacet
facet normal -1.000000 0.000000 0.000000
outer loop
vertex -0.409806 0.409806 0.358324
vertex -0.409806 0.409806 0.298913
vertex -0.409806 0.136602 0.298913
endloop
endfacet
facet normal 0.000000 1.000000 0.000000
outer loop
vertex -0.409806 0.409806 0.298913
vertex -0.409806 0.409806 0.358324
vertex 0.000000 0.409806 0.358324
endloop
endfacet
facet normal 0.000000 1.000000 0.000000
outer loop
vertex 0.000000 0.409806 0.358324
vertex 0.000000 0.409806 0.298913
vertex -0.409806 0.409806 0.298913
endloop
endfacet
facet normal 0.000000 -1.000000 0.000000
outer loop
vertex -0.409806 -0.409806 0.312677
vertex -0.409806 -0.409806 0.253266
vertex 0.000000 -0.409806 0.253266
endloop
endfacet
facet normal 0.000000 -1.000000 0.000000
outer loop
vertex 0.000000 -0.409806 0.253266
vertex 0.000000 -0.409806 0.312677
vertex -0.409806 -0.409806 0.312677
endloop
endfacet
facet normal 0.000000 0.164798 -0.986327
outer loop
vertex 0.000000 -0.409806 0.253266
vertex -0.409806 -0.409806 0.253266
vertex -0.409806 -0.136602 0.298913
endloop
endfacet
facet normal 0.000000 0.164798 -0.986327
outer loop
vertex -0.409806 -0.136602 0.298913
vertex 0.000000 -0.136602 0.298913
vertex 0.000000 -0.409806 0.253266
endloop
endfacet
facet normal 0.000000 -0.164798 0.986327
outer loop
vertex 0.000000 -0.136602 0.358324
vertex -0.409806 -0.136602 0.358324
vertex -0.409806 -0.409806 0.312677
endloop
endfacet
facet normal 0.000000 -0.164798 0.986327
outer loop
vertex -0.409806 -0.409806 0.312677
vertex 0.000000 -0.409806 0.312677
vertex 0.000000 -0.136602 0.358324
endloop
endfacet
facet normal 0.000000 0.000000 1.000000
outer loop
vertex 0.000000 0.409806 0.358324
vertex -0.409806 0.409806 0.358324
vertex -0.409806 0.136602 0.358324
endloop
endfacet
facet normal 0.000000 0.000000 1.000000
outer loop
vertex -0.409806 0.136602 0.358324
vertex 0.000000 0.136602 0.358324
vertex 0.000000 0.409806 0.358324
endloop
endfacet
facet normal 0.000000 0.000000 1.000000
outer loop
vertex 0.000000 0.136602 0.358324
vertex -0.409806 0.136602 0.358324
vertex -0.409806 -0.136602 0.358324
endloop
endfacet
facet normal -0.000000 0.000000 1.000000
outer loop
vertex -0.409806 -0.136602 0.358324
vertex 0.000000 -0.136602 0.358324
vertex 0.000000 0.136602 0.358324
endloop
endfacet
facet normal 0.000000 0.000000 -1.000000
outer loop
vertex -0.409806 0.409806 0.298913
vertex 0.000000 0.409806 0.298913
vertex 0.000000 0.136602 0.298913
endloop
endfacet
facet normal 0.000000 0.000000 -1.000000
outer loop
vertex 0.000000 0.136602 0.298913
vertex -0.409806 0.136602 0.298913
vertex -0.409806 0.409806 0.298913
endloop
endfacet
facet normal 0.000000 0.000000 -1.000000
outer loop
vertex -0.409806 0.136602 0.298913
vertex 0.000000 0.136602 0.298913
vertex 0.000000 -0.136602 0.298913
endloop
endfacet
facet normal 0.000000 0.000000 -1.000000
outer loop
vertex 0.000000 -0.136602 0.298913
vertex -0.409806 -0.136602 0.298913
vertex -0.409806 0.136602 0.298913
endloop
endfacet
facet normal -1.000000 0.000000 0.000000
outer loop
vertex -0.409806 -0.409806 0.253266
vertex -0.409806 -0.409806 0.312677
vertex -0.409806 -0.136602 0.358324
endloop
endfacet
facet normal -1.000000 0.000000 0.000000
outer loop
vertex -0.409806 -0.136602 0.358324
vertex -0.409806 -0.136602 0.298913
vertex -0.409806 -0.409806 0.253266
endloop
endfacet
facet normal -1.000000 0.000000 0.000000
outer loop
vertex -0.409806 -0.136602 0.298913
vertex -0.409806 -0.136602 0.358324
vertex -0.409806 0.136602 0.358324
endloop
endfacet
facet normal -1.000000 0.000000 0.000000
outer loop
vertex -0.409806 0.136602 0.358324
vertex -0.409806 0.136602 0.298913
vertex -0.409806 -0.136602 0.298913
endloop
endfacet
facet normal -1.000000 0.000000 0.000000
outer loop
vertex -0.415869 0.354759 -0.377974
vertex -0.415869 0.354759 0.337886
vertex -0.415869 0.432759 0.337886
endloop
endfacet
facet normal -1.000000 0.000000 0.000000
outer loop
vertex -0.415869 0.432759 0.337886
vertex -0.415869 0.432759 -0.377974
vertex -0.415869 0.354759 -0.377974
endloop
endfacet
facet normal 0.000000 1.000000 0.000000
outer loop
vertex -0.415869 0.432759 -0.377974
vertex -0.415869 0.432759 0.337886
vertex -0.321129 0.432759 0.337886
endloop
endfacet
facet normal 0.000000 1.000000 0.000000
outer loop
vertex -0.321129 0.432759 0.337886
vertex -0.321129 0.432759 -0.377974
vertex -0.415869 0.432759 -0.377974
endloop
endfacet
facet normal 1.000000 0.000000 0.000000
outer loop
vertex -0.321129 0.432759 -0.377974
vertex -0.321129 0.432759 0.337886
vertex -0.321129 0.354759 0.337886
endloop
endfacet
facet normal 1.000000 0.000000 0.000000
outer loop
vertex -0.321129 0.354759 0.337886
vertex -0.321129 0.354759 -0.377974
vertex -0.321129 0.432759 -0.377974
endloop
endfacet
facet normal 0.000000 -1.000000 0.000000
outer loop
vertex -0.321129 0.354759 -0.377974
vertex -0.321129 0.354759 0.337886
vertex -0.415869 0.354759 0.337886
endloop
endfacet
facet normal 0.000000 -1.000000 0.000000
outer loop
vertex -0.415869 0.354759 0.337886
vertex -0.415869 0.354759 -0.377974
vertex -0.321129 0.354759 -0.377974
endloop
endfacet
facet normal 0.000000 0.000000 -1.000000
outer loop
vertex -0.415869 0.432759 -0.377974
vertex -0.321129 0.432759 -0.377974
vertex -0.321129 0.354759 -0.377974
endloop
endfacet
facet normal 0.000000 0.000000 -1.000000
outer loop
vertex -0.321129 0.354759 -0.377974
vertex -0.415869 0.354759 -0.377974
vertex -0.415869 0.432759 -0.377974
endloop
endfacet
facet normal -1.000000 0.000000 0.000000
outer loop
vertex -0.415869 0.432759 0.337886
vertex -0.415869 0.354759 0.337886
vertex -0.415869 0.354759 1.319237
endloop
endfacet
facet normal -1.000000 0.000000 0.000000
outer loop
vertex -0.415869 0.354759 1.319237
vertex -0.415869 0.432759 1.319237
vertex -0.415869 0.432759 0.337886
endloop
endfacet
facet normal -1.000000 0.000000 0.000000
outer loop
vertex -0.384294 -0.377534 -0.377974
vertex -0.384294 -0.377534 0.293463
vertex -0.384294 -0.299534 0.293463
endloop
endfacet
facet normal -1.000000 0.000000 0.000000
outer loop
vertex -0.384294 -0.299534 0.293463
vertex -0.384294 -0.299534 -0.377974
vertex -0.384294 -0.377534 -0.377974
endloop
endfacet
facet normal 0.000000 1.000000 0.000000
outer loop
vertex -0.384294 -0.299534 -0.377974
vertex -0.384294 -0.299534 0.293463
vertex -0.306294 -0.299534 0.293463
endloop
endfacet
facet normal 0.000000 1.000000 0.000000
outer loop
vertex -0.306294 -0.299534 0.293463
vertex -0.306294 -0.299534 -0.377974
vertex -0.384294 -0.299534 -0.377974
endloop
endfacet
facet normal 1.000000 0.000000 0.000000
outer loop
vertex -0.306294 -0.299534 -0.377974
vertex -0.306294 -0.299534 0.293463
vertex -0.306294 -0.377534 0.293463
endloop
endfacet
facet normal 1.000000 0.000000 0.000000
outer loop
vertex -0.306294 -0.377534 0.293463
vertex -0.306294 -0.377534 -0.377974
vertex -0.306294 -0.299534 -0.377974
endloop
endfacet
facet normal 0.000000 -1.000000 0.000000
outer loop
vertex -0.306294 -0.377534 -0.377974
vertex -0.306294 -0.377534 0.293463
vertex -0.384294 -0.377534 0.293463
endloop
endfacet
facet normal 0.000000 -1.000000 0.000000
outer loop
vertex -0.384294 -0.377534 0.293463
vertex -0.384294 -0.377534 -0.377974
vertex -0.306294 -0.377534 -0.377974
endloop
endfacet
facet normal 0.000000 0.000000 -1.000000
outer loop
vertex -0.384294 -0.299534 -0.377974
vertex -0.306294 -0.299534 -0.377974
vertex -0.306294 -0.377534 -0.377974
endloop
endfacet
facet normal 0.000000 0.000000 -1.000000
outer loop
vertex -0.306294 -0.377534 -0.377974
vertex -0.384294 -0.377534 -0.377974
vertex -0.384294 -0.299534 -0.377974
endloop
endfacet
facet normal 0.000000 0.000000 1.000000
outer loop
vertex -0.306294 -0.299534 0.293463
vertex -0.384294 -0.299534 0.293463
vertex -0.384294 -0.377534 0.293463
endloop
endfacet
facet normal 0.000000 0.000000 1.000000
outer loop
vertex -0.384294 -0.377534 0.293463
vertex -0.306294 -0.377534 0.293463
vertex -0.306294 -0.299534 0.293463
endloop
endfacet
facet normal 0.000000 0.000000 1.000000
outer loop
vertex -0.321129 0.432759 1.319237
vertex -0.415869 0.432759 1.319237
vertex -0.415869 0.354759 1.319237
endloop
endfacet
facet normal 0.000000 0.000000 1.000000
outer loop
vertex -0.415869 0.354759 1.319237
vertex -0.321129 0.354759 1.319237
vertex -0.321129 0.432759 1.319237
endloop
endfacet
facet normal 0.000000 -1.000000 0.000000
outer loop
vertex -0.415869 0.354759 0.337886
vertex -0.321129 0.354759 0.337886
vertex -0.321129 0.354759 1.319237
endloop
endfacet
facet normal 0.000000 -1.000000 0.000000
outer loop
vertex -0.321129 0.354759 1.319237
vertex -0.415869 0.354759 1.319237
vertex -0.415869 0.354759 0.337886
endloop
endfacet
facet normal 0.000000 1.000000 0.000000
outer loop
vertex -0.321129 0.432759 0.337886
vertex -0.415869 0.432759 0.337886
vertex -0.415869 0.432759 1.319237
endloop
endfacet
facet normal 0.000000 1.000000 0.000000
outer loop
vertex -0.415869 0.432759 1.319237
vertex -0.321129 0.432759 1.319237
vertex -0.321129 0.432759 0.337886
endloop
endfacet
facet normal 1.000000 0.000000 0.000000
outer loop
vertex -0.321129 0.354759 0.337886
vertex -0.321129 0.432759 0.337886
vertex -0.321129 0.432759 1.319237
endloop
endfacet
facet normal 1.000000 0.000000 0.000000
outer loop
vertex -0.321129 0.432759 1.319237
vertex -0.321129 0.354759 1.319237
vertex -0.321129 0.354759 0.337886
endloop
endfacet
facet normal -1.000000 0.000000 0.000000
outer loop
vertex -0.352220 0.410029 1.270589
vertex -0.352220 0.410029 0.631595
vertex -0.352220 0.387560 0.631595
endloop
endfacet
facet normal -1.000000 0.000000 0.000000
outer loop
vertex -0.352220 0.387560 0.631595
vertex -0.352220 0.387560 1.270589
vertex -0.352220 0.410029 1.270589
endloop
endfacet
facet normal 0.000000 1.000000 0.000000
outer loop
vertex -0.352220 0.410029 0.631595
vertex -0.352220 0.410029 1.270589
vertex 0.000000 0.410029 1.270589
endloop
endfacet
facet normal 0.000000 1.000000 0.000000
outer loop
vertex 0.000000 0.410029 1.270589
vertex 0.000000 0.410029 0.631595
vertex -0.352220 0.410029 0.631595
endloop
endfacet
facet normal 0.000000 0.000000 -1.000000
outer loop
vertex -0.352220 0.387560 0.631595
vertex -0.352220 0.410029 0.631595
vertex 0.000000 0.410029 0.631595
endloop
endfacet
facet normal 0.000000 0.000000 -1.000000
outer loop
vertex 0.000000 0.410029 0.631595
vertex 0.000000 0.387560 0.631595
vertex -0.352220 0.387560 0.631595
endloop
endfacet
facet normal 0.000000 -1.000000 0.000000
outer loop
vertex -0.352220 0.387560 1.270589
vertex -0.352220 0.387560 0.631595
vertex 0.000000 0.387560 0.631595
endloop
endfacet
facet normal 0.000000 -1.000000 0.000000
outer loop
vertex 0.000000 0.387560 0.631595
vertex 0.000000 0.387560 1.270589
vertex -0.352220 0.387560 1.270589
endloop
endfacet
facet normal 0.000000 0.000000 1.000000
outer loop
vertex -0.352220 0.410029 1.270589
vertex -0.352220 0.387560 1.270589
vertex 0.000000 0.387560 1.270589
endloop
endfacet
facet normal 0.000000 0.000000 1.000000
outer loop
vertex 0.000000 0.387560 1.270589
vertex 0.000000 0.410029 1.270589
vertex -0.352220 0.410029 1.270589
endloop
endfacet
facet normal 1.000000 0.000000 0.000000
outer loop
vertex 0.409806 0.136602 0.298913
vertex 0.409806 0.409806 0.298913
vertex 0.409806 0.409806 0.358324
endloop
endfacet
facet normal 1.000000 0.000000 0.000000
outer loop
vertex 0.409806 0.409806 0.358324
vertex 0.409806 0.136602 0.358324
vertex 0.409806 0.136602 0.298913
endloop
endfacet
facet normal 0.000000 1.000000 0.000000
outer loop
vertex 0.409806 0.409806 0.298913
vertex 0.000000 0.409806 0.298913
vertex 0.000000 0.409806 0.358324
endloop
endfacet
facet normal 0.000000 1.000000 0.000000
outer loop
vertex 0.000000 0.409806 0.358324
vertex 0.409806 0.409806 0.358324
vertex 0.409806 0.409806 0.298913
endloop
endfacet
facet normal -1.000000 0.000000 0.000000
outer loop
vertex 0.000000 -0.136602 0.298913
vertex 0.000000 -0.409806 0.253266
vertex 0.000000 -0.409806 0.312677
endloop
endfacet
facet normal -1.000000 0.000000 0.000000
outer loop
vertex 0.000000 -0.409806 0.312677
vertex 0.000000 -0.136602 0.358324
vertex 0.000000 -0.136602 0.298913
endloop
endfacet
facet normal 0.000000 -1.000000 0.000000
outer loop
vertex 0.000000 -0.409806 0.253266
vertex 0.409806 -0.409806 0.253266
vertex 0.409806 -0.409806 0.312677
endloop
endfacet
facet normal 0.000000 -1.000000 0.000000
outer loop
vertex 0.409806 -0.409806 0.312677
vertex 0.000000 -0.409806 0.312677
vertex 0.000000 -0.409806 0.253266
endloop
endfacet
facet normal 0.000000 0.164798 -0.986327
outer loop
vertex 0.409806 -0.136602 0.298913
vertex 0.409806 -0.409806 0.253266
vertex 0.000000 -0.409806 0.253266
endloop
endfacet
facet normal 0.000000 0.164798 -0.986327
outer loop
vertex 0.000000 -0.409806 0.253266
vertex 0.000000 -0.136602 0.298913
vertex 0.409806 -0.136602 0.298913
endloop
endfacet
facet normal 0.000000 -0.164798 0.986327
outer loop
vertex 0.000000 -0.136602 0.358324
vertex 0.000000 -0.409806 0.312677
vertex 0.409806 -0.409806 0.312677
endloop
endfacet
facet normal 0.000000 -0.164798 0.986327
outer loop
vertex 0.409806 -0.409806 0.312677
vertex 0.409806 -0.136602 0.358324
vertex 0.000000 -0.136602 0.358324
endloop
endfacet
facet normal -0.000000 0.000000 1.000000
outer loop
vertex 0.000000 0.409806 0.358324
vertex 0.000000 0.136602 0.358324
vertex 0.409806 0.136602 0.358324
endloop
endfacet
facet normal 0.000000 0.000000 1.000000
outer loop
vertex 0.409806 0.136602 0.358324
vertex 0.409806 0.409806 0.358324
vertex 0.000000 0.409806 0.358324
endloop
endfacet
facet normal 0.000000 0.000000 1.000000
outer loop
vertex 0.000000 0.136602 0.358324
vertex 0.000000 -0.136602 0.358324
vertex 0.409806 -0.136602 0.358324
endloop
endfacet
facet normal -0.000000 0.000000 1.000000
outer loop
vertex 0.409806 -0.136602 0.358324
vertex 0.409806 0.136602 0.358324
vertex 0.000000 0.136602 0.358324
endloop
endfacet
facet normal -0.000000 0.000000 -1.000000
outer loop
vertex 0.409806 0.409806 0.298913
vertex 0.409806 0.136602 0.298913
vertex 0.000000 0.136602 0.298913
endloop
endfacet
facet normal 0.000000 0.000000 -1.000000
outer loop
vertex 0.000000 0.136602 0.298913
vertex 0.000000 0.409806 0.298913
vertex 0.409806 0.409806 0.298913
endloop
endfacet
facet normal -0.000000 0.000000 -1.000000
outer loop
vertex 0.409806 0.136602 0.298913
vertex 0.409806 -0.136602 0.298913
vertex 0.000000 -0.136602 0.298913
endloop
endfacet
facet normal 0.000000 0.000000 -1.000000
outer loop
vertex 0.000000 -0.136602 0.298913
vertex 0.000000 0.136602 0.298913
vertex 0.409806 0.136602 0.298913
endloop
endfacet
facet normal -1.000000 0.000000 0.000000
outer loop
vertex 0.000000 0.409806 0.298913
vertex 0.000000 0.136602 0.298913
vertex 0.000000 0.136602 0.358324
endloop
endfacet
facet normal -1.000000 0.000000 0.000000
outer loop
vertex 0.000000 0.136602 0.358324
vertex 0.000000 0.409806 0.358324
vertex 0.000000 0.409806 0.298913
endloop
endfacet
facet normal -1.000000 0.000000 0.000000
outer loop
vertex 0.000000 0.136602 0.298913
vertex 0.000000 -0.136602 0.298913
vertex 0.000000 -0.136602 0.358324
endloop
endfacet
facet normal -1.000000 0.000000 0.000000
outer loop
vertex 0.000000 -0.136602 0.358324
vertex 0.000000 0.136602 0.358324
vertex 0.000000 0.136602 0.298913
endloop
endfacet
facet normal 1.000000 0.000000 0.000000
outer loop
vertex 0.409806 -0.409806 0.253266
vertex 0.409806 -0.136602 0.298913
vertex 0.409806 -0.136602 0.358324
endloop
endfacet
facet normal 1.000000 0.000000 0.000000
outer loop
vertex 0.409806 -0.136602 0.358324
vertex 0.409806 -0.409806 0.312677
vertex 0.409806 -0.409806 0.253266
endloop
endfacet
facet normal 1.000000 0.000000 0.000000
outer loop
vertex 0.409806 -0.136602 0.298913
vertex 0.409806 0.136602 0.298913
vertex 0.409806 0.136602 0.358324
endloop
endfacet
facet normal 1.000000 0.000000 0.000000
outer loop
vertex 0.409806 0.136602 0.358324
vertex 0.409806 -0.136602 0.358324
vertex 0.409806 -0.136602 0.298913
endloop
endfacet
facet normal 1.000000 0.000000 0.000000
outer loop
vertex 0.415869 0.354759 -0.377974
vertex 0.415869 0.432759 -0.377974
vertex 0.415869 0.432759 0.337886
endloop
endfacet
facet normal 1.000000 0.000000 0.000000
outer loop
vertex 0.415869 0.432759 0.337886
vertex 0.415869 0.354759 0.337886
vertex 0.415869 0.354759 -0.377974
endloop
endfacet
facet normal 0.000000 1.000000 0.000000
outer loop
vertex 0.415869 0.432759 -0.377974
vertex 0.321129 0.432759 -0.377974
vertex 0.321129 0.432759 0.337886
endloop
endfacet
facet normal 0.000000 1.000000 0.000000
outer loop
vertex 0.321129 0.432759 0.337886
vertex 0.415869 0.432759 0.337886
vertex 0.415869 0.432759 -0.377974
endloop
endfacet
facet normal -1.000000 0.000000 0.000000
outer loop
vertex 0.321129 0.432759 -0.377974
vertex 0.321129 0.354759 -0.377974
vertex 0.321129 0.354759 0.337886
endloop
endfacet
facet normal -1.000000 0.000000 0.000000
outer loop
vertex 0.321129 0.354759 0.337886
vertex 0.321129 0.432759 0.337886
vertex 0.321129 0.432759 -0.377974
endloop
endfacet
facet normal 0.000000 -1.000000 0.000000
outer loop
vertex 0.321129 0.354759 -0.377974
vertex 0.415869 0.354759 -0.377974
vertex 0.415869 0.354759 0.337886
endloop
endfacet
facet normal 0.000000 -1.000000 0.000000
outer loop
vertex 0.415869 0.354759 0.337886
vertex 0.321129 0.354759 0.337886
vertex 0.321129 0.354759 -0.377974
endloop
endfacet
facet normal 0.000000 0.000000 -1.000000
outer loop
vertex 0.415869 0.432759 -0.377974
vertex 0.415869 0.354759 -0.377974
vertex 0.321129 0.354759 -0.377974
endloop
endfacet
facet normal 0.000000 0.000000 -1.000000
outer loop
vertex 0.321129 0.354759 -0.377974
vertex 0.321129 0.432759 -0.377974
vertex 0.415869 0.432759 -0.377974
endloop
endfacet
facet normal 1.000000 0.000000 0.000000
outer loop
vertex 0.415869 0.432759 0.337886
vertex 0.415869 0.432759 1.319237
vertex 0.415869 0.354759 1.319237
endloop
endfacet
facet normal 1.000000 0.000000 0.000000
outer loop
vertex 0.415869 0.354759 1.319237
vertex 0.415869 0.354759 0.337886
vertex 0.415869 0.432759 0.337886
endloop
endfacet
facet normal 1.000000 0.000000 0.000000
outer loop
vertex 0.384294 -0.377534 -0.377974
vertex 0.384294 -0.299534 -0.377974
vertex 0.384294 -0.299534 0.293463
endloop
endfacet
facet normal 1.000000 0.000000 0.000000
outer loop
vertex 0.384294 -0.299534 0.293463
vertex 0.384294 -0.377534 0.293463
vertex 0.384294 -0.377534 -0.377974
endloop
endfacet
facet normal 0.000000 1.000000 0.000000
outer loop
vertex 0.384294 -0.299534 -0.377974
vertex 0.306294 -0.299534 -0.377974
vertex 0.306294 -0.299534 0.293463
endloop
endfacet
facet normal 0.000000 1.000000 0.000000
outer loop
vertex 0.306294 -0.299534 0.293463
vertex 0.384294 -0.299534 0.293463
vertex 0.384294 -0.299534 -0.377974
endloop
endfacet
facet normal -1.000000 0.000000 0.000000
outer loop
vertex 0.306294 -0.299534 -0.377974
vertex 0.306294 -0.377534 -0.377974
vertex 0.306294 -0.377534 0.293463
endloop
endfacet
facet normal -1.000000 0.000000 0.000000
outer loop
vertex 0.306294 -0.377534 0.293463
vertex 0.306294 -0.299534 0.293463
vertex 0.306294 -0.299534 -0.377974
endloop
endfacet
facet normal 0.000000 -1.000000 0.000000
outer loop
vertex 0.306294 -0.377534 -0.377974
vertex 0.384294 -0.377534 -0.377974
vertex 0.384294 -0.377534 0.293463
endloop
endfacet
facet normal 0.000000 -1.000000 0.000000
outer loop
vertex 0.384294 -0.377534 0.293463
vertex 0.306294 -0.377534 0.293463
vertex 0.306294 -0.377534 -0.377974
endloop
endfacet
facet normal 0.000000 0.000000 -1.000000
outer loop
vertex 0.384294 -0.299534 -0.377974
vertex 0.384294 -0.377534 -0.377974
vertex 0.306294 -0.377534 -0.377974
endloop
endfacet
facet normal 0.000000 0.000000 -1.000000
outer loop
vertex 0.306294 -0.377534 -0.377974
vertex 0.306294 -0.299534 -0.377974
vertex 0.384294 -0.299534 -0.377974
endloop
endfacet
facet normal 0.000000 0.000000 1.000000
outer loop
vertex 0.306294 -0.299534 0.293463
vertex 0.306294 -0.377534 0.293463
vertex 0.384294 -0.377534 0.293463
endloop
endfacet
facet normal 0.000000 0.000000 1.000000
outer loop
vertex 0.384294 -0.377534 0.293463
vertex 0.384294 -0.299534 0.293463
vertex 0.306294 -0.299534 0.293463
endloop
endfacet
facet normal 0.000000 0.000000 1.000000
outer loop
vertex 0.321129 0.432759 1.319237
vertex 0.321129 0.354759 1.319237
vertex 0.415869 0.354759 1.319237
endloop
endfacet
facet normal 0.000000 0.000000 1.000000
outer loop
vertex 0.415869 0.354759 1.319237
vertex 0.415869 0.432759 1.319237
vertex 0.321129 0.432759 1.319237
endloop
endfacet
facet normal 0.000000 -1.000000 0.000000
outer loop
vertex 0.415869 0.354759 0.337886
vertex 0.415869 0.354759 1.319237
vertex 0.321129 0.354759 1.319237
endloop
endfacet
facet normal 0.000000 -1.000000 0.000000
outer loop
vertex 0.321129 0.354759 1.319237
vertex 0.321129 0.354759 0.337886
vertex 0.415869 0.354759 0.337886
endloop
endfacet
facet normal 0.000000 1.000000 0.000000
outer loop
vertex 0.321129 0.432759 0.337886
vertex 0.321129 0.432759 1.319237
vertex 0.415869 0.432759 1.319237
endloop
endfacet
facet normal 0.000000 1.000000 0.000000
outer loop
vertex 0.415869 0.432759 1.319237
vertex 0.415869 0.432759 0.337886
vertex 0.321129 0.432759 0.337886
endloop
endfacet
facet normal -1.000000 0.000000 0.000000
outer loop
vertex 0.321129 0.354759 0.337886
vertex 0.321129 0.354759 1.319237
vertex 0.321129 0.432759 1.319237
endloop
endfacet
facet normal -1.000000 0.000000 0.000000
outer loop
vertex 0.321129 0.432759 1.319237
vertex 0.321129 0.432759 0.337886
vertex 0.321129 0.354759 0.337886
endloop
endfacet
facet normal 1.000000 0.000000 0.000000
outer loop
vertex 0.352220 0.410029 1.270589
vertex 0.352220 0.387560 1.270589
vertex 0.352220 0.387560 0.631595
endloop
endfacet
facet normal 1.000000 0.000000 0.000000
outer loop
vertex 0.352220 0.387560 0.631595
vertex 0.352220 0.410029 0.631595
vertex 0.352220 0.410029 1.270589
endloop
endfacet
facet normal -1.000000 0.000000 0.000000
outer loop
vertex 0.000000 0.410029 1.270589
vertex 0.000000 0.410029 0.631595
vertex 0.000000 0.387560 0.631595
endloop
endfacet
facet normal -1.000000 0.000000 0.000000
outer loop
vertex 0.000000 0.387560 0.631595
vertex 0.000000 0.387560 1.270589
vertex 0.000000 0.410029 1.270589
endloop
endfacet
facet normal 0.000000 1.000000 0.000000
outer loop
vertex 0.352220 0.410029 0.631595
vertex 0.000000 0.410029 0.631595
vertex 0.000000 0.410029 1.270589
endloop
endfacet
facet normal 0.000000 1.000000 0.000000
outer loop
vertex 0.000000 0.410029 1.270589
vertex 0.352220 0.410029 1.270589
vertex 0.352220 0.410029 0.631595
endloop
endfacet
facet normal 0.000000 0.000000 -1.000000
outer loop
vertex 0.352220 0.387560 0.631595
vertex 0.000000 0.387560 0.631595
vertex 0.000000 0.410029 0.631595
endloop
endfacet
facet normal 0.000000 0.000000 -1.000000
outer loop
vertex 0.000000 0.410029 0.631595
vertex 0.352220 0.410029 0.631595
vertex 0.352220 0.387560 0.631595
endloop
endfacet
facet normal 0.000000 -1.000000 0.000000
outer loop
vertex 0.352220 0.387560 1.270589
vertex 0.000000 0.387560 1.270589
vertex 0.000000 0.387560 0.631595
endloop
endfacet
facet normal 0.000000 -1.000000 0.000000
outer loop
vertex 0.000000 0.387560 0.631595
vertex 0.352220 0.387560 0.631595
vertex 0.352220 0.387560 1.270589
endloop
endfacet
facet normal 0.000000 0.000000 1.000000
outer loop
vertex 0.352220 0.410029 1.270589
vertex 0.000000 0.410029 1.270589
vertex 0.000000 0.387560 1.270589
endloop
endfacet
facet normal 0.000000 0.000000 1.000000
outer loop
vertex 0.000000 0.387560 1.270589
vertex 0.352220 0.387560 1.270589
vertex 0.352220 0.410029 1.270589
endloop
endfacet
endsolid Exported from Blender-2.78 (sub 0)
