solid Exported from Blender-2.79 (sub 0)
facet normal 0.831469 -0.555570 0.000000
outer loop
vertex 0.157428 -0.065209 0.000000
vertex 0.157428 -0.065209 0.006408
vertex 0.120490 -0.120490 0.006408
endloop
endfacet
facet normal 0.831470 -0.555570 0.000000
outer loop
vertex 0.120490 -0.120490 0.006408
vertex 0.120490 -0.120490 0.000000
vertex 0.157428 -0.065209 0.000000
endloop
endfacet
facet normal 0.980785 -0.195091 0.000000
outer loop
vertex 0.170399 0.000000 0.000000
vertex 0.170399 0.000000 0.006408
vertex 0.157428 -0.065209 0.006408
endloop
endfacet
facet normal 0.980785 -0.195090 0.000000
outer loop
vertex 0.157428 -0.065209 0.006408
vertex 0.157428 -0.065209 0.000000
vertex 0.170399 0.000000 0.000000
endloop
endfacet
facet normal 0.195090 -0.980785 0.000000
outer loop
vertex 0.065209 -0.157428 0.000000
vertex 0.065209 -0.157428 0.006408
vertex 0.000000 -0.170399 0.006408
endloop
endfacet
facet normal 0.195090 -0.980785 0.000000
outer loop
vertex 0.000000 -0.170399 0.006408
vertex 0.000000 -0.170399 0.000000
vertex 0.065209 -0.157428 0.000000
endloop
endfacet
facet normal 0.555570 -0.831470 0.000000
outer loop
vertex 0.120490 -0.120490 0.000000
vertex 0.120490 -0.120490 0.006408
vertex 0.065209 -0.157428 0.006408
endloop
endfacet
facet normal 0.555570 -0.831470 0.000000
outer loop
vertex 0.065209 -0.157428 0.006408
vertex 0.065209 -0.157428 0.000000
vertex 0.120490 -0.120490 0.000000
endloop
endfacet
facet normal -0.195090 0.980785 0.000000
outer loop
vertex 0.026182 -0.063209 0.020724
vertex 0.000000 -0.068417 0.020724
vertex 0.000000 -0.068417 0.628858
endloop
endfacet
facet normal -0.195090 0.980785 0.000000
outer loop
vertex 0.000000 -0.068417 0.628858
vertex 0.026182 -0.063209 0.628858
vertex 0.026182 -0.063209 0.020724
endloop
endfacet
facet normal -0.555570 0.831470 0.000000
outer loop
vertex 0.048378 -0.048378 0.020724
vertex 0.026182 -0.063209 0.020724
vertex 0.026182 -0.063209 0.628858
endloop
endfacet
facet normal -0.555570 0.831470 0.000000
outer loop
vertex 0.026182 -0.063209 0.628858
vertex 0.048378 -0.048378 0.628858
vertex 0.048378 -0.048378 0.020724
endloop
endfacet
facet normal -0.831469 0.555571 0.000000
outer loop
vertex 0.063209 -0.026182 0.020724
vertex 0.048378 -0.048378 0.020724
vertex 0.048378 -0.048378 0.628858
endloop
endfacet
facet normal -0.831469 0.555570 0.000000
outer loop
vertex 0.048378 -0.048378 0.628858
vertex 0.063209 -0.026182 0.628858
vertex 0.063209 -0.026182 0.020724
endloop
endfacet
facet normal -0.980785 0.195091 0.000000
outer loop
vertex 0.068417 0.000000 0.020724
vertex 0.063209 -0.026182 0.020724
vertex 0.063209 -0.026182 0.628858
endloop
endfacet
facet normal -0.980785 0.195090 0.000000
outer loop
vertex 0.063209 -0.026182 0.628858
vertex 0.068417 0.000000 0.628858
vertex 0.068417 0.000000 0.020724
endloop
endfacet
facet normal 0.247478 0.000000 -0.968893
outer loop
vertex 0.262044 -0.011785 0.623531
vertex 0.043145 -0.011785 0.567619
vertex 0.043145 0.000000 0.567619
endloop
endfacet
facet normal 0.247478 0.000000 -0.968894
outer loop
vertex 0.043145 0.000000 0.567619
vertex 0.262044 0.000000 0.623531
vertex 0.262044 -0.011785 0.623531
endloop
endfacet
facet normal 0.000000 0.000000 -1.000000
outer loop
vertex 0.120490 -0.120490 0.000000
vertex 0.065209 -0.157428 0.000000
vertex 0.000000 -0.170399 0.000000
endloop
endfacet
facet normal 0.000000 0.000000 -1.000000
outer loop
vertex 0.000000 -0.170399 0.000000
vertex 0.000000 0.000000 0.000000
vertex 0.170399 0.000000 0.000000
endloop
endfacet
facet normal 0.000000 0.000000 -1.000000
outer loop
vertex 0.170399 0.000000 0.000000
vertex 0.157428 -0.065209 0.000000
vertex 0.120490 -0.120490 0.000000
endloop
endfacet
facet normal 0.000000 0.000000 -1.000000
outer loop
vertex 0.000000 -0.170399 0.000000
vertex 0.170399 0.000000 0.000000
vertex 0.120490 -0.120490 0.000000
endloop
endfacet
facet normal 0.000000 0.000000 1.000000
outer loop
vertex 0.000000 -0.170399 0.006408
vertex 0.065209 -0.157428 0.006408
vertex 0.120490 -0.120490 0.006408
endloop
endfacet
facet normal 0.000000 0.000000 1.000000
outer loop
vertex 0.120490 -0.120490 0.006408
vertex 0.157428 -0.065209 0.006408
vertex 0.170399 0.000000 0.006408
endloop
endfacet
facet normal 0.083433 -0.083433 0.993015
outer loop
vertex 0.170399 0.000000 0.006408
vertex 0.000000 0.000000 0.020724
vertex 0.000000 -0.170399 0.006408
endloop
endfacet
facet normal 0.000000 0.000000 1.000000
outer loop
vertex 0.120490 -0.120490 0.006408
vertex 0.170399 0.000000 0.006408
vertex 0.000000 -0.170399 0.006408
endloop
endfacet
facet normal 0.000000 -0.275047 -0.961431
outer loop
vertex 0.017390 -0.040070 0.567619
vertex 0.017615 -0.249657 0.627578
vertex 0.000000 -0.249657 0.627578
endloop
endfacet
facet normal 0.000000 -0.275047 -0.961431
outer loop
vertex 0.000000 -0.249657 0.627578
vertex 0.000000 -0.040070 0.567619
vertex 0.017390 -0.040070 0.567619
endloop
endfacet
facet normal -0.242831 0.000000 0.970069
outer loop
vertex 0.342853 -0.013134 0.631049
vertex 0.342853 0.000000 0.631049
vertex 0.044484 0.000000 0.556360
endloop
endfacet
facet normal -0.242831 0.000000 0.970069
outer loop
vertex 0.044484 0.000000 0.556360
vertex 0.044484 -0.013134 0.556360
vertex 0.342853 -0.013134 0.631049
endloop
endfacet
facet normal 0.000000 0.262751 0.964864
outer loop
vertex 0.018729 -0.041418 0.556360
vertex 0.000000 -0.041418 0.556360
vertex 0.000000 -0.315687 0.631049
endloop
endfacet
facet normal 0.000000 0.262751 0.964864
outer loop
vertex 0.000000 -0.315687 0.631049
vertex 0.018729 -0.315687 0.631049
vertex 0.018729 -0.041418 0.556360
endloop
endfacet
facet normal -0.992905 -0.033692 -0.114041
outer loop
vertex 0.017615 -0.249657 0.627578
vertex 0.017390 -0.040070 0.567619
vertex 0.018729 -0.041418 0.556360
endloop
endfacet
facet normal -0.996852 -0.020834 -0.076505
outer loop
vertex 0.018729 -0.041418 0.556360
vertex 0.018729 -0.315687 0.631049
vertex 0.017615 -0.249657 0.627578
endloop
endfacet
facet normal 0.993003 0.000000 0.118087
outer loop
vertex 0.043145 0.000000 0.567619
vertex 0.043145 -0.011785 0.567619
vertex 0.044484 -0.013134 0.556360
endloop
endfacet
facet normal 0.993003 0.000000 0.118087
outer loop
vertex 0.044484 -0.013134 0.556360
vertex 0.044484 0.000000 0.556360
vertex 0.043145 0.000000 0.567619
endloop
endfacet
facet normal 0.000000 -0.052493 -0.998621
outer loop
vertex 0.000000 -0.249657 0.627578
vertex 0.017615 -0.249657 0.627578
vertex 0.018729 -0.315687 0.631049
endloop
endfacet
facet normal 0.000000 -0.052493 -0.998621
outer loop
vertex 0.018729 -0.315687 0.631049
vertex 0.000000 -0.315687 0.631049
vertex 0.000000 -0.249657 0.627578
endloop
endfacet
facet normal 0.000000 -0.992904 0.118915
outer loop
vertex 0.017390 -0.040070 0.567619
vertex 0.000000 -0.040070 0.567619
vertex 0.000000 -0.041418 0.556360
endloop
endfacet
facet normal 0.000000 -0.992905 0.118914
outer loop
vertex 0.000000 -0.041418 0.556360
vertex 0.018729 -0.041418 0.556360
vertex 0.017390 -0.040070 0.567619
endloop
endfacet
facet normal 0.026100 0.994423 -0.102182
outer loop
vertex 0.043145 -0.011785 0.567619
vertex 0.262044 -0.011785 0.623531
vertex 0.342853 -0.013134 0.631049
endloop
endfacet
facet normal 0.028906 0.992890 -0.115476
outer loop
vertex 0.342853 -0.013134 0.631049
vertex 0.044484 -0.013134 0.556360
vertex 0.043145 -0.011785 0.567619
endloop
endfacet
facet normal 0.092633 0.000000 -0.995700
outer loop
vertex 0.262044 -0.011785 0.623531
vertex 0.262044 0.000000 0.623531
vertex 0.342853 0.000000 0.631049
endloop
endfacet
facet normal 0.092634 0.000000 -0.995700
outer loop
vertex 0.342853 0.000000 0.631049
vertex 0.342853 -0.013134 0.631049
vertex 0.262044 -0.011785 0.623531
endloop
endfacet
facet normal -0.831470 -0.555570 0.000000
outer loop
vertex -0.157428 -0.065209 0.000000
vertex -0.120490 -0.120490 0.000000
vertex -0.120490 -0.120490 0.006408
endloop
endfacet
facet normal -0.831469 -0.555570 0.000000
outer loop
vertex -0.120490 -0.120490 0.006408
vertex -0.157428 -0.065209 0.006408
vertex -0.157428 -0.065209 0.000000
endloop
endfacet
facet normal -0.980785 -0.195090 0.000000
outer loop
vertex -0.170399 0.000000 0.000000
vertex -0.157428 -0.065209 0.000000
vertex -0.157428 -0.065209 0.006408
endloop
endfacet
facet normal -0.980785 -0.195091 0.000000
outer loop
vertex -0.157428 -0.065209 0.006408
vertex -0.170399 0.000000 0.006408
vertex -0.170399 0.000000 0.000000
endloop
endfacet
facet normal -0.195090 -0.980785 0.000000
outer loop
vertex -0.065209 -0.157428 0.000000
vertex 0.000000 -0.170399 0.000000
vertex 0.000000 -0.170399 0.006408
endloop
endfacet
facet normal -0.195090 -0.980785 0.000000
outer loop
vertex 0.000000 -0.170399 0.006408
vertex -0.065209 -0.157428 0.006408
vertex -0.065209 -0.157428 0.000000
endloop
endfacet
facet normal -0.555570 -0.831470 0.000000
outer loop
vertex -0.120490 -0.120490 0.000000
vertex -0.065209 -0.157428 0.000000
vertex -0.065209 -0.157428 0.006408
endloop
endfacet
facet normal -0.555570 -0.831470 0.000000
outer loop
vertex -0.065209 -0.157428 0.006408
vertex -0.120490 -0.120490 0.006408
vertex -0.120490 -0.120490 0.000000
endloop
endfacet
facet normal 0.195090 0.980785 0.000000
outer loop
vertex -0.026182 -0.063209 0.020724
vertex -0.026182 -0.063209 0.628858
vertex 0.000000 -0.068417 0.628858
endloop
endfacet
facet normal 0.195090 0.980785 0.000000
outer loop
vertex 0.000000 -0.068417 0.628858
vertex 0.000000 -0.068417 0.020724
vertex -0.026182 -0.063209 0.020724
endloop
endfacet
facet normal 0.555570 0.831470 0.000000
outer loop
vertex -0.048378 -0.048378 0.020724
vertex -0.048378 -0.048378 0.628858
vertex -0.026182 -0.063209 0.628858
endloop
endfacet
facet normal 0.555570 0.831470 0.000000
outer loop
vertex -0.026182 -0.063209 0.628858
vertex -0.026182 -0.063209 0.020724
vertex -0.048378 -0.048378 0.020724
endloop
endfacet
facet normal 0.831469 0.555570 0.000000
outer loop
vertex -0.063209 -0.026182 0.020724
vertex -0.063209 -0.026182 0.628858
vertex -0.048378 -0.048378 0.628858
endloop
endfacet
facet normal 0.831469 0.555571 0.000000
outer loop
vertex -0.048378 -0.048378 0.628858
vertex -0.048378 -0.048378 0.020724
vertex -0.063209 -0.026182 0.020724
endloop
endfacet
facet normal 0.980785 0.195090 0.000000
outer loop
vertex -0.068417 0.000000 0.020724
vertex -0.068417 0.000000 0.628858
vertex -0.063209 -0.026182 0.628858
endloop
endfacet
facet normal 0.980785 0.195091 0.000000
outer loop
vertex -0.063209 -0.026182 0.628858
vertex -0.063209 -0.026182 0.020724
vertex -0.068417 0.000000 0.020724
endloop
endfacet
facet normal -0.247478 0.000000 -0.968894
outer loop
vertex -0.262044 -0.011785 0.623531
vertex -0.262044 0.000000 0.623531
vertex -0.043145 0.000000 0.567619
endloop
endfacet
facet normal -0.247478 0.000000 -0.968893
outer loop
vertex -0.043145 0.000000 0.567619
vertex -0.043145 -0.011785 0.567619
vertex -0.262044 -0.011785 0.623531
endloop
endfacet
facet normal 0.000000 0.000000 -1.000000
outer loop
vertex 0.000000 -0.170399 0.000000
vertex -0.065209 -0.157428 0.000000
vertex -0.120490 -0.120490 0.000000
endloop
endfacet
facet normal 0.000000 0.000000 -1.000000
outer loop
vertex -0.120490 -0.120490 0.000000
vertex -0.157428 -0.065209 0.000000
vertex -0.170399 0.000000 0.000000
endloop
endfacet
facet normal 0.000000 0.000000 -1.000000
outer loop
vertex -0.170399 0.000000 0.000000
vertex 0.000000 0.000000 0.000000
vertex 0.000000 -0.170399 0.000000
endloop
endfacet
facet normal 0.000000 0.000000 -1.000000
outer loop
vertex -0.120490 -0.120490 0.000000
vertex -0.170399 0.000000 0.000000
vertex 0.000000 -0.170399 0.000000
endloop
endfacet
facet normal 0.000000 0.000000 1.000000
outer loop
vertex -0.120490 -0.120490 0.006408
vertex -0.065209 -0.157428 0.006408
vertex 0.000000 -0.170399 0.006408
endloop
endfacet
facet normal -0.083433 -0.083433 0.993015
outer loop
vertex 0.000000 -0.170399 0.006408
vertex 0.000000 0.000000 0.020724
vertex -0.170399 0.000000 0.006408
endloop
endfacet
facet normal 0.000000 0.000000 1.000000
outer loop
vertex -0.170399 0.000000 0.006408
vertex -0.157428 -0.065209 0.006408
vertex -0.120490 -0.120490 0.006408
endloop
endfacet
facet normal -0.000000 0.000000 1.000000
outer loop
vertex 0.000000 -0.170399 0.006408
vertex -0.170399 0.000000 0.006408
vertex -0.120490 -0.120490 0.006408
endloop
endfacet
facet normal 0.000000 -0.275047 -0.961431
outer loop
vertex -0.017390 -0.040070 0.567619
vertex 0.000000 -0.040070 0.567619
vertex 0.000000 -0.249657 0.627578
endloop
endfacet
facet normal 0.000000 -0.275047 -0.961431
outer loop
vertex 0.000000 -0.249657 0.627578
vertex -0.017615 -0.249657 0.627578
vertex -0.017390 -0.040070 0.567619
endloop
endfacet
facet normal 0.242831 0.000000 0.970069
outer loop
vertex -0.342853 -0.013134 0.631049
vertex -0.044484 -0.013134 0.556360
vertex -0.044484 0.000000 0.556360
endloop
endfacet
facet normal 0.242831 0.000000 0.970069
outer loop
vertex -0.044484 0.000000 0.556360
vertex -0.342853 0.000000 0.631049
vertex -0.342853 -0.013134 0.631049
endloop
endfacet
facet normal 0.000000 0.262751 0.964864
outer loop
vertex -0.018729 -0.041418 0.556360
vertex -0.018729 -0.315687 0.631049
vertex 0.000000 -0.315687 0.631049
endloop
endfacet
facet normal 0.000000 0.262751 0.964864
outer loop
vertex 0.000000 -0.315687 0.631049
vertex 0.000000 -0.041418 0.556360
vertex -0.018729 -0.041418 0.556360
endloop
endfacet
facet normal 0.996852 -0.020834 -0.076504
outer loop
vertex -0.017615 -0.249657 0.627578
vertex -0.018729 -0.315687 0.631049
vertex -0.018729 -0.041418 0.556360
endloop
endfacet
facet normal 0.992905 -0.033692 -0.114041
outer loop
vertex -0.018729 -0.041418 0.556360
vertex -0.017390 -0.040070 0.567619
vertex -0.017615 -0.249657 0.627578
endloop
endfacet
facet normal -0.993003 0.000000 0.118087
outer loop
vertex -0.043145 0.000000 0.567619
vertex -0.044484 0.000000 0.556360
vertex -0.044484 -0.013134 0.556360
endloop
endfacet
facet normal -0.993003 0.000000 0.118087
outer loop
vertex -0.044484 -0.013134 0.556360
vertex -0.043145 -0.011785 0.567619
vertex -0.043145 0.000000 0.567619
endloop
endfacet
facet normal 0.000000 -0.052493 -0.998621
outer loop
vertex 0.000000 -0.249657 0.627578
vertex 0.000000 -0.315687 0.631049
vertex -0.018729 -0.315687 0.631049
endloop
endfacet
facet normal 0.000000 -0.052493 -0.998621
outer loop
vertex -0.018729 -0.315687 0.631049
vertex -0.017615 -0.249657 0.627578
vertex 0.000000 -0.249657 0.627578
endloop
endfacet
facet normal 0.000000 -0.992905 0.118914
outer loop
vertex -0.017390 -0.040070 0.567619
vertex -0.018729 -0.041418 0.556360
vertex 0.000000 -0.041418 0.556360
endloop
endfacet
facet normal 0.000000 -0.992904 0.118915
outer loop
vertex 0.000000 -0.041418 0.556360
vertex 0.000000 -0.040070 0.567619
vertex -0.017390 -0.040070 0.567619
endloop
endfacet
facet normal -0.028906 0.992890 -0.115476
outer loop
vertex -0.043145 -0.011785 0.567619
vertex -0.044484 -0.013134 0.556360
vertex -0.342853 -0.013134 0.631049
endloop
endfacet
facet normal -0.026100 0.994423 -0.102182
outer loop
vertex -0.342853 -0.013134 0.631049
vertex -0.262044 -0.011785 0.623531
vertex -0.043145 -0.011785 0.567619
endloop
endfacet
facet normal -0.092634 0.000000 -0.995700
outer loop
vertex -0.262044 -0.011785 0.623531
vertex -0.342853 -0.013134 0.631049
vertex -0.342853 0.000000 0.631049
endloop
endfacet
facet normal -0.092633 0.000000 -0.995700
outer loop
vertex -0.342853 0.000000 0.631049
vertex -0.262044 0.000000 0.623531
vertex -0.262044 -0.011785 0.623531
endloop
endfacet
facet normal 0.831470 0.555570 0.000000
outer loop
vertex 0.157428 0.065209 0.000000
vertex 0.120490 0.120490 0.000000
vertex 0.120490 0.120490 0.006408
endloop
endfacet
facet normal 0.831469 0.555570 0.000000
outer loop
vertex 0.120490 0.120490 0.006408
vertex 0.157428 0.065209 0.006408
vertex 0.157428 0.065209 0.000000
endloop
endfacet
facet normal 0.980785 0.195090 0.000000
outer loop
vertex 0.170399 0.000000 0.000000
vertex 0.157428 0.065209 0.000000
vertex 0.157428 0.065209 0.006408
endloop
endfacet
facet normal 0.980785 0.195091 0.000000
outer loop
vertex 0.157428 0.065209 0.006408
vertex 0.170399 0.000000 0.006408
vertex 0.170399 0.000000 0.000000
endloop
endfacet
facet normal 0.195090 0.980785 0.000000
outer loop
vertex 0.065209 0.157428 0.000000
vertex 0.000000 0.170399 0.000000
vertex 0.000000 0.170399 0.006408
endloop
endfacet
facet normal 0.195090 0.980785 0.000000
outer loop
vertex 0.000000 0.170399 0.006408
vertex 0.065209 0.157428 0.006408
vertex 0.065209 0.157428 0.000000
endloop
endfacet
facet normal 0.555570 0.831470 0.000000
outer loop
vertex 0.120490 0.120490 0.000000
vertex 0.065209 0.157428 0.000000
vertex 0.065209 0.157428 0.006408
endloop
endfacet
facet normal 0.555570 0.831470 0.000000
outer loop
vertex 0.065209 0.157428 0.006408
vertex 0.120490 0.120490 0.006408
vertex 0.120490 0.120490 0.000000
endloop
endfacet
facet normal -0.195090 -0.980785 0.000000
outer loop
vertex 0.026182 0.063209 0.020724
vertex 0.026182 0.063209 0.628858
vertex 0.000000 0.068417 0.628858
endloop
endfacet
facet normal -0.195090 -0.980785 0.000000
outer loop
vertex 0.000000 0.068417 0.628858
vertex 0.000000 0.068417 0.020724
vertex 0.026182 0.063209 0.020724
endloop
endfacet
facet normal -0.555570 -0.831470 0.000000
outer loop
vertex 0.048378 0.048378 0.020724
vertex 0.048378 0.048378 0.628858
vertex 0.026182 0.063209 0.628858
endloop
endfacet
facet normal -0.555570 -0.831470 0.000000
outer loop
vertex 0.026182 0.063209 0.628858
vertex 0.026182 0.063209 0.020724
vertex 0.048378 0.048378 0.020724
endloop
endfacet
facet normal -0.831469 -0.555570 0.000000
outer loop
vertex 0.063209 0.026182 0.020724
vertex 0.063209 0.026182 0.628858
vertex 0.048378 0.048378 0.628858
endloop
endfacet
facet normal -0.831469 -0.555571 0.000000
outer loop
vertex 0.048378 0.048378 0.628858
vertex 0.048378 0.048378 0.020724
vertex 0.063209 0.026182 0.020724
endloop
endfacet
facet normal -0.980785 -0.195090 0.000000
outer loop
vertex 0.068417 0.000000 0.020724
vertex 0.068417 0.000000 0.628858
vertex 0.063209 0.026182 0.628858
endloop
endfacet
facet normal -0.980785 -0.195091 0.000000
outer loop
vertex 0.063209 0.026182 0.628858
vertex 0.063209 0.026182 0.020724
vertex 0.068417 0.000000 0.020724
endloop
endfacet
facet normal 0.247478 0.000000 -0.968894
outer loop
vertex 0.262044 0.011785 0.623531
vertex 0.262044 0.000000 0.623531
vertex 0.043145 0.000000 0.567619
endloop
endfacet
facet normal 0.247478 0.000000 -0.968893
outer loop
vertex 0.043145 0.000000 0.567619
vertex 0.043145 0.011785 0.567619
vertex 0.262044 0.011785 0.623531
endloop
endfacet
facet normal 0.000000 0.000000 -1.000000
outer loop
vertex 0.000000 0.170399 0.000000
vertex 0.065209 0.157428 0.000000
vertex 0.120490 0.120490 0.000000
endloop
endfacet
facet normal 0.000000 0.000000 -1.000000
outer loop
vertex 0.120490 0.120490 0.000000
vertex 0.157428 0.065209 0.000000
vertex 0.170399 0.000000 0.000000
endloop
endfacet
facet normal 0.000000 0.000000 -1.000000
outer loop
vertex 0.170399 0.000000 0.000000
vertex 0.000000 0.000000 0.000000
vertex 0.000000 0.170399 0.000000
endloop
endfacet
facet normal 0.000000 0.000000 -1.000000
outer loop
vertex 0.120490 0.120490 0.000000
vertex 0.170399 0.000000 0.000000
vertex 0.000000 0.170399 0.000000
endloop
endfacet
facet normal 0.000000 0.000000 1.000000
outer loop
vertex 0.120490 0.120490 0.006408
vertex 0.065209 0.157428 0.006408
vertex 0.000000 0.170399 0.006408
endloop
endfacet
facet normal 0.083433 0.083433 0.993015
outer loop
vertex 0.000000 0.170399 0.006408
vertex 0.000000 0.000000 0.020724
vertex 0.170399 0.000000 0.006408
endloop
endfacet
facet normal 0.000000 0.000000 1.000000
outer loop
vertex 0.170399 0.000000 0.006408
vertex 0.157428 0.065209 0.006408
vertex 0.120490 0.120490 0.006408
endloop
endfacet
facet normal 0.000000 0.000000 1.000000
outer loop
vertex 0.000000 0.170399 0.006408
vertex 0.170399 0.000000 0.006408
vertex 0.120490 0.120490 0.006408
endloop
endfacet
facet normal 0.000000 0.275047 -0.961431
outer loop
vertex 0.017390 0.040070 0.567619
vertex 0.000000 0.040070 0.567619
vertex 0.000000 0.249657 0.627578
endloop
endfacet
facet normal 0.000000 0.275047 -0.961431
outer loop
vertex 0.000000 0.249657 0.627578
vertex 0.017615 0.249657 0.627578
vertex 0.017390 0.040070 0.567619
endloop
endfacet
facet normal -0.242831 0.000000 0.970069
outer loop
vertex 0.342853 0.013134 0.631049
vertex 0.044484 0.013134 0.556360
vertex 0.044484 0.000000 0.556360
endloop
endfacet
facet normal -0.242831 0.000000 0.970069
outer loop
vertex 0.044484 0.000000 0.556360
vertex 0.342853 0.000000 0.631049
vertex 0.342853 0.013134 0.631049
endloop
endfacet
facet normal 0.000000 -0.262751 0.964864
outer loop
vertex 0.018729 0.041418 0.556360
vertex 0.018729 0.315687 0.631049
vertex 0.000000 0.315687 0.631049
endloop
endfacet
facet normal 0.000000 -0.262751 0.964864
outer loop
vertex 0.000000 0.315687 0.631049
vertex 0.000000 0.041418 0.556360
vertex 0.018729 0.041418 0.556360
endloop
endfacet
facet normal -0.996852 0.020834 -0.076504
outer loop
vertex 0.017615 0.249657 0.627578
vertex 0.018729 0.315687 0.631049
vertex 0.018729 0.041418 0.556360
endloop
endfacet
facet normal -0.992905 0.033692 -0.114041
outer loop
vertex 0.018729 0.041418 0.556360
vertex 0.017390 0.040070 0.567619
vertex 0.017615 0.249657 0.627578
endloop
endfacet
facet normal 0.993003 0.000000 0.118087
outer loop
vertex 0.043145 0.000000 0.567619
vertex 0.044484 0.000000 0.556360
vertex 0.044484 0.013134 0.556360
endloop
endfacet
facet normal 0.993003 0.000000 0.118087
outer loop
vertex 0.044484 0.013134 0.556360
vertex 0.043145 0.011785 0.567619
vertex 0.043145 0.000000 0.567619
endloop
endfacet
facet normal 0.000000 0.052493 -0.998621
outer loop
vertex 0.000000 0.249657 0.627578
vertex 0.000000 0.315687 0.631049
vertex 0.018729 0.315687 0.631049
endloop
endfacet
facet normal 0.000000 0.052493 -0.998621
outer loop
vertex 0.018729 0.315687 0.631049
vertex 0.017615 0.249657 0.627578
vertex 0.000000 0.249657 0.627578
endloop
endfacet
facet normal 0.000000 0.992905 0.118914
outer loop
vertex 0.017390 0.040070 0.567619
vertex 0.018729 0.041418 0.556360
vertex 0.000000 0.041418 0.556360
endloop
endfacet
facet normal 0.000000 0.992904 0.118915
outer loop
vertex 0.000000 0.041418 0.556360
vertex 0.000000 0.040070 0.567619
vertex 0.017390 0.040070 0.567619
endloop
endfacet
facet normal 0.028906 -0.992890 -0.115476
outer loop
vertex 0.043145 0.011785 0.567619
vertex 0.044484 0.013134 0.556360
vertex 0.342853 0.013134 0.631049
endloop
endfacet
facet normal 0.026100 -0.994423 -0.102182
outer loop
vertex 0.342853 0.013134 0.631049
vertex 0.262044 0.011785 0.623531
vertex 0.043145 0.011785 0.567619
endloop
endfacet
facet normal 0.092634 0.000000 -0.995700
outer loop
vertex 0.262044 0.011785 0.623531
vertex 0.342853 0.013134 0.631049
vertex 0.342853 0.000000 0.631049
endloop
endfacet
facet normal 0.092633 0.000000 -0.995700
outer loop
vertex 0.342853 0.000000 0.631049
vertex 0.262044 0.000000 0.623531
vertex 0.262044 0.011785 0.623531
endloop
endfacet
facet normal -0.831469 0.555570 0.000000
outer loop
vertex -0.157428 0.065209 0.000000
vertex -0.157428 0.065209 0.006408
vertex -0.120490 0.120490 0.006408
endloop
endfacet
facet normal -0.831470 0.555570 0.000000
outer loop
vertex -0.120490 0.120490 0.006408
vertex -0.120490 0.120490 0.000000
vertex -0.157428 0.065209 0.000000
endloop
endfacet
facet normal -0.980785 0.195091 0.000000
outer loop
vertex -0.170399 0.000000 0.000000
vertex -0.170399 0.000000 0.006408
vertex -0.157428 0.065209 0.006408
endloop
endfacet
facet normal -0.980785 0.195090 0.000000
outer loop
vertex -0.157428 0.065209 0.006408
vertex -0.157428 0.065209 0.000000
vertex -0.170399 0.000000 0.000000
endloop
endfacet
facet normal -0.195090 0.980785 0.000000
outer loop
vertex -0.065209 0.157428 0.000000
vertex -0.065209 0.157428 0.006408
vertex 0.000000 0.170399 0.006408
endloop
endfacet
facet normal -0.195090 0.980785 0.000000
outer loop
vertex 0.000000 0.170399 0.006408
vertex 0.000000 0.170399 0.000000
vertex -0.065209 0.157428 0.000000
endloop
endfacet
facet normal -0.555570 0.831470 0.000000
outer loop
vertex -0.120490 0.120490 0.000000
vertex -0.120490 0.120490 0.006408
vertex -0.065209 0.157428 0.006408
endloop
endfacet
facet normal -0.555570 0.831470 0.000000
outer loop
vertex -0.065209 0.157428 0.006408
vertex -0.065209 0.157428 0.000000
vertex -0.120490 0.120490 0.000000
endloop
endfacet
facet normal 0.195090 -0.980785 0.000000
outer loop
vertex -0.026182 0.063209 0.020724
vertex 0.000000 0.068417 0.020724
vertex 0.000000 0.068417 0.628858
endloop
endfacet
facet normal 0.195090 -0.980785 0.000000
outer loop
vertex 0.000000 0.068417 0.628858
vertex -0.026182 0.063209 0.628858
vertex -0.026182 0.063209 0.020724
endloop
endfacet
facet normal 0.555570 -0.831470 0.000000
outer loop
vertex -0.048378 0.048378 0.020724
vertex -0.026182 0.063209 0.020724
vertex -0.026182 0.063209 0.628858
endloop
endfacet
facet normal 0.555570 -0.831470 0.000000
outer loop
vertex -0.026182 0.063209 0.628858
vertex -0.048378 0.048378 0.628858
vertex -0.048378 0.048378 0.020724
endloop
endfacet
facet normal 0.831469 -0.555571 0.000000
outer loop
vertex -0.063209 0.026182 0.020724
vertex -0.048378 0.048378 0.020724
vertex -0.048378 0.048378 0.628858
endloop
endfacet
facet normal 0.831469 -0.555570 0.000000
outer loop
vertex -0.048378 0.048378 0.628858
vertex -0.063209 0.026182 0.628858
vertex -0.063209 0.026182 0.020724
endloop
endfacet
facet normal 0.980785 -0.195091 0.000000
outer loop
vertex -0.068417 0.000000 0.020724
vertex -0.063209 0.026182 0.020724
vertex -0.063209 0.026182 0.628858
endloop
endfacet
facet normal 0.980785 -0.195090 0.000000
outer loop
vertex -0.063209 0.026182 0.628858
vertex -0.068417 0.000000 0.628858
vertex -0.068417 0.000000 0.020724
endloop
endfacet
facet normal -0.247478 0.000000 -0.968893
outer loop
vertex -0.262044 0.011785 0.623531
vertex -0.043145 0.011785 0.567619
vertex -0.043145 0.000000 0.567619
endloop
endfacet
facet normal -0.247478 0.000000 -0.968894
outer loop
vertex -0.043145 0.000000 0.567619
vertex -0.262044 0.000000 0.623531
vertex -0.262044 0.011785 0.623531
endloop
endfacet
facet normal 0.000000 0.000000 -1.000000
outer loop
vertex -0.120490 0.120490 0.000000
vertex -0.065209 0.157428 0.000000
vertex 0.000000 0.170399 0.000000
endloop
endfacet
facet normal 0.000000 0.000000 -1.000000
outer loop
vertex 0.000000 0.170399 0.000000
vertex 0.000000 0.000000 0.000000
vertex -0.170399 0.000000 0.000000
endloop
endfacet
facet normal 0.000000 0.000000 -1.000000
outer loop
vertex -0.170399 0.000000 0.000000
vertex -0.157428 0.065209 0.000000
vertex -0.120490 0.120490 0.000000
endloop
endfacet
facet normal 0.000000 0.000000 -1.000000
outer loop
vertex 0.000000 0.170399 0.000000
vertex -0.170399 0.000000 0.000000
vertex -0.120490 0.120490 0.000000
endloop
endfacet
facet normal 0.000000 0.000000 1.000000
outer loop
vertex 0.000000 0.170399 0.006408
vertex -0.065209 0.157428 0.006408
vertex -0.120490 0.120490 0.006408
endloop
endfacet
facet normal 0.000000 0.000000 1.000000
outer loop
vertex -0.120490 0.120490 0.006408
vertex -0.157428 0.065209 0.006408
vertex -0.170399 0.000000 0.006408
endloop
endfacet
facet normal -0.083433 0.083433 0.993015
outer loop
vertex -0.170399 0.000000 0.006408
vertex 0.000000 0.000000 0.020724
vertex 0.000000 0.170399 0.006408
endloop
endfacet
facet normal 0.000000 0.000000 1.000000
outer loop
vertex -0.120490 0.120490 0.006408
vertex -0.170399 0.000000 0.006408
vertex 0.000000 0.170399 0.006408
endloop
endfacet
facet normal 0.000000 0.275047 -0.961431
outer loop
vertex -0.017390 0.040070 0.567619
vertex -0.017615 0.249657 0.627578
vertex 0.000000 0.249657 0.627578
endloop
endfacet
facet normal 0.000000 0.275047 -0.961431
outer loop
vertex 0.000000 0.249657 0.627578
vertex 0.000000 0.040070 0.567619
vertex -0.017390 0.040070 0.567619
endloop
endfacet
facet normal 0.242831 0.000000 0.970069
outer loop
vertex -0.342853 0.013134 0.631049
vertex -0.342853 0.000000 0.631049
vertex -0.044484 0.000000 0.556360
endloop
endfacet
facet normal 0.242831 0.000000 0.970069
outer loop
vertex -0.044484 0.000000 0.556360
vertex -0.044484 0.013134 0.556360
vertex -0.342853 0.013134 0.631049
endloop
endfacet
facet normal 0.000000 -0.262751 0.964864
outer loop
vertex -0.018729 0.041418 0.556360
vertex 0.000000 0.041418 0.556360
vertex 0.000000 0.315687 0.631049
endloop
endfacet
facet normal 0.000000 -0.262751 0.964864
outer loop
vertex 0.000000 0.315687 0.631049
vertex -0.018729 0.315687 0.631049
vertex -0.018729 0.041418 0.556360
endloop
endfacet
facet normal 0.992905 0.033692 -0.114041
outer loop
vertex -0.017615 0.249657 0.627578
vertex -0.017390 0.040070 0.567619
vertex -0.018729 0.041418 0.556360
endloop
endfacet
facet normal 0.996852 0.020834 -0.076505
outer loop
vertex -0.018729 0.041418 0.556360
vertex -0.018729 0.315687 0.631049
vertex -0.017615 0.249657 0.627578
endloop
endfacet
facet normal -0.993003 0.000000 0.118087
outer loop
vertex -0.043145 0.000000 0.567619
vertex -0.043145 0.011785 0.567619
vertex -0.044484 0.013134 0.556360
endloop
endfacet
facet normal -0.993003 0.000000 0.118087
outer loop
vertex -0.044484 0.013134 0.556360
vertex -0.044484 0.000000 0.556360
vertex -0.043145 0.000000 0.567619
endloop
endfacet
facet normal 0.000000 0.052493 -0.998621
outer loop
vertex 0.000000 0.249657 0.627578
vertex -0.017615 0.249657 0.627578
vertex -0.018729 0.315687 0.631049
endloop
endfacet
facet normal 0.000000 0.052493 -0.998621
outer loop
vertex -0.018729 0.315687 0.631049
vertex 0.000000 0.315687 0.631049
vertex 0.000000 0.249657 0.627578
endloop
endfacet
facet normal 0.000000 0.992904 0.118915
outer loop
vertex -0.017390 0.040070 0.567619
vertex 0.000000 0.040070 0.567619
vertex 0.000000 0.041418 0.556360
endloop
endfacet
facet normal 0.000000 0.992905 0.118914
outer loop
vertex 0.000000 0.041418 0.556360
vertex -0.018729 0.041418 0.556360
vertex -0.017390 0.040070 0.567619
endloop
endfacet
facet normal -0.026100 -0.994423 -0.102182
outer loop
vertex -0.043145 0.011785 0.567619
vertex -0.262044 0.011785 0.623531
vertex -0.342853 0.013134 0.631049
endloop
endfacet
facet normal -0.028906 -0.992890 -0.115476
outer loop
vertex -0.342853 0.013134 0.631049
vertex -0.044484 0.013134 0.556360
vertex -0.043145 0.011785 0.567619
endloop
endfacet
facet normal -0.092633 0.000000 -0.995700
outer loop
vertex -0.262044 0.011785 0.623531
vertex -0.262044 0.000000 0.623531
vertex -0.342853 0.000000 0.631049
endloop
endfacet
facet normal -0.092634 0.000000 -0.995700
outer loop
vertex -0.342853 0.000000 0.631049
vertex -0.342853 0.013134 0.631049
vertex -0.262044 0.011785 0.623531
endloop
endfacet
facet normal -0.000000 0.000000 -1.000000
outer loop
vertex -0.229610 0.554328 0.628858
vertex -0.117054 0.588471 0.628858
vertex 0.000000 0.600000 0.628858
endloop
endfacet
facet normal 0.000000 0.000000 -1.000000
outer loop
vertex 0.000000 0.600000 0.628858
vertex 0.117053 0.588471 0.628858
vertex 0.229609 0.554328 0.628858
endloop
endfacet
facet normal -0.000003 0.000000 -1.000000
outer loop
vertex 0.229609 0.554328 0.628858
vertex 0.333341 0.498882 0.628858
vertex 0.424264 0.424265 0.628858
endloop
endfacet
facet normal 0.000000 0.000000 -1.000000
outer loop
vertex 0.424264 0.424265 0.628858
vertex 0.498881 0.333343 0.628858
vertex 0.554327 0.229611 0.628858
endloop
endfacet
facet normal 0.000000 0.000000 -1.000000
outer loop
vertex 0.554327 0.229611 0.628858
vertex 0.588471 0.117055 0.628858
vertex 0.600000 0.000001 0.628858
endloop
endfacet
facet normal 0.000000 0.000000 -1.000000
outer loop
vertex 0.600000 0.000001 0.628858
vertex 0.588471 -0.117054 0.628858
vertex 0.554328 -0.229610 0.628858
endloop
endfacet
facet normal -0.000003 0.000000 -1.000000
outer loop
vertex 0.554328 -0.229610 0.628858
vertex 0.498882 -0.333342 0.628858
vertex 0.424264 -0.424264 0.628858
endloop
endfacet
facet normal 0.000003 0.000000 -1.000000
outer loop
vertex 0.424264 -0.424264 0.628858
vertex 0.333342 -0.498882 0.628858
vertex 0.229610 -0.554328 0.628858
endloop
endfacet
facet normal -0.000001 0.000000 -1.000000
outer loop
vertex 0.229610 -0.554328 0.628858
vertex 0.117054 -0.588471 0.628858
vertex 0.000000 -0.600000 0.628858
endloop
endfacet
facet normal 0.000000 0.000000 -1.000000
outer loop
vertex 0.000000 -0.600000 0.628858
vertex -0.117054 -0.588471 0.628858
vertex -0.229610 -0.554328 0.628858
endloop
endfacet
facet normal -0.000003 0.000000 -1.000000
outer loop
vertex -0.229610 -0.554328 0.628858
vertex -0.333342 -0.498882 0.628858
vertex -0.424264 -0.424264 0.628858
endloop
endfacet
facet normal 0.000000 0.000000 -1.000000
outer loop
vertex -0.424264 -0.424264 0.628858
vertex -0.498882 -0.333342 0.628858
vertex -0.554328 -0.229610 0.628858
endloop
endfacet
facet normal -0.000006 0.000000 -1.000000
outer loop
vertex -0.554328 -0.229610 0.628858
vertex -0.588471 -0.117054 0.628858
vertex -0.600000 0.000000 0.628858
endloop
endfacet
facet normal -0.000006 0.000000 -1.000000
outer loop
vertex -0.600000 0.000000 0.628858
vertex -0.588471 0.117054 0.628858
vertex -0.554328 0.229610 0.628858
endloop
endfacet
facet normal 0.000000 0.000000 -1.000000
outer loop
vertex -0.554328 0.229610 0.628858
vertex -0.498882 0.333342 0.628858
vertex -0.424264 0.424264 0.628858
endloop
endfacet
facet normal 0.000000 0.000000 -1.000000
outer loop
vertex -0.424264 0.424264 0.628858
vertex -0.333342 0.498882 0.628858
vertex -0.229610 0.554328 0.628858
endloop
endfacet
facet normal 0.000000 0.000000 -1.000000
outer loop
vertex -0.229610 0.554328 0.628858
vertex 0.000000 0.600000 0.628858
vertex 0.229609 0.554328 0.628858
endloop
endfacet
facet normal -0.000001 0.000000 -1.000000
outer loop
vertex 0.229609 0.554328 0.628858
vertex 0.424264 0.424265 0.628858
vertex 0.554327 0.229611 0.628858
endloop
endfacet
facet normal 0.000000 0.000000 -1.000000
outer loop
vertex 0.554327 0.229611 0.628858
vertex 0.600000 0.000001 0.628858
vertex 0.554328 -0.229610 0.628858
endloop
endfacet
facet normal -0.000001 0.000000 -1.000000
outer loop
vertex 0.554328 -0.229610 0.628858
vertex 0.424264 -0.424264 0.628858
vertex 0.229610 -0.554328 0.628858
endloop
endfacet
facet normal 0.000000 0.000000 -1.000000
outer loop
vertex 0.229610 -0.554328 0.628858
vertex 0.000000 -0.600000 0.628858
vertex -0.229610 -0.554328 0.628858
endloop
endfacet
facet normal 0.000001 0.000000 -1.000000
outer loop
vertex -0.229610 -0.554328 0.628858
vertex -0.424264 -0.424264 0.628858
vertex -0.554328 -0.229610 0.628858
endloop
endfacet
facet normal 0.000000 0.000000 -1.000000
outer loop
vertex -0.554328 -0.229610 0.628858
vertex -0.600000 0.000000 0.628858
vertex -0.554328 0.229610 0.628858
endloop
endfacet
facet normal -0.000001 0.000000 -1.000000
outer loop
vertex -0.554328 0.229610 0.628858
vertex -0.424264 0.424264 0.628858
vertex -0.229610 0.554328 0.628858
endloop
endfacet
facet normal 0.000000 0.000000 -1.000000
outer loop
vertex -0.229610 0.554328 0.628858
vertex 0.229609 0.554328 0.628858
vertex 0.554327 0.229611 0.628858
endloop
endfacet
facet normal 0.000000 0.000000 -1.000000
outer loop
vertex 0.554327 0.229611 0.628858
vertex 0.554328 -0.229610 0.628858
vertex 0.229610 -0.554328 0.628858
endloop
endfacet
facet normal 0.000000 0.000000 -1.000000
outer loop
vertex 0.229610 -0.554328 0.628858
vertex -0.229610 -0.554328 0.628858
vertex -0.554328 -0.229610 0.628858
endloop
endfacet
facet normal 0.000000 0.000000 -1.000000
outer loop
vertex -0.554328 -0.229610 0.628858
vertex -0.554328 0.229610 0.628858
vertex -0.229610 0.554328 0.628858
endloop
endfacet
facet normal -0.000000 0.000000 -1.000000
outer loop
vertex -0.229610 0.554328 0.628858
vertex 0.554327 0.229611 0.628858
vertex 0.229610 -0.554328 0.628858
endloop
endfacet
facet normal 0.000000 0.000000 -1.000000
outer loop
vertex 0.229610 -0.554328 0.628858
vertex -0.554328 -0.229610 0.628858
vertex -0.229610 0.554328 0.628858
endloop
endfacet
facet normal -0.000001 0.000000 1.000000
outer loop
vertex 0.000000 0.600000 0.641434
vertex -0.117054 0.588471 0.641434
vertex -0.229610 0.554328 0.641434
endloop
endfacet
facet normal 0.000003 0.000000 1.000000
outer loop
vertex -0.229610 0.554328 0.641434
vertex -0.333342 0.498882 0.641434
vertex -0.424264 0.424264 0.641434
endloop
endfacet
facet normal 0.000000 0.000000 1.000000
outer loop
vertex -0.424264 0.424264 0.641434
vertex -0.498882 0.333342 0.641434
vertex -0.554328 0.229610 0.641434
endloop
endfacet
facet normal 0.000006 0.000000 1.000000
outer loop
vertex -0.554328 0.229610 0.641434
vertex -0.588471 0.117054 0.641434
vertex -0.600000 0.000000 0.641434
endloop
endfacet
facet normal 0.000006 0.000000 1.000000
outer loop
vertex -0.600000 0.000000 0.641434
vertex -0.588471 -0.117054 0.641434
vertex -0.554328 -0.229610 0.641434
endloop
endfacet
facet normal -0.000003 0.000000 1.000000
outer loop
vertex -0.554328 -0.229610 0.641434
vertex -0.498882 -0.333342 0.641434
vertex -0.424264 -0.424264 0.641434
endloop
endfacet
facet normal -0.000003 0.000000 1.000000
outer loop
vertex -0.424264 -0.424264 0.641434
vertex -0.333342 -0.498882 0.641434
vertex -0.229610 -0.554328 0.641434
endloop
endfacet
facet normal -0.000000 0.000000 1.000000
outer loop
vertex -0.229610 -0.554328 0.641434
vertex -0.117054 -0.588471 0.641434
vertex 0.000000 -0.600000 0.641434
endloop
endfacet
facet normal 0.000000 0.000000 1.000000
outer loop
vertex 0.000000 -0.600000 0.641434
vertex 0.117054 -0.588471 0.641434
vertex 0.229610 -0.554328 0.641434
endloop
endfacet
facet normal 0.000000 0.000000 1.000000
outer loop
vertex 0.229610 -0.554328 0.641434
vertex 0.333342 -0.498882 0.641434
vertex 0.424264 -0.424264 0.641434
endloop
endfacet
facet normal -0.000006 0.000000 1.000000
outer loop
vertex 0.424264 -0.424264 0.641434
vertex 0.498882 -0.333342 0.641434
vertex 0.554328 -0.229610 0.641434
endloop
endfacet
facet normal 0.000000 0.000000 1.000000
outer loop
vertex 0.554328 -0.229610 0.641434
vertex 0.588471 -0.117054 0.641434
vertex 0.600000 0.000001 0.641434
endloop
endfacet
facet normal -0.000006 0.000000 1.000000
outer loop
vertex 0.600000 0.000001 0.641434
vertex 0.588471 0.117055 0.641434
vertex 0.554327 0.229611 0.641434
endloop
endfacet
facet normal 0.000000 0.000000 1.000000
outer loop
vertex 0.554327 0.229611 0.641434
vertex 0.498881 0.333343 0.641434
vertex 0.424264 0.424265 0.641434
endloop
endfacet
facet normal 0.000000 0.000000 1.000000
outer loop
vertex 0.424264 0.424265 0.641434
vertex 0.333341 0.498882 0.641434
vertex 0.229609 0.554328 0.641434
endloop
endfacet
facet normal 0.000000 0.000000 1.000000
outer loop
vertex 0.229609 0.554328 0.641434
vertex 0.117053 0.588471 0.641434
vertex 0.000000 0.600000 0.641434
endloop
endfacet
facet normal 0.000000 0.000000 1.000000
outer loop
vertex 0.000000 0.600000 0.641434
vertex -0.229610 0.554328 0.641434
vertex -0.424264 0.424264 0.641434
endloop
endfacet
facet normal -0.000001 0.000000 1.000000
outer loop
vertex -0.424264 0.424264 0.641434
vertex -0.554328 0.229610 0.641434
vertex -0.600000 0.000000 0.641434
endloop
endfacet
facet normal -0.000001 0.000000 1.000000
outer loop
vertex -0.600000 0.000000 0.641434
vertex -0.554328 -0.229610 0.641434
vertex -0.424264 -0.424264 0.641434
endloop
endfacet
facet normal 0.000001 0.000000 1.000000
outer loop
vertex -0.424264 -0.424264 0.641434
vertex -0.229610 -0.554328 0.641434
vertex 0.000000 -0.600000 0.641434
endloop
endfacet
facet normal 0.000000 0.000000 1.000000
outer loop
vertex 0.000000 -0.600000 0.641434
vertex 0.229610 -0.554328 0.641434
vertex 0.424264 -0.424264 0.641434
endloop
endfacet
facet normal -0.000001 0.000000 1.000000
outer loop
vertex 0.424264 -0.424264 0.641434
vertex 0.554328 -0.229610 0.641434
vertex 0.600000 0.000001 0.641434
endloop
endfacet
facet normal 0.000001 0.000000 1.000000
outer loop
vertex 0.600000 0.000001 0.641434
vertex 0.554327 0.229611 0.641434
vertex 0.424264 0.424265 0.641434
endloop
endfacet
facet normal -0.000000 0.000000 1.000000
outer loop
vertex 0.424264 0.424265 0.641434
vertex 0.229609 0.554328 0.641434
vertex 0.000000 0.600000 0.641434
endloop
endfacet
facet normal 0.000000 0.000000 1.000000
outer loop
vertex 0.000000 0.600000 0.641434
vertex -0.424264 0.424264 0.641434
vertex -0.600000 0.000000 0.641434
endloop
endfacet
facet normal -0.000000 0.000000 1.000000
outer loop
vertex -0.600000 0.000000 0.641434
vertex -0.424264 -0.424264 0.641434
vertex 0.000000 -0.600000 0.641434
endloop
endfacet
facet normal 0.000000 0.000000 1.000000
outer loop
vertex 0.000000 -0.600000 0.641434
vertex 0.424264 -0.424264 0.641434
vertex 0.600000 0.000001 0.641434
endloop
endfacet
facet normal 0.000000 0.000000 1.000000
outer loop
vertex 0.600000 0.000001 0.641434
vertex 0.424264 0.424265 0.641434
vertex 0.000000 0.600000 0.641434
endloop
endfacet
facet normal -0.000000 0.000000 1.000000
outer loop
vertex 0.000000 0.600000 0.641434
vertex -0.600000 0.000000 0.641434
vertex 0.000000 -0.600000 0.641434
endloop
endfacet
facet normal 0.000000 0.000000 1.000000
outer loop
vertex 0.000000 -0.600000 0.641434
vertex 0.600000 0.000001 0.641434
vertex 0.000000 0.600000 0.641434
endloop
endfacet
facet normal -0.773009 -0.634396 0.000000
outer loop
vertex -0.498882 -0.333342 0.628858
vertex -0.424264 -0.424264 0.628858
vertex -0.424264 -0.424264 0.641434
endloop
endfacet
facet normal -0.773011 -0.634393 0.000000
outer loop
vertex -0.424264 -0.424264 0.641434
vertex -0.498882 -0.333342 0.641434
vertex -0.498882 -0.333342 0.628858
endloop
endfacet
facet normal 0.956940 0.290286 0.000000
outer loop
vertex 0.588471 0.117055 0.628858
vertex 0.554327 0.229611 0.628858
vertex 0.554327 0.229611 0.641434
endloop
endfacet
facet normal 0.956941 0.290284 0.000000
outer loop
vertex 0.554327 0.229611 0.641434
vertex 0.588471 0.117055 0.641434
vertex 0.588471 0.117055 0.628858
endloop
endfacet
facet normal -0.634392 -0.773012 0.000000
outer loop
vertex -0.424264 -0.424264 0.628858
vertex -0.333342 -0.498882 0.628858
vertex -0.333342 -0.498882 0.641434
endloop
endfacet
facet normal -0.634395 -0.773009 0.000000
outer loop
vertex -0.333342 -0.498882 0.641434
vertex -0.424264 -0.424264 0.641434
vertex -0.424264 -0.424264 0.628858
endloop
endfacet
facet normal 0.881921 0.471398 0.000000
outer loop
vertex 0.554327 0.229611 0.628858
vertex 0.498881 0.333343 0.628858
vertex 0.498881 0.333343 0.641434
endloop
endfacet
facet normal 0.881920 0.471398 0.000000
outer loop
vertex 0.498881 0.333343 0.641434
vertex 0.554327 0.229611 0.641434
vertex 0.554327 0.229611 0.628858
endloop
endfacet
facet normal -0.471397 -0.881921 0.000000
outer loop
vertex -0.333342 -0.498882 0.628858
vertex -0.229610 -0.554328 0.628858
vertex -0.229610 -0.554328 0.641434
endloop
endfacet
facet normal -0.471393 -0.881923 0.000000
outer loop
vertex -0.229610 -0.554328 0.641434
vertex -0.333342 -0.498882 0.641434
vertex -0.333342 -0.498882 0.628858
endloop
endfacet
facet normal -0.098017 0.995185 0.000000
outer loop
vertex 0.000000 0.600000 0.628858
vertex -0.117054 0.588471 0.628858
vertex -0.117054 0.588471 0.641434
endloop
endfacet
facet normal -0.098017 0.995185 0.000000
outer loop
vertex -0.117054 0.588471 0.641434
vertex 0.000000 0.600000 0.641434
vertex 0.000000 0.600000 0.628858
endloop
endfacet
facet normal 0.773008 0.634396 0.000000
outer loop
vertex 0.498881 0.333343 0.628858
vertex 0.424264 0.424265 0.628858
vertex 0.424264 0.424265 0.641434
endloop
endfacet
facet normal 0.773011 0.634393 0.000000
outer loop
vertex 0.424264 0.424265 0.641434
vertex 0.498881 0.333343 0.641434
vertex 0.498881 0.333343 0.628858
endloop
endfacet
facet normal -0.290284 -0.956941 0.000000
outer loop
vertex -0.229610 -0.554328 0.628858
vertex -0.117054 -0.588471 0.628858
vertex -0.117054 -0.588471 0.641434
endloop
endfacet
facet normal -0.290284 -0.956941 0.000000
outer loop
vertex -0.117054 -0.588471 0.641434
vertex -0.229610 -0.554328 0.641434
vertex -0.229610 -0.554328 0.628858
endloop
endfacet
facet normal -0.290284 0.956941 0.000000
outer loop
vertex -0.117054 0.588471 0.628858
vertex -0.229610 0.554328 0.628858
vertex -0.229610 0.554328 0.641434
endloop
endfacet
facet normal -0.290284 0.956940 0.000000
outer loop
vertex -0.229610 0.554328 0.641434
vertex -0.117054 0.588471 0.641434
vertex -0.117054 0.588471 0.628858
endloop
endfacet
facet normal 0.634394 0.773010 0.000000
outer loop
vertex 0.424264 0.424265 0.628858
vertex 0.333341 0.498882 0.628858
vertex 0.333341 0.498882 0.641434
endloop
endfacet
facet normal 0.634391 0.773012 0.000000
outer loop
vertex 0.333341 0.498882 0.641434
vertex 0.424264 0.424265 0.641434
vertex 0.424264 0.424265 0.628858
endloop
endfacet
facet normal -0.098017 -0.995185 0.000000
outer loop
vertex -0.117054 -0.588471 0.628858
vertex 0.000000 -0.600000 0.628858
vertex 0.000000 -0.600000 0.641434
endloop
endfacet
facet normal -0.098017 -0.995185 0.000000
outer loop
vertex 0.000000 -0.600000 0.641434
vertex -0.117054 -0.588471 0.641434
vertex -0.117054 -0.588471 0.628858
endloop
endfacet
facet normal -0.471393 0.881923 0.000000
outer loop
vertex -0.229610 0.554328 0.628858
vertex -0.333342 0.498882 0.628858
vertex -0.333342 0.498882 0.641434
endloop
endfacet
facet normal -0.471397 0.881921 0.000000
outer loop
vertex -0.333342 0.498882 0.641434
vertex -0.229610 0.554328 0.641434
vertex -0.229610 0.554328 0.628858
endloop
endfacet
facet normal 0.471397 0.881921 0.000000
outer loop
vertex 0.333341 0.498882 0.628858
vertex 0.229609 0.554328 0.628858
vertex 0.229609 0.554328 0.641434
endloop
endfacet
facet normal 0.471397 0.881921 0.000000
outer loop
vertex 0.229609 0.554328 0.641434
vertex 0.333341 0.498882 0.641434
vertex 0.333341 0.498882 0.628858
endloop
endfacet
facet normal 0.098018 -0.995185 0.000000
outer loop
vertex 0.000000 -0.600000 0.628858
vertex 0.117054 -0.588471 0.628858
vertex 0.117054 -0.588471 0.641434
endloop
endfacet
facet normal 0.098017 -0.995185 0.000000
outer loop
vertex 0.117054 -0.588471 0.641434
vertex 0.000000 -0.600000 0.641434
vertex 0.000000 -0.600000 0.628858
endloop
endfacet
facet normal -0.634395 0.773009 0.000000
outer loop
vertex -0.333342 0.498882 0.628858
vertex -0.424264 0.424264 0.628858
vertex -0.424264 0.424264 0.641434
endloop
endfacet
facet normal -0.634395 0.773009 0.000000
outer loop
vertex -0.424264 0.424264 0.641434
vertex -0.333342 0.498882 0.641434
vertex -0.333342 0.498882 0.628858
endloop
endfacet
facet normal 0.290282 0.956941 0.000000
outer loop
vertex 0.229609 0.554328 0.628858
vertex 0.117053 0.588471 0.628858
vertex 0.117053 0.588471 0.641434
endloop
endfacet
facet normal 0.290284 0.956941 0.000000
outer loop
vertex 0.117053 0.588471 0.641434
vertex 0.229609 0.554328 0.641434
vertex 0.229609 0.554328 0.628858
endloop
endfacet
facet normal 0.290286 -0.956940 0.000000
outer loop
vertex 0.117054 -0.588471 0.628858
vertex 0.229610 -0.554328 0.628858
vertex 0.229610 -0.554328 0.641434
endloop
endfacet
facet normal 0.290284 -0.956941 0.000000
outer loop
vertex 0.229610 -0.554328 0.641434
vertex 0.117054 -0.588471 0.641434
vertex 0.117054 -0.588471 0.628858
endloop
endfacet
facet normal -0.773009 0.634395 0.000000
outer loop
vertex -0.424264 0.424264 0.628858
vertex -0.498882 0.333342 0.628858
vertex -0.498882 0.333342 0.641434
endloop
endfacet
facet normal -0.773011 0.634393 0.000000
outer loop
vertex -0.498882 0.333342 0.641434
vertex -0.424264 0.424264 0.641434
vertex -0.424264 0.424264 0.628858
endloop
endfacet
facet normal 0.098016 0.995185 0.000000
outer loop
vertex 0.117053 0.588471 0.628858
vertex 0.000000 0.600000 0.628858
vertex 0.000000 0.600000 0.641434
endloop
endfacet
facet normal 0.098017 0.995185 0.000000
outer loop
vertex 0.000000 0.600000 0.641434
vertex 0.117053 0.588471 0.641434
vertex 0.117053 0.588471 0.628858
endloop
endfacet
facet normal 0.471397 -0.881921 0.000000
outer loop
vertex 0.229610 -0.554328 0.628858
vertex 0.333342 -0.498882 0.628858
vertex 0.333342 -0.498882 0.641434
endloop
endfacet
facet normal 0.471397 -0.881921 0.000000
outer loop
vertex 0.333342 -0.498882 0.641434
vertex 0.229610 -0.554328 0.641434
vertex 0.229610 -0.554328 0.628858
endloop
endfacet
facet normal -0.881921 0.471396 0.000000
outer loop
vertex -0.498882 0.333342 0.628858
vertex -0.554328 0.229610 0.628858
vertex -0.554328 0.229610 0.641434
endloop
endfacet
facet normal -0.881921 0.471397 0.000000
outer loop
vertex -0.554328 0.229610 0.641434
vertex -0.498882 0.333342 0.641434
vertex -0.498882 0.333342 0.628858
endloop
endfacet
facet normal 0.634392 -0.773012 0.000000
outer loop
vertex 0.333342 -0.498882 0.628858
vertex 0.424264 -0.424264 0.628858
vertex 0.424264 -0.424264 0.641434
endloop
endfacet
facet normal 0.634395 -0.773009 0.000000
outer loop
vertex 0.424264 -0.424264 0.641434
vertex 0.333342 -0.498882 0.641434
vertex 0.333342 -0.498882 0.628858
endloop
endfacet
facet normal -0.956940 0.290286 0.000000
outer loop
vertex -0.554328 0.229610 0.628858
vertex -0.588471 0.117054 0.628858
vertex -0.588471 0.117054 0.641434
endloop
endfacet
facet normal -0.956940 0.290286 0.000000
outer loop
vertex -0.588471 0.117054 0.641434
vertex -0.554328 0.229610 0.641434
vertex -0.554328 0.229610 0.628858
endloop
endfacet
facet normal 0.773011 -0.634393 0.000000
outer loop
vertex 0.424264 -0.424264 0.628858
vertex 0.498882 -0.333342 0.628858
vertex 0.498882 -0.333342 0.641434
endloop
endfacet
facet normal 0.773012 -0.634392 0.000000
outer loop
vertex 0.498882 -0.333342 0.641434
vertex 0.424264 -0.424264 0.641434
vertex 0.424264 -0.424264 0.628858
endloop
endfacet
facet normal -0.995185 0.098017 0.000000
outer loop
vertex -0.588471 0.117054 0.628858
vertex -0.600000 0.000000 0.628858
vertex -0.600000 0.000000 0.641434
endloop
endfacet
facet normal -0.995185 0.098017 0.000000
outer loop
vertex -0.600000 0.000000 0.641434
vertex -0.588471 0.117054 0.641434
vertex -0.588471 0.117054 0.628858
endloop
endfacet
facet normal 0.881923 -0.471393 0.000000
outer loop
vertex 0.498882 -0.333342 0.628858
vertex 0.554328 -0.229610 0.628858
vertex 0.554328 -0.229610 0.641434
endloop
endfacet
facet normal 0.881921 -0.471397 0.000000
outer loop
vertex 0.554328 -0.229610 0.641434
vertex 0.498882 -0.333342 0.641434
vertex 0.498882 -0.333342 0.628858
endloop
endfacet
facet normal -0.995185 -0.098018 0.000000
outer loop
vertex -0.600000 0.000000 0.628858
vertex -0.588471 -0.117054 0.628858
vertex -0.588471 -0.117054 0.641434
endloop
endfacet
facet normal -0.995185 -0.098016 0.000000
outer loop
vertex -0.588471 -0.117054 0.641434
vertex -0.600000 0.000000 0.641434
vertex -0.600000 0.000000 0.628858
endloop
endfacet
facet normal 0.956940 -0.290284 0.000000
outer loop
vertex 0.554328 -0.229610 0.628858
vertex 0.588471 -0.117054 0.628858
vertex 0.588471 -0.117054 0.641434
endloop
endfacet
facet normal 0.956941 -0.290282 0.000000
outer loop
vertex 0.588471 -0.117054 0.641434
vertex 0.554328 -0.229610 0.641434
vertex 0.554328 -0.229610 0.628858
endloop
endfacet
facet normal -0.956940 -0.290286 0.000000
outer loop
vertex -0.588471 -0.117054 0.628858
vertex -0.554328 -0.229610 0.628858
vertex -0.554328 -0.229610 0.641434
endloop
endfacet
facet normal -0.956940 -0.290285 0.000000
outer loop
vertex -0.554328 -0.229610 0.641434
vertex -0.588471 -0.117054 0.641434
vertex -0.588471 -0.117054 0.628858
endloop
endfacet
facet normal 0.995185 -0.098016 0.000000
outer loop
vertex 0.588471 -0.117054 0.628858
vertex 0.600000 0.000001 0.628858
vertex 0.600000 0.000001 0.641434
endloop
endfacet
facet normal 0.995185 -0.098017 0.000000
outer loop
vertex 0.600000 0.000001 0.641434
vertex 0.588471 -0.117054 0.641434
vertex 0.588471 -0.117054 0.628858
endloop
endfacet
facet normal -0.881921 -0.471397 0.000000
outer loop
vertex -0.554328 -0.229610 0.628858
vertex -0.498882 -0.333342 0.628858
vertex -0.498882 -0.333342 0.641434
endloop
endfacet
facet normal -0.881921 -0.471397 0.000000
outer loop
vertex -0.498882 -0.333342 0.641434
vertex -0.554328 -0.229610 0.641434
vertex -0.554328 -0.229610 0.628858
endloop
endfacet
facet normal 0.995185 0.098018 0.000000
outer loop
vertex 0.600000 0.000001 0.628858
vertex 0.588471 0.117055 0.628858
vertex 0.588471 0.117055 0.641434
endloop
endfacet
facet normal 0.995185 0.098018 0.000000
outer loop
vertex 0.588471 0.117055 0.641434
vertex 0.600000 0.000001 0.641434
vertex 0.600000 0.000001 0.628858
endloop
endfacet
endsolid Exported from Blender-2.79 (sub 0)