solid Exported from Blender-2.78 (sub 0)
facet normal -0.999986 0.000000 -0.005365
outer loop
vertex -0.546768 0.737439 0.000067
vertex -0.551477 0.729142 0.877712
vertex -0.551477 0.792593 0.877712
endloop
endfacet
facet normal -0.999986 0.000000 -0.005365
outer loop
vertex -0.551477 0.792593 0.877712
vertex -0.546768 0.787884 0.000067
vertex -0.546768 0.737439 0.000067
endloop
endfacet
facet normal 0.000000 0.999986 -0.005365
outer loop
vertex -0.546768 0.787884 0.000067
vertex -0.551477 0.792593 0.877712
vertex -0.488026 0.792593 0.877712
endloop
endfacet
facet normal 0.000000 0.999986 -0.005365
outer loop
vertex -0.488026 0.792593 0.877712
vertex -0.496322 0.787884 0.000067
vertex -0.546768 0.787884 0.000067
endloop
endfacet
facet normal 0.999955 0.000000 -0.009453
outer loop
vertex -0.496322 0.787884 0.000067
vertex -0.488026 0.792593 0.877712
vertex -0.488026 0.729142 0.877712
endloop
endfacet
facet normal 0.999955 0.000000 -0.009453
outer loop
vertex -0.488026 0.729142 0.877712
vertex -0.496322 0.737439 0.000067
vertex -0.496322 0.787884 0.000067
endloop
endfacet
facet normal 0.000000 -0.999955 -0.009453
outer loop
vertex -0.551477 0.729142 0.877712
vertex -0.546768 0.737439 0.000067
vertex -0.496322 0.737439 0.000067
endloop
endfacet
facet normal 0.000000 -0.999955 -0.009453
outer loop
vertex -0.496322 0.737439 0.000067
vertex -0.488026 0.729142 0.877712
vertex -0.551477 0.729142 0.877712
endloop
endfacet
facet normal 0.000000 0.000000 -1.000000
outer loop
vertex -0.496322 0.737439 0.000067
vertex -0.546768 0.737439 0.000067
vertex -0.546768 0.787884 0.000067
endloop
endfacet
facet normal 0.000000 0.000000 -1.000000
outer loop
vertex -0.546768 0.787884 0.000067
vertex -0.496322 0.787884 0.000067
vertex -0.496322 0.737439 0.000067
endloop
endfacet
facet normal 0.000000 0.000000 1.000000
outer loop
vertex -0.488026 0.792593 0.877712
vertex -0.551477 0.792593 0.877712
vertex -0.551477 0.729142 0.877712
endloop
endfacet
facet normal 0.000000 0.000000 1.000000
outer loop
vertex -0.551477 0.729142 0.877712
vertex -0.488026 0.729142 0.877712
vertex -0.488026 0.792593 0.877712
endloop
endfacet
facet normal -1.000000 0.000000 0.000000
outer loop
vertex -0.591163 0.000000 0.854137
vertex -0.591163 0.000000 0.887799
vertex -0.591163 0.830000 0.887799
endloop
endfacet
facet normal -1.000000 0.000000 0.000000
outer loop
vertex -0.591163 0.830000 0.887799
vertex -0.591163 0.830000 0.854137
vertex -0.591163 0.000000 0.854137
endloop
endfacet
facet normal 0.000000 0.000000 1.000000
outer loop
vertex -0.591163 0.830000 0.887799
vertex -0.591163 0.000000 0.887799
vertex 0.000000 0.000000 0.887799
endloop
endfacet
facet normal 0.000000 0.000000 1.000000
outer loop
vertex 0.000000 0.000000 0.887799
vertex 0.000000 0.830000 0.887799
vertex -0.591163 0.830000 0.887799
endloop
endfacet
facet normal 0.000000 0.000000 -1.000000
outer loop
vertex 0.000000 0.000000 0.854137
vertex -0.591163 0.000000 0.854137
vertex -0.591163 0.830000 0.854137
endloop
endfacet
facet normal 0.000000 0.000000 -1.000000
outer loop
vertex -0.591163 0.830000 0.854137
vertex 0.000000 0.830000 0.854137
vertex 0.000000 0.000000 0.854137
endloop
endfacet
facet normal 0.000000 1.000000 0.000000
outer loop
vertex -0.591163 0.830000 0.887799
vertex 0.000000 0.830000 0.887799
vertex 0.000000 0.830000 0.854137
endloop
endfacet
facet normal 0.000000 1.000000 0.000000
outer loop
vertex 0.000000 0.830000 0.854137
vertex -0.591163 0.830000 0.854137
vertex -0.591163 0.830000 0.887799
endloop
endfacet
facet normal 0.999986 0.000000 -0.005365
outer loop
vertex 0.546768 0.737439 0.000067
vertex 0.546768 0.787884 0.000067
vertex 0.551477 0.792593 0.877712
endloop
endfacet
facet normal 0.999986 0.000000 -0.005365
outer loop
vertex 0.551477 0.792593 0.877712
vertex 0.551477 0.729142 0.877712
vertex 0.546768 0.737439 0.000067
endloop
endfacet
facet normal 0.000000 0.999986 -0.005365
outer loop
vertex 0.546768 0.787884 0.000067
vertex 0.496322 0.787884 0.000067
vertex 0.488026 0.792593 0.877712
endloop
endfacet
facet normal 0.000000 0.999986 -0.005365
outer loop
vertex 0.488026 0.792593 0.877712
vertex 0.551477 0.792593 0.877712
vertex 0.546768 0.787884 0.000067
endloop
endfacet
facet normal -0.999955 0.000000 -0.009453
outer loop
vertex 0.496322 0.787884 0.000067
vertex 0.496322 0.737439 0.000067
vertex 0.488026 0.729142 0.877712
endloop
endfacet
facet normal -0.999955 0.000000 -0.009453
outer loop
vertex 0.488026 0.729142 0.877712
vertex 0.488026 0.792593 0.877712
vertex 0.496322 0.787884 0.000067
endloop
endfacet
facet normal 0.000000 -0.999955 -0.009453
outer loop
vertex 0.496322 0.737439 0.000067
vertex 0.546768 0.737439 0.000067
vertex 0.551477 0.729142 0.877712
endloop
endfacet
facet normal 0.000000 -0.999955 -0.009453
outer loop
vertex 0.551477 0.729142 0.877712
vertex 0.488026 0.729142 0.877712
vertex 0.496322 0.737439 0.000067
endloop
endfacet
facet normal 0.000000 0.000000 -1.000000
outer loop
vertex 0.546768 0.787884 0.000067
vertex 0.546768 0.737439 0.000067
vertex 0.496322 0.737439 0.000067
endloop
endfacet
facet normal 0.000000 0.000000 -1.000000
outer loop
vertex 0.496322 0.737439 0.000067
vertex 0.496322 0.787884 0.000067
vertex 0.546768 0.787884 0.000067
endloop
endfacet
facet normal 0.000000 0.000000 1.000000
outer loop
vertex 0.488026 0.792593 0.877712
vertex 0.488026 0.729142 0.877712
vertex 0.551477 0.729142 0.877712
endloop
endfacet
facet normal 0.000000 0.000000 1.000000
outer loop
vertex 0.551477 0.729142 0.877712
vertex 0.551477 0.792593 0.877712
vertex 0.488026 0.792593 0.877712
endloop
endfacet
facet normal 1.000000 0.000000 0.000000
outer loop
vertex 0.591163 0.000000 0.854137
vertex 0.591163 0.830000 0.854137
vertex 0.591163 0.830000 0.887799
endloop
endfacet
facet normal 1.000000 0.000000 0.000000
outer loop
vertex 0.591163 0.830000 0.887799
vertex 0.591163 0.000000 0.887799
vertex 0.591163 0.000000 0.854137
endloop
endfacet
facet normal 0.000000 0.000000 1.000000
outer loop
vertex 0.591163 0.830000 0.887799
vertex 0.000000 0.830000 0.887799
vertex 0.000000 0.000000 0.887799
endloop
endfacet
facet normal 0.000000 0.000000 1.000000
outer loop
vertex 0.000000 0.000000 0.887799
vertex 0.591163 0.000000 0.887799
vertex 0.591163 0.830000 0.887799
endloop
endfacet
facet normal -1.000000 0.000000 0.000000
outer loop
vertex 0.000000 0.000000 0.854137
vertex 0.000000 0.000000 0.887799
vertex 0.000000 0.830000 0.887799
endloop
endfacet
facet normal -1.000000 0.000000 0.000000
outer loop
vertex 0.000000 0.830000 0.887799
vertex 0.000000 0.830000 0.854137
vertex 0.000000 0.000000 0.854137
endloop
endfacet
facet normal 0.000000 0.000000 -1.000000
outer loop
vertex 0.000000 0.000000 0.854137
vertex 0.000000 0.830000 0.854137
vertex 0.591163 0.830000 0.854137
endloop
endfacet
facet normal 0.000000 0.000000 -1.000000
outer loop
vertex 0.591163 0.830000 0.854137
vertex 0.591163 0.000000 0.854137
vertex 0.000000 0.000000 0.854137
endloop
endfacet
facet normal 0.000000 1.000000 0.000000
outer loop
vertex 0.591163 0.830000 0.887799
vertex 0.591163 0.830000 0.854137
vertex 0.000000 0.830000 0.854137
endloop
endfacet
facet normal 0.000000 1.000000 0.000000
outer loop
vertex 0.000000 0.830000 0.854137
vertex 0.000000 0.830000 0.887799
vertex 0.591163 0.830000 0.887799
endloop
endfacet
facet normal -0.999986 0.000000 -0.005365
outer loop
vertex -0.546768 -0.737439 0.000067
vertex -0.546768 -0.787884 0.000067
vertex -0.551477 -0.792593 0.877712
endloop
endfacet
facet normal -0.999986 0.000000 -0.005365
outer loop
vertex -0.551477 -0.792593 0.877712
vertex -0.551477 -0.729142 0.877712
vertex -0.546768 -0.737439 0.000067
endloop
endfacet
facet normal 0.000000 -0.999986 -0.005365
outer loop
vertex -0.546768 -0.787884 0.000067
vertex -0.496322 -0.787884 0.000067
vertex -0.488026 -0.792593 0.877712
endloop
endfacet
facet normal 0.000000 -0.999986 -0.005365
outer loop
vertex -0.488026 -0.792593 0.877712
vertex -0.551477 -0.792593 0.877712
vertex -0.546768 -0.787884 0.000067
endloop
endfacet
facet normal 0.999955 0.000000 -0.009453
outer loop
vertex -0.496322 -0.787884 0.000067
vertex -0.496322 -0.737439 0.000067
vertex -0.488026 -0.729142 0.877712
endloop
endfacet
facet normal 0.999955 0.000000 -0.009453
outer loop
vertex -0.488026 -0.729142 0.877712
vertex -0.488026 -0.792593 0.877712
vertex -0.496322 -0.787884 0.000067
endloop
endfacet
facet normal 0.000000 0.999955 -0.009453
outer loop
vertex -0.496322 -0.737439 0.000067
vertex -0.546768 -0.737439 0.000067
vertex -0.551477 -0.729142 0.877712
endloop
endfacet
facet normal 0.000000 0.999955 -0.009453
outer loop
vertex -0.551477 -0.729142 0.877712
vertex -0.488026 -0.729142 0.877712
vertex -0.496322 -0.737439 0.000067
endloop
endfacet
facet normal 0.000000 0.000000 -1.000000
outer loop
vertex -0.546768 -0.787884 0.000067
vertex -0.546768 -0.737439 0.000067
vertex -0.496322 -0.737439 0.000067
endloop
endfacet
facet normal 0.000000 0.000000 -1.000000
outer loop
vertex -0.496322 -0.737439 0.000067
vertex -0.496322 -0.787884 0.000067
vertex -0.546768 -0.787884 0.000067
endloop
endfacet
facet normal 0.000000 0.000000 1.000000
outer loop
vertex -0.488026 -0.792593 0.877712
vertex -0.488026 -0.729142 0.877712
vertex -0.551477 -0.729142 0.877712
endloop
endfacet
facet normal 0.000000 0.000000 1.000000
outer loop
vertex -0.551477 -0.729142 0.877712
vertex -0.551477 -0.792593 0.877712
vertex -0.488026 -0.792593 0.877712
endloop
endfacet
facet normal -1.000000 0.000000 0.000000
outer loop
vertex -0.591163 0.000000 0.854137
vertex -0.591163 -0.830000 0.854137
vertex -0.591163 -0.830000 0.887799
endloop
endfacet
facet normal -1.000000 0.000000 0.000000
outer loop
vertex -0.591163 -0.830000 0.887799
vertex -0.591163 0.000000 0.887799
vertex -0.591163 0.000000 0.854137
endloop
endfacet
facet normal 0.000000 0.000000 1.000000
outer loop
vertex -0.591163 -0.830000 0.887799
vertex 0.000000 -0.830000 0.887799
vertex 0.000000 0.000000 0.887799
endloop
endfacet
facet normal 0.000000 0.000000 1.000000
outer loop
vertex 0.000000 0.000000 0.887799
vertex -0.591163 0.000000 0.887799
vertex -0.591163 -0.830000 0.887799
endloop
endfacet
facet normal 0.000000 0.000000 -1.000000
outer loop
vertex 0.000000 0.000000 0.854137
vertex 0.000000 -0.830000 0.854137
vertex -0.591163 -0.830000 0.854137
endloop
endfacet
facet normal 0.000000 0.000000 -1.000000
outer loop
vertex -0.591163 -0.830000 0.854137
vertex -0.591163 0.000000 0.854137
vertex 0.000000 0.000000 0.854137
endloop
endfacet
facet normal 0.000000 -1.000000 0.000000
outer loop
vertex -0.591163 -0.830000 0.887799
vertex -0.591163 -0.830000 0.854137
vertex 0.000000 -0.830000 0.854137
endloop
endfacet
facet normal 0.000000 -1.000000 0.000000
outer loop
vertex 0.000000 -0.830000 0.854137
vertex 0.000000 -0.830000 0.887799
vertex -0.591163 -0.830000 0.887799
endloop
endfacet
facet normal 0.000000 1.000000 0.000000
outer loop
vertex -0.591163 0.000000 0.854137
vertex -0.591163 0.000000 0.887799
vertex 0.000000 0.000000 0.887799
endloop
endfacet
facet normal 0.000000 1.000000 0.000000
outer loop
vertex 0.000000 0.000000 0.887799
vertex 0.000000 0.000000 0.854137
vertex -0.591163 0.000000 0.854137
endloop
endfacet
facet normal 0.999986 0.000000 -0.005365
outer loop
vertex 0.546768 -0.737439 0.000067
vertex 0.551477 -0.729142 0.877712
vertex 0.551477 -0.792593 0.877712
endloop
endfacet
facet normal 0.999986 0.000000 -0.005365
outer loop
vertex 0.551477 -0.792593 0.877712
vertex 0.546768 -0.787884 0.000067
vertex 0.546768 -0.737439 0.000067
endloop
endfacet
facet normal 0.000000 -0.999986 -0.005365
outer loop
vertex 0.546768 -0.787884 0.000067
vertex 0.551477 -0.792593 0.877712
vertex 0.488026 -0.792593 0.877712
endloop
endfacet
facet normal 0.000000 -0.999986 -0.005365
outer loop
vertex 0.488026 -0.792593 0.877712
vertex 0.496322 -0.787884 0.000067
vertex 0.546768 -0.787884 0.000067
endloop
endfacet
facet normal -0.999955 0.000000 -0.009453
outer loop
vertex 0.496322 -0.787884 0.000067
vertex 0.488026 -0.792593 0.877712
vertex 0.488026 -0.729142 0.877712
endloop
endfacet
facet normal -0.999955 0.000000 -0.009453
outer loop
vertex 0.488026 -0.729142 0.877712
vertex 0.496322 -0.737439 0.000067
vertex 0.496322 -0.787884 0.000067
endloop
endfacet
facet normal 0.000000 0.999955 -0.009453
outer loop
vertex 0.496322 -0.737439 0.000067
vertex 0.488026 -0.729142 0.877712
vertex 0.551477 -0.729142 0.877712
endloop
endfacet
facet normal 0.000000 0.999955 -0.009453
outer loop
vertex 0.551477 -0.729142 0.877712
vertex 0.546768 -0.737439 0.000067
vertex 0.496322 -0.737439 0.000067
endloop
endfacet
facet normal 0.000000 0.000000 -1.000000
outer loop
vertex 0.546768 -0.787884 0.000067
vertex 0.496322 -0.787884 0.000067
vertex 0.496322 -0.737439 0.000067
endloop
endfacet
facet normal 0.000000 0.000000 -1.000000
outer loop
vertex 0.496322 -0.737439 0.000067
vertex 0.546768 -0.737439 0.000067
vertex 0.546768 -0.787884 0.000067
endloop
endfacet
facet normal 0.000000 0.000000 1.000000
outer loop
vertex 0.488026 -0.792593 0.877712
vertex 0.551477 -0.792593 0.877712
vertex 0.551477 -0.729142 0.877712
endloop
endfacet
facet normal 0.000000 0.000000 1.000000
outer loop
vertex 0.551477 -0.729142 0.877712
vertex 0.488026 -0.729142 0.877712
vertex 0.488026 -0.792593 0.877712
endloop
endfacet
facet normal 1.000000 0.000000 0.000000
outer loop
vertex 0.591163 0.000000 0.854137
vertex 0.591163 0.000000 0.887799
vertex 0.591163 -0.830000 0.887799
endloop
endfacet
facet normal 1.000000 0.000000 0.000000
outer loop
vertex 0.591163 -0.830000 0.887799
vertex 0.591163 -0.830000 0.854137
vertex 0.591163 0.000000 0.854137
endloop
endfacet
facet normal 0.000000 0.000000 1.000000
outer loop
vertex 0.591163 -0.830000 0.887799
vertex 0.591163 0.000000 0.887799
vertex 0.000000 0.000000 0.887799
endloop
endfacet
facet normal 0.000000 0.000000 1.000000
outer loop
vertex 0.000000 0.000000 0.887799
vertex 0.000000 -0.830000 0.887799
vertex 0.591163 -0.830000 0.887799
endloop
endfacet
facet normal -1.000000 0.000000 0.000000
outer loop
vertex 0.000000 0.000000 0.854137
vertex 0.000000 -0.830000 0.854137
vertex 0.000000 -0.830000 0.887799
endloop
endfacet
facet normal -1.000000 0.000000 0.000000
outer loop
vertex 0.000000 -0.830000 0.887799
vertex 0.000000 0.000000 0.887799
vertex 0.000000 0.000000 0.854137
endloop
endfacet
facet normal 0.000000 0.000000 -1.000000
outer loop
vertex 0.000000 0.000000 0.854137
vertex 0.591163 0.000000 0.854137
vertex 0.591163 -0.830000 0.854137
endloop
endfacet
facet normal 0.000000 0.000000 -1.000000
outer loop
vertex 0.591163 -0.830000 0.854137
vertex 0.000000 -0.830000 0.854137
vertex 0.000000 0.000000 0.854137
endloop
endfacet
facet normal 0.000000 -1.000000 0.000000
outer loop
vertex 0.591163 -0.830000 0.887799
vertex 0.000000 -0.830000 0.887799
vertex 0.000000 -0.830000 0.854137
endloop
endfacet
facet normal 0.000000 -1.000000 0.000000
outer loop
vertex 0.000000 -0.830000 0.854137
vertex 0.591163 -0.830000 0.854137
vertex 0.591163 -0.830000 0.887799
endloop
endfacet
facet normal 0.000000 1.000000 0.000000
outer loop
vertex 0.591163 0.000000 0.854137
vertex 0.000000 0.000000 0.854137
vertex 0.000000 0.000000 0.887799
endloop
endfacet
facet normal 0.000000 1.000000 0.000000
outer loop
vertex 0.000000 0.000000 0.887799
vertex 0.591163 0.000000 0.887799
vertex 0.591163 0.000000 0.854137
endloop
endfacet
endsolid Exported from Blender-2.78 (sub 0)
