solid Exported from Blender-2.79 (sub 0)
facet normal 0.000000 0.000000 1.000000
outer loop
vertex 0.124578 0.003304 1.185661
vertex -0.108956 0.003304 1.185661
vertex -0.108956 -0.005274 1.185661
endloop
endfacet
facet normal 0.000000 0.000000 1.000000
outer loop
vertex -0.108956 -0.005274 1.185661
vertex 0.124578 -0.005274 1.185661
vertex 0.124578 0.003304 1.185661
endloop
endfacet
facet normal 0.000000 0.000000 1.000000
outer loop
vertex -0.006260 0.115782 1.185661
vertex -0.006260 -0.117751 1.185661
vertex 0.002318 -0.117751 1.185661
endloop
endfacet
facet normal 0.000000 0.000000 1.000000
outer loop
vertex 0.002318 -0.117751 1.185661
vertex 0.002318 0.115782 1.185661
vertex -0.006260 0.115782 1.185661
endloop
endfacet
facet normal 0.163319 0.821055 0.546988
outer loop
vertex 0.000000 0.270438 1.024844
vertex -0.000000 0.086851 1.300416
vertex 0.033237 0.080240 1.300416
endloop
endfacet
facet normal 0.163318 0.821055 0.546988
outer loop
vertex 0.033237 0.080240 1.300416
vertex 0.103492 0.249852 1.024844
vertex 0.000000 0.270438 1.024844
endloop
endfacet
facet normal 0.465088 0.696058 0.546989
outer loop
vertex 0.103492 0.249852 1.024844
vertex 0.033237 0.080240 1.300416
vertex 0.061413 0.061413 1.300416
endloop
endfacet
facet normal 0.465090 0.696057 0.546988
outer loop
vertex 0.061413 0.061413 1.300416
vertex 0.191228 0.191228 1.024844
vertex 0.103492 0.249852 1.024844
endloop
endfacet
facet normal 0.696056 0.465091 0.546989
outer loop
vertex 0.191228 0.191228 1.024844
vertex 0.061413 0.061413 1.300416
vertex 0.080240 0.033237 1.300416
endloop
endfacet
facet normal 0.696057 0.465090 0.546988
outer loop
vertex 0.080240 0.033237 1.300416
vertex 0.249852 0.103492 1.024844
vertex 0.191228 0.191228 1.024844
endloop
endfacet
facet normal 0.821055 0.163318 0.546988
outer loop
vertex 0.249852 0.103492 1.024844
vertex 0.080240 0.033237 1.300416
vertex 0.086851 0.000000 1.300416
endloop
endfacet
facet normal 0.821055 0.163318 0.546988
outer loop
vertex 0.086851 0.000000 1.300416
vertex 0.270438 0.000000 1.024844
vertex 0.249852 0.103492 1.024844
endloop
endfacet
facet normal 0.821055 -0.163318 0.546988
outer loop
vertex 0.270438 0.000000 1.024844
vertex 0.086851 0.000000 1.300416
vertex 0.080240 -0.033237 1.300416
endloop
endfacet
facet normal 0.821055 -0.163318 0.546988
outer loop
vertex 0.080240 -0.033237 1.300416
vertex 0.249852 -0.103492 1.024844
vertex 0.270438 0.000000 1.024844
endloop
endfacet
facet normal 0.696056 -0.465091 0.546989
outer loop
vertex 0.249852 -0.103492 1.024844
vertex 0.080240 -0.033237 1.300416
vertex 0.061413 -0.061413 1.300416
endloop
endfacet
facet normal 0.696057 -0.465090 0.546988
outer loop
vertex 0.061413 -0.061413 1.300416
vertex 0.191228 -0.191228 1.024844
vertex 0.249852 -0.103492 1.024844
endloop
endfacet
facet normal 0.465090 -0.696057 0.546988
outer loop
vertex 0.191228 -0.191228 1.024844
vertex 0.061413 -0.061413 1.300416
vertex 0.033237 -0.080240 1.300416
endloop
endfacet
facet normal 0.465090 -0.696057 0.546988
outer loop
vertex 0.033237 -0.080240 1.300416
vertex 0.103492 -0.249852 1.024844
vertex 0.191228 -0.191228 1.024844
endloop
endfacet
facet normal 0.163318 -0.821055 0.546988
outer loop
vertex 0.103492 -0.249852 1.024844
vertex 0.033237 -0.080240 1.300416
vertex -0.000000 -0.086851 1.300416
endloop
endfacet
facet normal 0.163317 -0.821055 0.546988
outer loop
vertex -0.000000 -0.086851 1.300416
vertex -0.000000 -0.270438 1.024844
vertex 0.103492 -0.249852 1.024844
endloop
endfacet
facet normal -0.163318 -0.821055 0.546988
outer loop
vertex -0.000000 -0.270438 1.024844
vertex -0.000000 -0.086851 1.300416
vertex -0.033237 -0.080240 1.300416
endloop
endfacet
facet normal -0.163318 -0.821055 0.546988
outer loop
vertex -0.033237 -0.080240 1.300416
vertex -0.103492 -0.249852 1.024844
vertex -0.000000 -0.270438 1.024844
endloop
endfacet
facet normal -0.465089 -0.696057 0.546988
outer loop
vertex -0.103492 -0.249852 1.024844
vertex -0.033237 -0.080240 1.300416
vertex -0.061413 -0.061413 1.300416
endloop
endfacet
facet normal -0.465091 -0.696057 0.546988
outer loop
vertex -0.061413 -0.061413 1.300416
vertex -0.191228 -0.191228 1.024844
vertex -0.103492 -0.249852 1.024844
endloop
endfacet
facet normal -0.696056 -0.465091 0.546988
outer loop
vertex -0.191228 -0.191228 1.024844
vertex -0.061413 -0.061413 1.300416
vertex -0.080240 -0.033237 1.300416
endloop
endfacet
facet normal -0.696057 -0.465090 0.546988
outer loop
vertex -0.080240 -0.033237 1.300416
vertex -0.249852 -0.103492 1.024844
vertex -0.191228 -0.191228 1.024844
endloop
endfacet
facet normal -0.821055 -0.163318 0.546989
outer loop
vertex -0.249852 -0.103492 1.024844
vertex -0.080240 -0.033237 1.300416
vertex -0.086851 -0.000000 1.300416
endloop
endfacet
facet normal -0.821055 -0.163318 0.546988
outer loop
vertex -0.086851 -0.000000 1.300416
vertex -0.270437 -0.000000 1.024844
vertex -0.249852 -0.103492 1.024844
endloop
endfacet
facet normal -0.821055 0.163319 0.546988
outer loop
vertex -0.270437 -0.000000 1.024844
vertex -0.086851 -0.000000 1.300416
vertex -0.080240 0.033237 1.300416
endloop
endfacet
facet normal -0.821055 0.163318 0.546988
outer loop
vertex -0.080240 0.033237 1.300416
vertex -0.249852 0.103492 1.024844
vertex -0.270437 -0.000000 1.024844
endloop
endfacet
facet normal -0.696057 0.465091 0.546988
outer loop
vertex -0.249852 0.103492 1.024844
vertex -0.080240 0.033237 1.300416
vertex -0.061413 0.061413 1.300416
endloop
endfacet
facet normal -0.696057 0.465090 0.546988
outer loop
vertex -0.061413 0.061413 1.300416
vertex -0.191228 0.191228 1.024844
vertex -0.249852 0.103492 1.024844
endloop
endfacet
facet normal -0.465089 0.696057 0.546989
outer loop
vertex -0.191228 0.191228 1.024844
vertex -0.061413 0.061413 1.300416
vertex -0.033237 0.080240 1.300416
endloop
endfacet
facet normal -0.465091 0.696057 0.546988
outer loop
vertex -0.033237 0.080240 1.300416
vertex -0.103492 0.249852 1.024844
vertex -0.191228 0.191228 1.024844
endloop
endfacet
facet normal -0.163316 0.821055 0.546988
outer loop
vertex -0.103492 0.249852 1.024844
vertex -0.033237 0.080240 1.300416
vertex -0.000000 0.086851 1.300416
endloop
endfacet
facet normal -0.163319 0.821055 0.546988
outer loop
vertex -0.000000 0.086851 1.300416
vertex 0.000000 0.270438 1.024844
vertex -0.103492 0.249852 1.024844
endloop
endfacet
facet normal -0.133480 0.671054 0.729294
outer loop
vertex -0.090706 0.218983 1.055588
vertex 0.000000 0.237025 1.055588
vertex 0.000000 0.270438 1.024844
endloop
endfacet
facet normal -0.133480 0.671054 0.729294
outer loop
vertex 0.000000 0.270438 1.024844
vertex -0.103492 0.249852 1.024844
vertex -0.090706 0.218983 1.055588
endloop
endfacet
facet normal -0.380122 0.568892 0.729294
outer loop
vertex -0.167602 0.167602 1.055588
vertex -0.090706 0.218983 1.055588
vertex -0.103492 0.249852 1.024844
endloop
endfacet
facet normal -0.380122 0.568892 0.729294
outer loop
vertex -0.103492 0.249852 1.024844
vertex -0.191228 0.191228 1.024844
vertex -0.167602 0.167602 1.055588
endloop
endfacet
facet normal -0.568891 0.380122 0.729294
outer loop
vertex -0.218983 0.090706 1.055588
vertex -0.167602 0.167602 1.055588
vertex -0.191228 0.191228 1.024844
endloop
endfacet
facet normal -0.568892 0.380121 0.729294
outer loop
vertex -0.191228 0.191228 1.024844
vertex -0.249852 0.103492 1.024844
vertex -0.218983 0.090706 1.055588
endloop
endfacet
facet normal -0.671055 0.133481 0.729293
outer loop
vertex -0.237025 -0.000000 1.055588
vertex -0.218983 0.090706 1.055588
vertex -0.249852 0.103492 1.024844
endloop
endfacet
facet normal -0.671053 0.133481 0.729295
outer loop
vertex -0.249852 0.103492 1.024844
vertex -0.270437 -0.000000 1.024844
vertex -0.237025 -0.000000 1.055588
endloop
endfacet
facet normal -0.671055 -0.133481 0.729293
outer loop
vertex -0.218983 -0.090706 1.055588
vertex -0.237025 -0.000000 1.055588
vertex -0.270437 -0.000000 1.024844
endloop
endfacet
facet normal -0.671054 -0.133481 0.729294
outer loop
vertex -0.270437 -0.000000 1.024844
vertex -0.249852 -0.103492 1.024844
vertex -0.218983 -0.090706 1.055588
endloop
endfacet
facet normal -0.568891 -0.380122 0.729294
outer loop
vertex -0.167602 -0.167602 1.055588
vertex -0.218983 -0.090706 1.055588
vertex -0.249852 -0.103492 1.024844
endloop
endfacet
facet normal -0.568892 -0.380122 0.729294
outer loop
vertex -0.249852 -0.103492 1.024844
vertex -0.191228 -0.191228 1.024844
vertex -0.167602 -0.167602 1.055588
endloop
endfacet
facet normal -0.380123 -0.568892 0.729294
outer loop
vertex -0.090706 -0.218983 1.055588
vertex -0.167602 -0.167602 1.055588
vertex -0.191228 -0.191228 1.024844
endloop
endfacet
facet normal -0.380121 -0.568892 0.729294
outer loop
vertex -0.191228 -0.191228 1.024844
vertex -0.103492 -0.249852 1.024844
vertex -0.090706 -0.218983 1.055588
endloop
endfacet
facet normal -0.133482 -0.671054 0.729294
outer loop
vertex -0.000000 -0.237025 1.055588
vertex -0.090706 -0.218983 1.055588
vertex -0.103492 -0.249852 1.024844
endloop
endfacet
facet normal -0.133482 -0.671054 0.729294
outer loop
vertex -0.103492 -0.249852 1.024844
vertex -0.000000 -0.270438 1.024844
vertex -0.000000 -0.237025 1.055588
endloop
endfacet
facet normal 0.133480 -0.671054 0.729294
outer loop
vertex 0.090706 -0.218983 1.055588
vertex -0.000000 -0.237025 1.055588
vertex -0.000000 -0.270438 1.024844
endloop
endfacet
facet normal 0.133479 -0.671054 0.729294
outer loop
vertex -0.000000 -0.270438 1.024844
vertex 0.103492 -0.249852 1.024844
vertex 0.090706 -0.218983 1.055588
endloop
endfacet
facet normal 0.380122 -0.568892 0.729294
outer loop
vertex 0.167602 -0.167602 1.055588
vertex 0.090706 -0.218983 1.055588
vertex 0.103492 -0.249852 1.024844
endloop
endfacet
facet normal 0.380122 -0.568892 0.729294
outer loop
vertex 0.103492 -0.249852 1.024844
vertex 0.191228 -0.191228 1.024844
vertex 0.167602 -0.167602 1.055588
endloop
endfacet
facet normal 0.568893 -0.380121 0.729293
outer loop
vertex 0.218983 -0.090706 1.055588
vertex 0.167602 -0.167602 1.055588
vertex 0.191228 -0.191228 1.024844
endloop
endfacet
facet normal 0.568892 -0.380122 0.729294
outer loop
vertex 0.191228 -0.191228 1.024844
vertex 0.249852 -0.103492 1.024844
vertex 0.218983 -0.090706 1.055588
endloop
endfacet
facet normal 0.671055 -0.133481 0.729293
outer loop
vertex 0.237025 -0.000000 1.055588
vertex 0.218983 -0.090706 1.055588
vertex 0.249852 -0.103492 1.024844
endloop
endfacet
facet normal 0.671054 -0.133481 0.729294
outer loop
vertex 0.249852 -0.103492 1.024844
vertex 0.270438 0.000000 1.024844
vertex 0.237025 -0.000000 1.055588
endloop
endfacet
facet normal 0.671053 0.133481 0.729295
outer loop
vertex 0.218983 0.090706 1.055588
vertex 0.237025 -0.000000 1.055588
vertex 0.270438 0.000000 1.024844
endloop
endfacet
facet normal 0.671054 0.133481 0.729294
outer loop
vertex 0.270438 0.000000 1.024844
vertex 0.249852 0.103492 1.024844
vertex 0.218983 0.090706 1.055588
endloop
endfacet
facet normal 0.568893 0.380121 0.729293
outer loop
vertex 0.167602 0.167602 1.055588
vertex 0.218983 0.090706 1.055588
vertex 0.249852 0.103492 1.024844
endloop
endfacet
facet normal 0.568892 0.380122 0.729294
outer loop
vertex 0.249852 0.103492 1.024844
vertex 0.191228 0.191228 1.024844
vertex 0.167602 0.167602 1.055588
endloop
endfacet
facet normal 0.133480 0.671054 0.729294
outer loop
vertex 0.000000 0.237025 1.055588
vertex 0.090706 0.218983 1.055588
vertex 0.103492 0.249852 1.024844
endloop
endfacet
facet normal 0.133480 0.671054 0.729294
outer loop
vertex 0.103492 0.249852 1.024844
vertex 0.000000 0.270438 1.024844
vertex 0.000000 0.237025 1.055588
endloop
endfacet
facet normal 0.380121 0.568892 0.729294
outer loop
vertex 0.090706 0.218983 1.055588
vertex 0.167602 0.167602 1.055588
vertex 0.191228 0.191228 1.024844
endloop
endfacet
facet normal 0.380122 0.568892 0.729293
outer loop
vertex 0.191228 0.191228 1.024844
vertex 0.103492 0.249852 1.024844
vertex 0.090706 0.218983 1.055588
endloop
endfacet
facet normal 0.162829 -0.818589 0.550816
outer loop
vertex -0.027409 0.066171 1.277784
vertex -0.000000 0.071623 1.277784
vertex -0.000000 0.086851 1.300416
endloop
endfacet
facet normal 0.162827 -0.818589 0.550817
outer loop
vertex -0.000000 0.086851 1.300416
vertex -0.033237 0.080240 1.300416
vertex -0.027409 0.066171 1.277784
endloop
endfacet
facet normal 0.463695 -0.693966 0.550816
outer loop
vertex -0.050645 0.050645 1.277784
vertex -0.027409 0.066171 1.277784
vertex -0.033237 0.080240 1.300416
endloop
endfacet
facet normal 0.463691 -0.693967 0.550818
outer loop
vertex -0.033237 0.080240 1.300416
vertex -0.061413 0.061413 1.300416
vertex -0.050645 0.050645 1.277784
endloop
endfacet
facet normal 0.693962 -0.463696 0.550820
outer loop
vertex -0.066171 0.027409 1.277784
vertex -0.050645 0.050645 1.277784
vertex -0.061413 0.061413 1.300416
endloop
endfacet
facet normal 0.693968 -0.463693 0.550815
outer loop
vertex -0.061413 0.061413 1.300416
vertex -0.080240 0.033237 1.300416
vertex -0.066171 0.027409 1.277784
endloop
endfacet
facet normal 0.818590 -0.162827 0.550816
outer loop
vertex -0.071623 -0.000000 1.277784
vertex -0.066171 0.027409 1.277784
vertex -0.080240 0.033237 1.300416
endloop
endfacet
facet normal 0.818590 -0.162827 0.550815
outer loop
vertex -0.080240 0.033237 1.300416
vertex -0.086851 -0.000000 1.300416
vertex -0.071623 -0.000000 1.277784
endloop
endfacet
facet normal 0.818589 0.162827 0.550817
outer loop
vertex -0.066171 -0.027409 1.277784
vertex -0.071623 -0.000000 1.277784
vertex -0.086851 -0.000000 1.300416
endloop
endfacet
facet normal 0.818586 0.162829 0.550821
outer loop
vertex -0.086851 -0.000000 1.300416
vertex -0.080240 -0.033237 1.300416
vertex -0.066171 -0.027409 1.277784
endloop
endfacet
facet normal 0.693966 0.463695 0.550817
outer loop
vertex -0.050645 -0.050645 1.277784
vertex -0.066171 -0.027409 1.277784
vertex -0.080240 -0.033237 1.300416
endloop
endfacet
facet normal 0.693965 0.463694 0.550818
outer loop
vertex -0.080240 -0.033237 1.300416
vertex -0.061413 -0.061413 1.300416
vertex -0.050645 -0.050645 1.277784
endloop
endfacet
facet normal 0.463693 0.693966 0.550817
outer loop
vertex -0.027409 -0.066171 1.277784
vertex -0.050645 -0.050645 1.277784
vertex -0.061413 -0.061413 1.300416
endloop
endfacet
facet normal 0.463694 0.693966 0.550816
outer loop
vertex -0.061413 -0.061413 1.300416
vertex -0.033237 -0.080240 1.300416
vertex -0.027409 -0.066171 1.277784
endloop
endfacet
facet normal 0.162829 0.818589 0.550816
outer loop
vertex -0.000000 -0.071623 1.277784
vertex -0.027409 -0.066171 1.277784
vertex -0.033237 -0.080240 1.300416
endloop
endfacet
facet normal 0.162827 0.818589 0.550817
outer loop
vertex -0.033237 -0.080240 1.300416
vertex -0.000000 -0.086851 1.300416
vertex -0.000000 -0.071623 1.277784
endloop
endfacet
facet normal -0.162829 0.818589 0.550817
outer loop
vertex 0.027409 -0.066171 1.277784
vertex -0.000000 -0.071623 1.277784
vertex -0.000000 -0.086851 1.300416
endloop
endfacet
facet normal -0.162827 0.818589 0.550817
outer loop
vertex -0.000000 -0.086851 1.300416
vertex 0.033237 -0.080240 1.300416
vertex 0.027409 -0.066171 1.277784
endloop
endfacet
facet normal -0.463691 0.693967 0.550818
outer loop
vertex 0.050645 -0.050645 1.277784
vertex 0.027409 -0.066171 1.277784
vertex 0.033237 -0.080240 1.300416
endloop
endfacet
facet normal -0.463697 0.693965 0.550816
outer loop
vertex 0.033237 -0.080240 1.300416
vertex 0.061413 -0.061413 1.300416
vertex 0.050645 -0.050645 1.277784
endloop
endfacet
facet normal -0.693967 0.463694 0.550816
outer loop
vertex 0.066171 -0.027409 1.277784
vertex 0.050645 -0.050645 1.277784
vertex 0.061413 -0.061413 1.300416
endloop
endfacet
facet normal -0.693965 0.463695 0.550818
outer loop
vertex 0.061413 -0.061413 1.300416
vertex 0.080240 -0.033237 1.300416
vertex 0.066171 -0.027409 1.277784
endloop
endfacet
facet normal -0.818592 0.162826 0.550813
outer loop
vertex 0.071623 -0.000000 1.277784
vertex 0.066171 -0.027409 1.277784
vertex 0.080240 -0.033237 1.300416
endloop
endfacet
facet normal -0.818590 0.162827 0.550816
outer loop
vertex 0.080240 -0.033237 1.300416
vertex 0.086851 0.000000 1.300416
vertex 0.071623 -0.000000 1.277784
endloop
endfacet
facet normal -0.818590 -0.162828 0.550816
outer loop
vertex 0.066171 0.027409 1.277784
vertex 0.071623 -0.000000 1.277784
vertex 0.086851 0.000000 1.300416
endloop
endfacet
facet normal -0.818586 -0.162829 0.550821
outer loop
vertex 0.086851 0.000000 1.300416
vertex 0.080240 0.033237 1.300416
vertex 0.066171 0.027409 1.277784
endloop
endfacet
facet normal -0.693965 -0.463695 0.550818
outer loop
vertex 0.050645 0.050645 1.277784
vertex 0.066171 0.027409 1.277784
vertex 0.080240 0.033237 1.300416
endloop
endfacet
facet normal -0.693965 -0.463694 0.550818
outer loop
vertex 0.080240 0.033237 1.300416
vertex 0.061413 0.061413 1.300416
vertex 0.050645 0.050645 1.277784
endloop
endfacet
facet normal -0.162824 -0.818589 0.550817
outer loop
vertex -0.000000 0.071623 1.277784
vertex 0.027409 0.066171 1.277784
vertex 0.033237 0.080240 1.300416
endloop
endfacet
facet normal -0.162827 -0.818589 0.550817
outer loop
vertex 0.033237 0.080240 1.300416
vertex -0.000000 0.086851 1.300416
vertex -0.000000 0.071623 1.277784
endloop
endfacet
facet normal -0.463695 -0.693966 0.550817
outer loop
vertex 0.027409 0.066171 1.277784
vertex 0.050645 0.050645 1.277784
vertex 0.061413 0.061413 1.300416
endloop
endfacet
facet normal -0.463691 -0.693968 0.550817
outer loop
vertex 0.061413 0.061413 1.300416
vertex 0.033237 0.080240 1.300416
vertex 0.027409 0.066171 1.277784
endloop
endfacet
facet normal -0.000000 0.000000 -1.000000
outer loop
vertex -0.014686 -0.000000 0.020000
vertex -0.010384 0.010384 0.020000
vertex 0.000000 0.014686 0.020000
endloop
endfacet
facet normal 0.000000 0.000000 -1.000000
outer loop
vertex 0.000000 0.014686 0.020000
vertex 0.010384 0.010384 0.020000
vertex 0.014686 -0.000000 0.020000
endloop
endfacet
facet normal 0.000000 0.000000 -1.000000
outer loop
vertex 0.014686 -0.000000 0.020000
vertex 0.010384 -0.010384 0.020000
vertex -0.000000 -0.014686 0.020000
endloop
endfacet
facet normal 0.000000 0.000000 -1.000000
outer loop
vertex -0.000000 -0.014686 0.020000
vertex -0.010384 -0.010384 0.020000
vertex -0.014686 -0.000000 0.020000
endloop
endfacet
facet normal 0.000000 0.000000 -1.000000
outer loop
vertex -0.014686 -0.000000 0.020000
vertex 0.000000 0.014686 0.020000
vertex 0.014686 -0.000000 0.020000
endloop
endfacet
facet normal 0.000000 0.000000 -1.000000
outer loop
vertex 0.014686 -0.000000 0.020000
vertex -0.000000 -0.014686 0.020000
vertex -0.014686 -0.000000 0.020000
endloop
endfacet
facet normal 0.000021 0.000000 1.000000
outer loop
vertex 0.000000 0.014686 1.221375
vertex -0.010384 0.010384 1.221375
vertex -0.014686 -0.000000 1.221375
endloop
endfacet
facet normal -0.000010 0.000000 1.000000
outer loop
vertex -0.014686 -0.000000 1.221375
vertex -0.010384 -0.010384 1.221375
vertex -0.000000 -0.014686 1.221375
endloop
endfacet
facet normal 0.000000 0.000000 1.000000
outer loop
vertex -0.000000 -0.014686 1.221375
vertex 0.010384 -0.010384 1.221375
vertex 0.014686 -0.000000 1.221375
endloop
endfacet
facet normal -0.000010 0.000000 1.000000
outer loop
vertex 0.014686 -0.000000 1.221375
vertex 0.010384 0.010384 1.221375
vertex 0.000000 0.014686 1.221375
endloop
endfacet
facet normal 0.000000 0.000000 1.000000
outer loop
vertex 0.000000 0.014686 1.221375
vertex -0.014686 -0.000000 1.221375
vertex -0.000000 -0.014686 1.221375
endloop
endfacet
facet normal 0.000000 0.000000 1.000000
outer loop
vertex -0.000000 -0.014686 1.221375
vertex 0.014686 -0.000000 1.221375
vertex 0.000000 0.014686 1.221375
endloop
endfacet
facet normal -0.382684 0.923880 0.000000
outer loop
vertex 0.000000 0.014686 0.020000
vertex -0.010384 0.010384 0.020000
vertex -0.010384 0.010384 1.221375
endloop
endfacet
facet normal -0.382684 0.923879 0.000000
outer loop
vertex -0.010384 0.010384 1.221375
vertex 0.000000 0.014686 1.221375
vertex 0.000000 0.014686 0.020000
endloop
endfacet
facet normal 0.923879 0.382684 0.000000
outer loop
vertex 0.014686 -0.000000 0.020000
vertex 0.010384 0.010384 0.020000
vertex 0.010384 0.010384 1.221375
endloop
endfacet
facet normal 0.923879 0.382684 0.000000
outer loop
vertex 0.010384 0.010384 1.221375
vertex 0.014686 -0.000000 1.221375
vertex 0.014686 -0.000000 0.020000
endloop
endfacet
facet normal -0.382683 -0.923880 0.000000
outer loop
vertex -0.010384 -0.010384 0.020000
vertex -0.000000 -0.014686 0.020000
vertex -0.000000 -0.014686 1.221375
endloop
endfacet
facet normal -0.382683 -0.923880 0.000000
outer loop
vertex -0.000000 -0.014686 1.221375
vertex -0.010384 -0.010384 1.221375
vertex -0.010384 -0.010384 0.020000
endloop
endfacet
facet normal -0.923879 0.382684 0.000000
outer loop
vertex -0.010384 0.010384 0.020000
vertex -0.014686 -0.000000 0.020000
vertex -0.014686 -0.000000 1.221375
endloop
endfacet
facet normal -0.923879 0.382684 0.000000
outer loop
vertex -0.014686 -0.000000 1.221375
vertex -0.010384 0.010384 1.221375
vertex -0.010384 0.010384 0.020000
endloop
endfacet
facet normal 0.382683 -0.923880 0.000000
outer loop
vertex -0.000000 -0.014686 0.020000
vertex 0.010384 -0.010384 0.020000
vertex 0.010384 -0.010384 1.221375
endloop
endfacet
facet normal 0.382683 -0.923880 0.000000
outer loop
vertex 0.010384 -0.010384 1.221375
vertex -0.000000 -0.014686 1.221375
vertex -0.000000 -0.014686 0.020000
endloop
endfacet
facet normal 0.382684 0.923879 0.000000
outer loop
vertex 0.010384 0.010384 0.020000
vertex 0.000000 0.014686 0.020000
vertex 0.000000 0.014686 1.221375
endloop
endfacet
facet normal 0.382684 0.923879 0.000000
outer loop
vertex 0.000000 0.014686 1.221375
vertex 0.010384 0.010384 1.221375
vertex 0.010384 0.010384 0.020000
endloop
endfacet
facet normal 0.923880 -0.382683 0.000000
outer loop
vertex 0.010384 -0.010384 0.020000
vertex 0.014686 -0.000000 0.020000
vertex 0.014686 -0.000000 1.221375
endloop
endfacet
facet normal 0.923880 -0.382683 0.000000
outer loop
vertex 0.014686 -0.000000 1.221375
vertex 0.010384 -0.010384 1.221375
vertex 0.010384 -0.010384 0.020000
endloop
endfacet
facet normal -0.923879 -0.382684 0.000000
outer loop
vertex -0.014686 -0.000000 0.020000
vertex -0.010384 -0.010384 0.020000
vertex -0.010384 -0.010384 1.221375
endloop
endfacet
facet normal -0.923879 -0.382684 0.000000
outer loop
vertex -0.010384 -0.010384 1.221375
vertex -0.014686 -0.000000 1.221375
vertex -0.014686 -0.000000 0.020000
endloop
endfacet
facet normal 0.000000 0.000000 -1.000000
outer loop
vertex -0.106066 0.106066 0.000000
vertex -0.057403 0.138582 0.000000
vertex 0.000000 0.150000 0.000000
endloop
endfacet
facet normal 0.000000 0.000000 -1.000000
outer loop
vertex 0.000000 0.150000 0.000000
vertex 0.057402 0.138582 0.000000
vertex 0.106066 0.106066 0.000000
endloop
endfacet
facet normal 0.000000 0.000000 -1.000000
outer loop
vertex 0.106066 0.106066 0.000000
vertex 0.138582 0.057403 0.000000
vertex 0.150000 0.000000 0.000000
endloop
endfacet
facet normal 0.000000 0.000000 -1.000000
outer loop
vertex 0.150000 0.000000 0.000000
vertex 0.138582 -0.057403 0.000000
vertex 0.106066 -0.106066 0.000000
endloop
endfacet
facet normal 0.000000 0.000000 -1.000000
outer loop
vertex 0.106066 -0.106066 0.000000
vertex 0.057402 -0.138582 0.000000
vertex -0.000000 -0.150000 0.000000
endloop
endfacet
facet normal 0.000000 0.000000 -1.000000
outer loop
vertex -0.000000 -0.150000 0.000000
vertex -0.057403 -0.138582 0.000000
vertex -0.106066 -0.106066 0.000000
endloop
endfacet
facet normal 0.000000 0.000000 -1.000000
outer loop
vertex -0.106066 -0.106066 0.000000
vertex -0.138582 -0.057403 0.000000
vertex -0.150000 -0.000000 0.000000
endloop
endfacet
facet normal 0.000000 0.000000 -1.000000
outer loop
vertex -0.150000 -0.000000 0.000000
vertex -0.138582 0.057403 0.000000
vertex -0.106066 0.106066 0.000000
endloop
endfacet
facet normal 0.000000 0.000000 -1.000000
outer loop
vertex -0.106066 0.106066 0.000000
vertex 0.000000 0.150000 0.000000
vertex 0.106066 0.106066 0.000000
endloop
endfacet
facet normal 0.000000 0.000000 -1.000000
outer loop
vertex 0.106066 0.106066 0.000000
vertex 0.150000 0.000000 0.000000
vertex 0.106066 -0.106066 0.000000
endloop
endfacet
facet normal 0.000000 0.000000 -1.000000
outer loop
vertex 0.106066 -0.106066 0.000000
vertex -0.000000 -0.150000 0.000000
vertex -0.106066 -0.106066 0.000000
endloop
endfacet
facet normal 0.000000 0.000000 -1.000000
outer loop
vertex -0.106066 -0.106066 0.000000
vertex -0.150000 -0.000000 0.000000
vertex -0.106066 0.106066 0.000000
endloop
endfacet
facet normal 0.000000 0.000000 -1.000000
outer loop
vertex -0.106066 0.106066 0.000000
vertex 0.106066 0.106066 0.000000
vertex 0.106066 -0.106066 0.000000
endloop
endfacet
facet normal 0.000000 0.000000 -1.000000
outer loop
vertex 0.106066 -0.106066 0.000000
vertex -0.106066 -0.106066 0.000000
vertex -0.106066 0.106066 0.000000
endloop
endfacet
facet normal 0.980785 -0.195090 0.000000
outer loop
vertex 0.138582 -0.057403 0.000000
vertex 0.150000 0.000000 0.000000
vertex 0.150000 0.000000 0.020000
endloop
endfacet
facet normal 0.980785 -0.195090 0.000000
outer loop
vertex 0.150000 0.000000 0.020000
vertex 0.138582 -0.057403 0.020000
vertex 0.138582 -0.057403 0.000000
endloop
endfacet
facet normal -0.980785 -0.195091 0.000000
outer loop
vertex -0.150000 -0.000000 0.000000
vertex -0.138582 -0.057403 0.000000
vertex -0.138582 -0.057403 0.020000
endloop
endfacet
facet normal -0.980785 -0.195090 0.000000
outer loop
vertex -0.138582 -0.057403 0.020000
vertex -0.150000 -0.000000 0.020000
vertex -0.150000 -0.000000 0.000000
endloop
endfacet
facet normal 0.980785 0.195090 0.000000
outer loop
vertex 0.150000 0.000000 0.000000
vertex 0.138582 0.057403 0.000000
vertex 0.138582 0.057403 0.020000
endloop
endfacet
facet normal 0.980785 0.195091 0.000000
outer loop
vertex 0.138582 0.057403 0.020000
vertex 0.150000 0.000000 0.020000
vertex 0.150000 0.000000 0.000000
endloop
endfacet
facet normal -0.831469 -0.555570 0.000000
outer loop
vertex -0.138582 -0.057403 0.000000
vertex -0.106066 -0.106066 0.000000
vertex -0.106066 -0.106066 0.020000
endloop
endfacet
facet normal -0.831469 -0.555570 0.000000
outer loop
vertex -0.106066 -0.106066 0.020000
vertex -0.138582 -0.057403 0.020000
vertex -0.138582 -0.057403 0.000000
endloop
endfacet
facet normal 0.831469 0.555571 0.000000
outer loop
vertex 0.138582 0.057403 0.000000
vertex 0.106066 0.106066 0.000000
vertex 0.106066 0.106066 0.020000
endloop
endfacet
facet normal 0.831469 0.555571 0.000000
outer loop
vertex 0.106066 0.106066 0.020000
vertex 0.138582 0.057403 0.020000
vertex 0.138582 0.057403 0.000000
endloop
endfacet
facet normal -0.555570 -0.831470 0.000000
outer loop
vertex -0.106066 -0.106066 0.000000
vertex -0.057403 -0.138582 0.000000
vertex -0.057403 -0.138582 0.020000
endloop
endfacet
facet normal -0.555570 -0.831470 0.000000
outer loop
vertex -0.057403 -0.138582 0.020000
vertex -0.106066 -0.106066 0.020000
vertex -0.106066 -0.106066 0.000000
endloop
endfacet
facet normal 0.555570 0.831470 0.000000
outer loop
vertex 0.106066 0.106066 0.000000
vertex 0.057402 0.138582 0.000000
vertex 0.057402 0.138582 0.020000
endloop
endfacet
facet normal 0.555570 0.831470 0.000000
outer loop
vertex 0.057402 0.138582 0.020000
vertex 0.106066 0.106066 0.020000
vertex 0.106066 0.106066 0.000000
endloop
endfacet
facet normal -0.195090 -0.980785 0.000000
outer loop
vertex -0.057403 -0.138582 0.000000
vertex -0.000000 -0.150000 0.000000
vertex -0.000000 -0.150000 0.020000
endloop
endfacet
facet normal -0.195090 -0.980785 0.000000
outer loop
vertex -0.000000 -0.150000 0.020000
vertex -0.057403 -0.138582 0.020000
vertex -0.057403 -0.138582 0.000000
endloop
endfacet
facet normal -0.195090 0.980785 0.000000
outer loop
vertex 0.000000 0.150000 0.000000
vertex -0.057403 0.138582 0.000000
vertex -0.057403 0.138582 0.020000
endloop
endfacet
facet normal -0.195090 0.980785 0.000000
outer loop
vertex -0.057403 0.138582 0.020000
vertex 0.000000 0.150000 0.020000
vertex 0.000000 0.150000 0.000000
endloop
endfacet
facet normal 0.195090 0.980785 0.000000
outer loop
vertex 0.057402 0.138582 0.000000
vertex 0.000000 0.150000 0.000000
vertex 0.000000 0.150000 0.020000
endloop
endfacet
facet normal 0.195090 0.980785 0.000000
outer loop
vertex 0.000000 0.150000 0.020000
vertex 0.057402 0.138582 0.020000
vertex 0.057402 0.138582 0.000000
endloop
endfacet
facet normal 0.195090 -0.980785 0.000000
outer loop
vertex -0.000000 -0.150000 0.000000
vertex 0.057402 -0.138582 0.000000
vertex 0.057402 -0.138582 0.020000
endloop
endfacet
facet normal 0.195090 -0.980785 0.000000
outer loop
vertex 0.057402 -0.138582 0.020000
vertex -0.000000 -0.150000 0.020000
vertex -0.000000 -0.150000 0.000000
endloop
endfacet
facet normal -0.555570 0.831470 0.000000
outer loop
vertex -0.057403 0.138582 0.000000
vertex -0.106066 0.106066 0.000000
vertex -0.106066 0.106066 0.020000
endloop
endfacet
facet normal -0.555570 0.831470 0.000000
outer loop
vertex -0.106066 0.106066 0.020000
vertex -0.057403 0.138582 0.020000
vertex -0.057403 0.138582 0.000000
endloop
endfacet
facet normal 0.555570 -0.831470 0.000000
outer loop
vertex 0.057402 -0.138582 0.000000
vertex 0.106066 -0.106066 0.000000
vertex 0.106066 -0.106066 0.020000
endloop
endfacet
facet normal 0.555570 -0.831470 0.000000
outer loop
vertex 0.106066 -0.106066 0.020000
vertex 0.057402 -0.138582 0.020000
vertex 0.057402 -0.138582 0.000000
endloop
endfacet
facet normal -0.831470 0.555570 0.000000
outer loop
vertex -0.106066 0.106066 0.000000
vertex -0.138582 0.057403 0.000000
vertex -0.138582 0.057403 0.020000
endloop
endfacet
facet normal -0.831470 0.555570 0.000000
outer loop
vertex -0.138582 0.057403 0.020000
vertex -0.106066 0.106066 0.020000
vertex -0.106066 0.106066 0.000000
endloop
endfacet
facet normal 0.831469 -0.555570 0.000000
outer loop
vertex 0.106066 -0.106066 0.000000
vertex 0.138582 -0.057403 0.000000
vertex 0.138582 -0.057403 0.020000
endloop
endfacet
facet normal 0.831469 -0.555570 0.000000
outer loop
vertex 0.138582 -0.057403 0.020000
vertex 0.106066 -0.106066 0.020000
vertex 0.106066 -0.106066 0.000000
endloop
endfacet
facet normal -0.980785 0.195090 0.000000
outer loop
vertex -0.138582 0.057403 0.000000
vertex -0.150000 -0.000000 0.000000
vertex -0.150000 -0.000000 0.020000
endloop
endfacet
facet normal -0.980785 0.195091 0.000000
outer loop
vertex -0.150000 -0.000000 0.020000
vertex -0.138582 0.057403 0.020000
vertex -0.138582 0.057403 0.000000
endloop
endfacet
facet normal -0.000000 0.000000 1.000000
outer loop
vertex 0.138582 0.057403 0.020000
vertex 0.106066 0.106066 0.020000
vertex 0.057402 0.138582 0.020000
endloop
endfacet
facet normal 0.000000 0.000000 1.000000
outer loop
vertex 0.057402 0.138582 0.020000
vertex 0.000000 0.150000 0.020000
vertex -0.057403 0.138582 0.020000
endloop
endfacet
facet normal 0.000000 0.000000 1.000000
outer loop
vertex -0.057403 0.138582 0.020000
vertex -0.106066 0.106066 0.020000
vertex -0.138582 0.057403 0.020000
endloop
endfacet
facet normal 0.000000 0.000000 1.000000
outer loop
vertex -0.138582 0.057403 0.020000
vertex -0.150000 -0.000000 0.020000
vertex -0.138582 -0.057403 0.020000
endloop
endfacet
facet normal -0.000000 0.000000 1.000000
outer loop
vertex -0.138582 -0.057403 0.020000
vertex -0.106066 -0.106066 0.020000
vertex -0.057403 -0.138582 0.020000
endloop
endfacet
facet normal 0.000000 0.000000 1.000000
outer loop
vertex -0.057403 -0.138582 0.020000
vertex -0.000000 -0.150000 0.020000
vertex 0.057402 -0.138582 0.020000
endloop
endfacet
facet normal 0.000000 0.000000 1.000000
outer loop
vertex 0.057402 -0.138582 0.020000
vertex 0.106066 -0.106066 0.020000
vertex 0.138582 -0.057403 0.020000
endloop
endfacet
facet normal 0.000000 0.000000 1.000000
outer loop
vertex 0.138582 -0.057403 0.020000
vertex 0.150000 0.000000 0.020000
vertex 0.138582 0.057403 0.020000
endloop
endfacet
facet normal 0.000000 0.000000 1.000000
outer loop
vertex 0.138582 0.057403 0.020000
vertex 0.057402 0.138582 0.020000
vertex -0.057403 0.138582 0.020000
endloop
endfacet
facet normal 0.000000 0.000000 1.000000
outer loop
vertex -0.057403 0.138582 0.020000
vertex -0.138582 0.057403 0.020000
vertex -0.138582 -0.057403 0.020000
endloop
endfacet
facet normal 0.000000 0.000000 1.000000
outer loop
vertex -0.138582 -0.057403 0.020000
vertex -0.057403 -0.138582 0.020000
vertex 0.057402 -0.138582 0.020000
endloop
endfacet
facet normal -0.000000 0.000000 1.000000
outer loop
vertex 0.057402 -0.138582 0.020000
vertex 0.138582 -0.057403 0.020000
vertex 0.138582 0.057403 0.020000
endloop
endfacet
facet normal 0.000000 0.000000 1.000000
outer loop
vertex 0.138582 0.057403 0.020000
vertex -0.057403 0.138582 0.020000
vertex -0.138582 -0.057403 0.020000
endloop
endfacet
facet normal 0.000000 0.000000 1.000000
outer loop
vertex -0.138582 -0.057403 0.020000
vertex 0.057402 -0.138582 0.020000
vertex 0.138582 0.057403 0.020000
endloop
endfacet
endsolid Exported from Blender-2.79 (sub 0)
