solid Exported from Blender-2.78 (sub 0)
facet normal -0.999976 0.000000 -0.006987
outer loop
vertex -0.153860 0.101120 0.000192
vertex -0.157326 0.095014 0.496222
vertex -0.157326 0.141714 0.496222
endloop
endfacet
facet normal -0.999976 0.000000 -0.006987
outer loop
vertex -0.157326 0.141714 0.496222
vertex -0.153860 0.138248 0.000192
vertex -0.153860 0.101120 0.000192
endloop
endfacet
facet normal 0.000000 0.999976 -0.006987
outer loop
vertex -0.153860 0.138248 0.000192
vertex -0.157326 0.141714 0.496222
vertex -0.110625 0.141714 0.496222
endloop
endfacet
facet normal 0.000000 0.999976 -0.006987
outer loop
vertex -0.110625 0.141714 0.496222
vertex -0.116731 0.138248 0.000192
vertex -0.153860 0.138248 0.000192
endloop
endfacet
facet normal 0.999924 0.000000 -0.012309
outer loop
vertex -0.116731 0.138248 0.000192
vertex -0.110625 0.141714 0.496222
vertex -0.110625 0.095014 0.496222
endloop
endfacet
facet normal 0.999924 0.000000 -0.012309
outer loop
vertex -0.110625 0.095014 0.496222
vertex -0.116731 0.101120 0.000192
vertex -0.116731 0.138248 0.000192
endloop
endfacet
facet normal 0.000000 -0.999924 -0.012309
outer loop
vertex -0.157326 0.095014 0.496222
vertex -0.153860 0.101120 0.000192
vertex -0.116731 0.101120 0.000192
endloop
endfacet
facet normal 0.000000 -0.999924 -0.012309
outer loop
vertex -0.116731 0.101120 0.000192
vertex -0.110625 0.095014 0.496222
vertex -0.157326 0.095014 0.496222
endloop
endfacet
facet normal 0.000000 0.000000 -1.000000
outer loop
vertex -0.116731 0.101120 0.000192
vertex -0.153860 0.101120 0.000192
vertex -0.153860 0.138248 0.000192
endloop
endfacet
facet normal 0.000000 0.000000 -1.000000
outer loop
vertex -0.153860 0.138248 0.000192
vertex -0.116731 0.138248 0.000192
vertex -0.116731 0.101120 0.000192
endloop
endfacet
facet normal 0.000000 0.000000 1.000000
outer loop
vertex -0.110625 0.141714 0.496222
vertex -0.157326 0.141714 0.496222
vertex -0.157326 0.095014 0.496222
endloop
endfacet
facet normal 0.000000 0.000000 1.000000
outer loop
vertex -0.157326 0.095014 0.496222
vertex -0.110625 0.095014 0.496222
vertex -0.110625 0.141714 0.496222
endloop
endfacet
facet normal -0.956940 0.290286 0.000000
outer loop
vertex -0.254799 0.050683 0.490689
vertex -0.254799 0.050683 0.526495
vertex -0.240016 0.099418 0.526495
endloop
endfacet
facet normal -0.956941 0.290284 0.000000
outer loop
vertex -0.240016 0.099418 0.526495
vertex -0.240016 0.099418 0.490689
vertex -0.254799 0.050683 0.490689
endloop
endfacet
facet normal -0.995185 0.098018 0.000000
outer loop
vertex -0.259791 0.000000 0.490689
vertex -0.259791 0.000000 0.526495
vertex -0.254799 0.050683 0.526495
endloop
endfacet
facet normal -0.995185 0.098017 0.000000
outer loop
vertex -0.254799 0.050683 0.526495
vertex -0.254799 0.050683 0.490689
vertex -0.259791 0.000000 0.490689
endloop
endfacet
facet normal -0.098017 0.995185 0.000000
outer loop
vertex -0.050683 0.254799 0.490689
vertex -0.050683 0.254799 0.526495
vertex 0.000000 0.259791 0.526495
endloop
endfacet
facet normal -0.098018 0.995185 0.000000
outer loop
vertex 0.000000 0.259791 0.526495
vertex 0.000000 0.259791 0.490689
vertex -0.050683 0.254799 0.490689
endloop
endfacet
facet normal -0.290284 0.956940 0.000000
outer loop
vertex -0.099418 0.240016 0.490689
vertex -0.099418 0.240016 0.526495
vertex -0.050683 0.254799 0.526495
endloop
endfacet
facet normal -0.290285 0.956940 0.000000
outer loop
vertex -0.050683 0.254799 0.526495
vertex -0.050683 0.254799 0.490689
vertex -0.099418 0.240016 0.490689
endloop
endfacet
facet normal -0.471396 0.881921 0.000000
outer loop
vertex -0.144332 0.216009 0.490689
vertex -0.144332 0.216009 0.526495
vertex -0.099418 0.240016 0.526495
endloop
endfacet
facet normal -0.471397 0.881921 0.000000
outer loop
vertex -0.099418 0.240016 0.526495
vertex -0.099418 0.240016 0.490689
vertex -0.144332 0.216009 0.490689
endloop
endfacet
facet normal -0.634393 0.773010 0.000000
outer loop
vertex -0.183700 0.183700 0.490689
vertex -0.183700 0.183700 0.526495
vertex -0.144332 0.216009 0.526495
endloop
endfacet
facet normal -0.634394 0.773010 0.000000
outer loop
vertex -0.144332 0.216009 0.526495
vertex -0.144332 0.216009 0.490689
vertex -0.183700 0.183700 0.490689
endloop
endfacet
facet normal -0.773010 0.634394 0.000000
outer loop
vertex -0.216008 0.144332 0.490689
vertex -0.216008 0.144332 0.526495
vertex -0.183700 0.183700 0.526495
endloop
endfacet
facet normal -0.773011 0.634393 0.000000
outer loop
vertex -0.183700 0.183700 0.526495
vertex -0.183700 0.183700 0.490689
vertex -0.216008 0.144332 0.490689
endloop
endfacet
facet normal -0.881920 0.471398 0.000000
outer loop
vertex -0.240016 0.099418 0.490689
vertex -0.240016 0.099418 0.526495
vertex -0.216008 0.144332 0.526495
endloop
endfacet
facet normal -0.881922 0.471395 0.000000
outer loop
vertex -0.216008 0.144332 0.526495
vertex -0.216008 0.144332 0.490689
vertex -0.240016 0.099418 0.490689
endloop
endfacet
facet normal 0.000002 0.000000 -1.000000
outer loop
vertex -0.099418 0.240016 0.490689
vertex -0.050683 0.254799 0.490689
vertex 0.000000 0.259791 0.490689
endloop
endfacet
facet normal 0.000000 0.000000 -1.000000
outer loop
vertex 0.000000 0.259791 0.490689
vertex 0.000000 0.000000 0.490689
vertex -0.259791 0.000000 0.490689
endloop
endfacet
facet normal -0.000007 0.000000 -1.000000
outer loop
vertex -0.259791 0.000000 0.490689
vertex -0.254799 0.050683 0.490689
vertex -0.240016 0.099418 0.490689
endloop
endfacet
facet normal 0.000000 0.000000 -1.000000
outer loop
vertex -0.240016 0.099418 0.490689
vertex -0.216008 0.144332 0.490689
vertex -0.183700 0.183700 0.490689
endloop
endfacet
facet normal 0.000004 0.000000 -1.000000
outer loop
vertex -0.183700 0.183700 0.490689
vertex -0.144332 0.216009 0.490689
vertex -0.099418 0.240016 0.490689
endloop
endfacet
facet normal 0.000000 0.000000 -1.000000
outer loop
vertex -0.099418 0.240016 0.490689
vertex 0.000000 0.259791 0.490689
vertex -0.259791 0.000000 0.490689
endloop
endfacet
facet normal 0.000000 0.000000 -1.000000
outer loop
vertex -0.259791 0.000000 0.490689
vertex -0.240016 0.099418 0.490689
vertex -0.183700 0.183700 0.490689
endloop
endfacet
facet normal 0.000001 0.000000 -1.000000
outer loop
vertex -0.259791 0.000000 0.490689
vertex -0.183700 0.183700 0.490689
vertex -0.099418 0.240016 0.490689
endloop
endfacet
facet normal 0.000000 0.000000 1.000000
outer loop
vertex 0.000000 0.259791 0.526495
vertex -0.050683 0.254799 0.526495
vertex -0.099418 0.240016 0.526495
endloop
endfacet
facet normal 0.000000 0.000000 1.000000
outer loop
vertex -0.099418 0.240016 0.526495
vertex -0.144332 0.216009 0.526495
vertex -0.183700 0.183700 0.526495
endloop
endfacet
facet normal 0.000000 0.000000 1.000000
outer loop
vertex -0.183700 0.183700 0.526495
vertex -0.216008 0.144332 0.526495
vertex -0.240016 0.099418 0.526495
endloop
endfacet
facet normal 0.000007 0.000000 1.000000
outer loop
vertex -0.240016 0.099418 0.526495
vertex -0.254799 0.050683 0.526495
vertex -0.259791 0.000000 0.526495
endloop
endfacet
facet normal 0.000000 0.000000 1.000000
outer loop
vertex -0.259791 0.000000 0.526495
vertex 0.000000 0.000000 0.526495
vertex 0.000000 0.259791 0.526495
endloop
endfacet
facet normal 0.000000 0.000000 1.000000
outer loop
vertex 0.000000 0.259791 0.526495
vertex -0.099418 0.240016 0.526495
vertex -0.183700 0.183700 0.526495
endloop
endfacet
facet normal 0.000000 0.000000 1.000000
outer loop
vertex -0.183700 0.183700 0.526495
vertex -0.240016 0.099418 0.526495
vertex -0.259791 0.000000 0.526495
endloop
endfacet
facet normal 0.000000 0.000000 1.000000
outer loop
vertex -0.183700 0.183700 0.526495
vertex -0.259791 0.000000 0.526495
vertex 0.000000 0.259791 0.526495
endloop
endfacet
facet normal 0.999976 0.000000 -0.006987
outer loop
vertex 0.153860 0.101120 0.000192
vertex 0.153860 0.138248 0.000192
vertex 0.157326 0.141714 0.496222
endloop
endfacet
facet normal 0.999976 0.000000 -0.006987
outer loop
vertex 0.157326 0.141714 0.496222
vertex 0.157326 0.095014 0.496222
vertex 0.153860 0.101120 0.000192
endloop
endfacet
facet normal 0.000000 0.999976 -0.006987
outer loop
vertex 0.153860 0.138248 0.000192
vertex 0.116731 0.138248 0.000192
vertex 0.110625 0.141714 0.496222
endloop
endfacet
facet normal 0.000000 0.999976 -0.006987
outer loop
vertex 0.110625 0.141714 0.496222
vertex 0.157326 0.141714 0.496222
vertex 0.153860 0.138248 0.000192
endloop
endfacet
facet normal -0.999924 0.000000 -0.012309
outer loop
vertex 0.116731 0.138248 0.000192
vertex 0.116731 0.101120 0.000192
vertex 0.110625 0.095014 0.496222
endloop
endfacet
facet normal -0.999924 0.000000 -0.012309
outer loop
vertex 0.110625 0.095014 0.496222
vertex 0.110625 0.141714 0.496222
vertex 0.116731 0.138248 0.000192
endloop
endfacet
facet normal 0.000000 -0.999924 -0.012309
outer loop
vertex 0.116731 0.101120 0.000192
vertex 0.153860 0.101120 0.000192
vertex 0.157326 0.095014 0.496222
endloop
endfacet
facet normal 0.000000 -0.999924 -0.012309
outer loop
vertex 0.157326 0.095014 0.496222
vertex 0.110625 0.095014 0.496222
vertex 0.116731 0.101120 0.000192
endloop
endfacet
facet normal 0.000000 0.000000 -1.000000
outer loop
vertex 0.153860 0.138248 0.000192
vertex 0.153860 0.101120 0.000192
vertex 0.116731 0.101120 0.000192
endloop
endfacet
facet normal 0.000000 0.000000 -1.000000
outer loop
vertex 0.116731 0.101120 0.000192
vertex 0.116731 0.138248 0.000192
vertex 0.153860 0.138248 0.000192
endloop
endfacet
facet normal 0.000000 0.000000 1.000000
outer loop
vertex 0.110625 0.141714 0.496222
vertex 0.110625 0.095014 0.496222
vertex 0.157326 0.095014 0.496222
endloop
endfacet
facet normal 0.000000 0.000000 1.000000
outer loop
vertex 0.157326 0.095014 0.496222
vertex 0.157326 0.141714 0.496222
vertex 0.110625 0.141714 0.496222
endloop
endfacet
facet normal 0.956941 0.290284 0.000000
outer loop
vertex 0.254799 0.050683 0.490689
vertex 0.240016 0.099418 0.490689
vertex 0.240016 0.099418 0.526495
endloop
endfacet
facet normal 0.956940 0.290286 0.000000
outer loop
vertex 0.240016 0.099418 0.526495
vertex 0.254799 0.050683 0.526495
vertex 0.254799 0.050683 0.490689
endloop
endfacet
facet normal 0.995185 0.098017 0.000000
outer loop
vertex 0.259791 0.000000 0.490689
vertex 0.254799 0.050683 0.490689
vertex 0.254799 0.050683 0.526495
endloop
endfacet
facet normal 0.995185 0.098018 0.000000
outer loop
vertex 0.254799 0.050683 0.526495
vertex 0.259791 0.000000 0.526495
vertex 0.259791 0.000000 0.490689
endloop
endfacet
facet normal 0.098018 0.995185 0.000000
outer loop
vertex 0.050683 0.254799 0.490689
vertex 0.000000 0.259791 0.490689
vertex 0.000000 0.259791 0.526495
endloop
endfacet
facet normal 0.098017 0.995185 0.000000
outer loop
vertex 0.000000 0.259791 0.526495
vertex 0.050683 0.254799 0.526495
vertex 0.050683 0.254799 0.490689
endloop
endfacet
facet normal 0.290285 0.956940 0.000000
outer loop
vertex 0.099418 0.240016 0.490689
vertex 0.050683 0.254799 0.490689
vertex 0.050683 0.254799 0.526495
endloop
endfacet
facet normal 0.290284 0.956940 0.000000
outer loop
vertex 0.050683 0.254799 0.526495
vertex 0.099418 0.240016 0.526495
vertex 0.099418 0.240016 0.490689
endloop
endfacet
facet normal 0.471397 0.881921 0.000000
outer loop
vertex 0.144332 0.216009 0.490689
vertex 0.099418 0.240016 0.490689
vertex 0.099418 0.240016 0.526495
endloop
endfacet
facet normal 0.471396 0.881921 0.000000
outer loop
vertex 0.099418 0.240016 0.526495
vertex 0.144332 0.216009 0.526495
vertex 0.144332 0.216009 0.490689
endloop
endfacet
facet normal 0.634394 0.773010 0.000000
outer loop
vertex 0.183700 0.183700 0.490689
vertex 0.144332 0.216009 0.490689
vertex 0.144332 0.216009 0.526495
endloop
endfacet
facet normal 0.634393 0.773010 0.000000
outer loop
vertex 0.144332 0.216009 0.526495
vertex 0.183700 0.183700 0.526495
vertex 0.183700 0.183700 0.490689
endloop
endfacet
facet normal 0.773011 0.634393 0.000000
outer loop
vertex 0.216008 0.144332 0.490689
vertex 0.183700 0.183700 0.490689
vertex 0.183700 0.183700 0.526495
endloop
endfacet
facet normal 0.773010 0.634394 0.000000
outer loop
vertex 0.183700 0.183700 0.526495
vertex 0.216008 0.144332 0.526495
vertex 0.216008 0.144332 0.490689
endloop
endfacet
facet normal 0.881922 0.471395 0.000000
outer loop
vertex 0.240016 0.099418 0.490689
vertex 0.216008 0.144332 0.490689
vertex 0.216008 0.144332 0.526495
endloop
endfacet
facet normal 0.881920 0.471398 0.000000
outer loop
vertex 0.216008 0.144332 0.526495
vertex 0.240016 0.099418 0.526495
vertex 0.240016 0.099418 0.490689
endloop
endfacet
facet normal -0.000002 0.000000 -1.000000
outer loop
vertex 0.000000 0.259791 0.490689
vertex 0.050683 0.254799 0.490689
vertex 0.099418 0.240016 0.490689
endloop
endfacet
facet normal 0.000000 0.000000 -1.000000
outer loop
vertex 0.099418 0.240016 0.490689
vertex 0.144332 0.216009 0.490689
vertex 0.183700 0.183700 0.490689
endloop
endfacet
facet normal 0.000000 0.000000 -1.000000
outer loop
vertex 0.183700 0.183700 0.490689
vertex 0.216008 0.144332 0.490689
vertex 0.240016 0.099418 0.490689
endloop
endfacet
facet normal 0.000007 0.000000 -1.000000
outer loop
vertex 0.240016 0.099418 0.490689
vertex 0.254799 0.050683 0.490689
vertex 0.259791 0.000000 0.490689
endloop
endfacet
facet normal 0.000000 0.000000 -1.000000
outer loop
vertex 0.259791 0.000000 0.490689
vertex 0.000000 0.000000 0.490689
vertex 0.000000 0.259791 0.490689
endloop
endfacet
facet normal 0.000000 0.000000 -1.000000
outer loop
vertex 0.000000 0.259791 0.490689
vertex 0.099418 0.240016 0.490689
vertex 0.183700 0.183700 0.490689
endloop
endfacet
facet normal 0.000000 0.000000 -1.000000
outer loop
vertex 0.183700 0.183700 0.490689
vertex 0.240016 0.099418 0.490689
vertex 0.259791 0.000000 0.490689
endloop
endfacet
facet normal 0.000000 0.000000 -1.000000
outer loop
vertex 0.183700 0.183700 0.490689
vertex 0.259791 0.000000 0.490689
vertex 0.000000 0.259791 0.490689
endloop
endfacet
facet normal 0.000001 0.000000 1.000000
outer loop
vertex 0.099418 0.240016 0.526495
vertex 0.050683 0.254799 0.526495
vertex 0.000000 0.259791 0.526495
endloop
endfacet
facet normal 0.000000 0.000000 1.000000
outer loop
vertex 0.000000 0.259791 0.526495
vertex 0.000000 0.000000 0.526495
vertex 0.259791 0.000000 0.526495
endloop
endfacet
facet normal -0.000007 0.000000 1.000000
outer loop
vertex 0.259791 0.000000 0.526495
vertex 0.254799 0.050683 0.526495
vertex 0.240016 0.099418 0.526495
endloop
endfacet
facet normal 0.000000 0.000000 1.000000
outer loop
vertex 0.240016 0.099418 0.526495
vertex 0.216008 0.144332 0.526495
vertex 0.183700 0.183700 0.526495
endloop
endfacet
facet normal 0.000000 0.000000 1.000000
outer loop
vertex 0.183700 0.183700 0.526495
vertex 0.144332 0.216009 0.526495
vertex 0.099418 0.240016 0.526495
endloop
endfacet
facet normal -0.000001 0.000000 1.000000
outer loop
vertex 0.099418 0.240016 0.526495
vertex 0.000000 0.259791 0.526495
vertex 0.259791 0.000000 0.526495
endloop
endfacet
facet normal 0.000000 0.000000 1.000000
outer loop
vertex 0.259791 0.000000 0.526495
vertex 0.240016 0.099418 0.526495
vertex 0.183700 0.183700 0.526495
endloop
endfacet
facet normal 0.000001 0.000000 1.000000
outer loop
vertex 0.259791 0.000000 0.526495
vertex 0.183700 0.183700 0.526495
vertex 0.099418 0.240016 0.526495
endloop
endfacet
facet normal -0.999976 0.000000 -0.006987
outer loop
vertex -0.153860 -0.101120 0.000192
vertex -0.153860 -0.138248 0.000192
vertex -0.157326 -0.141714 0.496222
endloop
endfacet
facet normal -0.999976 0.000000 -0.006987
outer loop
vertex -0.157326 -0.141714 0.496222
vertex -0.157326 -0.095014 0.496222
vertex -0.153860 -0.101120 0.000192
endloop
endfacet
facet normal 0.000000 -0.999976 -0.006987
outer loop
vertex -0.153860 -0.138248 0.000192
vertex -0.116731 -0.138248 0.000192
vertex -0.110625 -0.141714 0.496222
endloop
endfacet
facet normal 0.000000 -0.999976 -0.006987
outer loop
vertex -0.110625 -0.141714 0.496222
vertex -0.157326 -0.141714 0.496222
vertex -0.153860 -0.138248 0.000192
endloop
endfacet
facet normal 0.999924 0.000000 -0.012309
outer loop
vertex -0.116731 -0.138248 0.000192
vertex -0.116731 -0.101120 0.000192
vertex -0.110625 -0.095014 0.496222
endloop
endfacet
facet normal 0.999924 0.000000 -0.012309
outer loop
vertex -0.110625 -0.095014 0.496222
vertex -0.110625 -0.141714 0.496222
vertex -0.116731 -0.138248 0.000192
endloop
endfacet
facet normal 0.000000 0.999924 -0.012309
outer loop
vertex -0.116731 -0.101120 0.000192
vertex -0.153860 -0.101120 0.000192
vertex -0.157326 -0.095014 0.496222
endloop
endfacet
facet normal 0.000000 0.999924 -0.012309
outer loop
vertex -0.157326 -0.095014 0.496222
vertex -0.110625 -0.095014 0.496222
vertex -0.116731 -0.101120 0.000192
endloop
endfacet
facet normal 0.000000 0.000000 -1.000000
outer loop
vertex -0.153860 -0.138248 0.000192
vertex -0.153860 -0.101120 0.000192
vertex -0.116731 -0.101120 0.000192
endloop
endfacet
facet normal 0.000000 0.000000 -1.000000
outer loop
vertex -0.116731 -0.101120 0.000192
vertex -0.116731 -0.138248 0.000192
vertex -0.153860 -0.138248 0.000192
endloop
endfacet
facet normal 0.000000 0.000000 1.000000
outer loop
vertex -0.110625 -0.141714 0.496222
vertex -0.110625 -0.095014 0.496222
vertex -0.157326 -0.095014 0.496222
endloop
endfacet
facet normal 0.000000 0.000000 1.000000
outer loop
vertex -0.157326 -0.095014 0.496222
vertex -0.157326 -0.141714 0.496222
vertex -0.110625 -0.141714 0.496222
endloop
endfacet
facet normal -0.956941 -0.290284 0.000000
outer loop
vertex -0.254799 -0.050683 0.490689
vertex -0.240016 -0.099418 0.490689
vertex -0.240016 -0.099418 0.526495
endloop
endfacet
facet normal -0.956940 -0.290286 0.000000
outer loop
vertex -0.240016 -0.099418 0.526495
vertex -0.254799 -0.050683 0.526495
vertex -0.254799 -0.050683 0.490689
endloop
endfacet
facet normal -0.995185 -0.098017 0.000000
outer loop
vertex -0.259791 -0.000000 0.490689
vertex -0.254799 -0.050683 0.490689
vertex -0.254799 -0.050683 0.526495
endloop
endfacet
facet normal -0.995185 -0.098018 0.000000
outer loop
vertex -0.254799 -0.050683 0.526495
vertex -0.259791 0.000000 0.526495
vertex -0.259791 -0.000000 0.490689
endloop
endfacet
facet normal -0.098018 -0.995185 0.000000
outer loop
vertex -0.050683 -0.254799 0.490689
vertex 0.000000 -0.259791 0.490689
vertex 0.000000 -0.259791 0.526495
endloop
endfacet
facet normal -0.098017 -0.995185 0.000000
outer loop
vertex 0.000000 -0.259791 0.526495
vertex -0.050683 -0.254799 0.526495
vertex -0.050683 -0.254799 0.490689
endloop
endfacet
facet normal -0.290285 -0.956940 0.000000
outer loop
vertex -0.099418 -0.240016 0.490689
vertex -0.050683 -0.254799 0.490689
vertex -0.050683 -0.254799 0.526495
endloop
endfacet
facet normal -0.290284 -0.956940 0.000000
outer loop
vertex -0.050683 -0.254799 0.526495
vertex -0.099418 -0.240016 0.526495
vertex -0.099418 -0.240016 0.490689
endloop
endfacet
facet normal -0.471397 -0.881921 0.000000
outer loop
vertex -0.144332 -0.216009 0.490689
vertex -0.099418 -0.240016 0.490689
vertex -0.099418 -0.240016 0.526495
endloop
endfacet
facet normal -0.471396 -0.881921 0.000000
outer loop
vertex -0.099418 -0.240016 0.526495
vertex -0.144332 -0.216009 0.526495
vertex -0.144332 -0.216009 0.490689
endloop
endfacet
facet normal -0.634394 -0.773010 0.000000
outer loop
vertex -0.183700 -0.183700 0.490689
vertex -0.144332 -0.216009 0.490689
vertex -0.144332 -0.216009 0.526495
endloop
endfacet
facet normal -0.634393 -0.773010 0.000000
outer loop
vertex -0.144332 -0.216009 0.526495
vertex -0.183700 -0.183700 0.526495
vertex -0.183700 -0.183700 0.490689
endloop
endfacet
facet normal -0.773011 -0.634393 0.000000
outer loop
vertex -0.216008 -0.144332 0.490689
vertex -0.183700 -0.183700 0.490689
vertex -0.183700 -0.183700 0.526495
endloop
endfacet
facet normal -0.773010 -0.634394 0.000000
outer loop
vertex -0.183700 -0.183700 0.526495
vertex -0.216008 -0.144332 0.526495
vertex -0.216008 -0.144332 0.490689
endloop
endfacet
facet normal -0.881922 -0.471395 0.000000
outer loop
vertex -0.240016 -0.099418 0.490689
vertex -0.216008 -0.144332 0.490689
vertex -0.216008 -0.144332 0.526495
endloop
endfacet
facet normal -0.881920 -0.471398 0.000000
outer loop
vertex -0.216008 -0.144332 0.526495
vertex -0.240016 -0.099418 0.526495
vertex -0.240016 -0.099418 0.490689
endloop
endfacet
facet normal 0.000002 0.000000 -1.000000
outer loop
vertex 0.000000 -0.259791 0.490689
vertex -0.050683 -0.254799 0.490689
vertex -0.099418 -0.240016 0.490689
endloop
endfacet
facet normal 0.000000 0.000000 -1.000000
outer loop
vertex -0.099418 -0.240016 0.490689
vertex -0.144332 -0.216009 0.490689
vertex -0.183700 -0.183700 0.490689
endloop
endfacet
facet normal 0.000000 0.000000 -1.000000
outer loop
vertex -0.183700 -0.183700 0.490689
vertex -0.216008 -0.144332 0.490689
vertex -0.240016 -0.099418 0.490689
endloop
endfacet
facet normal -0.000007 0.000000 -1.000000
outer loop
vertex -0.240016 -0.099418 0.490689
vertex -0.254799 -0.050683 0.490689
vertex -0.259791 -0.000000 0.490689
endloop
endfacet
facet normal 0.000000 0.000000 -1.000000
outer loop
vertex -0.259791 -0.000000 0.490689
vertex 0.000000 0.000000 0.490689
vertex 0.000000 -0.259791 0.490689
endloop
endfacet
facet normal 0.000000 0.000000 -1.000000
outer loop
vertex 0.000000 -0.259791 0.490689
vertex -0.099418 -0.240016 0.490689
vertex -0.183700 -0.183700 0.490689
endloop
endfacet
facet normal 0.000000 0.000000 -1.000000
outer loop
vertex -0.183700 -0.183700 0.490689
vertex -0.240016 -0.099418 0.490689
vertex -0.259791 -0.000000 0.490689
endloop
endfacet
facet normal 0.000000 0.000000 -1.000000
outer loop
vertex -0.183700 -0.183700 0.490689
vertex -0.259791 -0.000000 0.490689
vertex 0.000000 -0.259791 0.490689
endloop
endfacet
facet normal -0.000001 0.000000 1.000000
outer loop
vertex -0.099418 -0.240016 0.526495
vertex -0.050683 -0.254799 0.526495
vertex 0.000000 -0.259791 0.526495
endloop
endfacet
facet normal 0.000000 0.000000 1.000000
outer loop
vertex 0.000000 -0.259791 0.526495
vertex 0.000000 0.000000 0.526495
vertex -0.259791 0.000000 0.526495
endloop
endfacet
facet normal 0.000007 0.000000 1.000000
outer loop
vertex -0.259791 0.000000 0.526495
vertex -0.254799 -0.050683 0.526495
vertex -0.240016 -0.099418 0.526495
endloop
endfacet
facet normal 0.000000 0.000000 1.000000
outer loop
vertex -0.240016 -0.099418 0.526495
vertex -0.216008 -0.144332 0.526495
vertex -0.183700 -0.183700 0.526495
endloop
endfacet
facet normal 0.000000 0.000000 1.000000
outer loop
vertex -0.183700 -0.183700 0.526495
vertex -0.144332 -0.216009 0.526495
vertex -0.099418 -0.240016 0.526495
endloop
endfacet
facet normal 0.000001 0.000000 1.000000
outer loop
vertex -0.099418 -0.240016 0.526495
vertex 0.000000 -0.259791 0.526495
vertex -0.259791 0.000000 0.526495
endloop
endfacet
facet normal 0.000000 0.000000 1.000000
outer loop
vertex -0.259791 0.000000 0.526495
vertex -0.240016 -0.099418 0.526495
vertex -0.183700 -0.183700 0.526495
endloop
endfacet
facet normal -0.000001 0.000000 1.000000
outer loop
vertex -0.259791 0.000000 0.526495
vertex -0.183700 -0.183700 0.526495
vertex -0.099418 -0.240016 0.526495
endloop
endfacet
facet normal 0.999976 0.000000 -0.006987
outer loop
vertex 0.153860 -0.101120 0.000192
vertex 0.157326 -0.095014 0.496222
vertex 0.157326 -0.141714 0.496222
endloop
endfacet
facet normal 0.999976 0.000000 -0.006987
outer loop
vertex 0.157326 -0.141714 0.496222
vertex 0.153860 -0.138248 0.000192
vertex 0.153860 -0.101120 0.000192
endloop
endfacet
facet normal 0.000000 -0.999976 -0.006987
outer loop
vertex 0.153860 -0.138248 0.000192
vertex 0.157326 -0.141714 0.496222
vertex 0.110625 -0.141714 0.496222
endloop
endfacet
facet normal 0.000000 -0.999976 -0.006987
outer loop
vertex 0.110625 -0.141714 0.496222
vertex 0.116731 -0.138248 0.000192
vertex 0.153860 -0.138248 0.000192
endloop
endfacet
facet normal -0.999924 0.000000 -0.012309
outer loop
vertex 0.116731 -0.138248 0.000192
vertex 0.110625 -0.141714 0.496222
vertex 0.110625 -0.095014 0.496222
endloop
endfacet
facet normal -0.999924 0.000000 -0.012309
outer loop
vertex 0.110625 -0.095014 0.496222
vertex 0.116731 -0.101120 0.000192
vertex 0.116731 -0.138248 0.000192
endloop
endfacet
facet normal 0.000000 0.999924 -0.012309
outer loop
vertex 0.116731 -0.101120 0.000192
vertex 0.110625 -0.095014 0.496222
vertex 0.157326 -0.095014 0.496222
endloop
endfacet
facet normal 0.000000 0.999924 -0.012309
outer loop
vertex 0.157326 -0.095014 0.496222
vertex 0.153860 -0.101120 0.000192
vertex 0.116731 -0.101120 0.000192
endloop
endfacet
facet normal 0.000000 0.000000 -1.000000
outer loop
vertex 0.153860 -0.138248 0.000192
vertex 0.116731 -0.138248 0.000192
vertex 0.116731 -0.101120 0.000192
endloop
endfacet
facet normal 0.000000 0.000000 -1.000000
outer loop
vertex 0.116731 -0.101120 0.000192
vertex 0.153860 -0.101120 0.000192
vertex 0.153860 -0.138248 0.000192
endloop
endfacet
facet normal 0.000000 0.000000 1.000000
outer loop
vertex 0.110625 -0.141714 0.496222
vertex 0.157326 -0.141714 0.496222
vertex 0.157326 -0.095014 0.496222
endloop
endfacet
facet normal 0.000000 0.000000 1.000000
outer loop
vertex 0.157326 -0.095014 0.496222
vertex 0.110625 -0.095014 0.496222
vertex 0.110625 -0.141714 0.496222
endloop
endfacet
facet normal 0.956940 -0.290286 0.000000
outer loop
vertex 0.254799 -0.050683 0.490689
vertex 0.254799 -0.050683 0.526495
vertex 0.240016 -0.099418 0.526495
endloop
endfacet
facet normal 0.956941 -0.290284 0.000000
outer loop
vertex 0.240016 -0.099418 0.526495
vertex 0.240016 -0.099418 0.490689
vertex 0.254799 -0.050683 0.490689
endloop
endfacet
facet normal 0.995185 -0.098018 0.000000
outer loop
vertex 0.259791 -0.000000 0.490689
vertex 0.259791 0.000000 0.526495
vertex 0.254799 -0.050683 0.526495
endloop
endfacet
facet normal 0.995185 -0.098017 0.000000
outer loop
vertex 0.254799 -0.050683 0.526495
vertex 0.254799 -0.050683 0.490689
vertex 0.259791 -0.000000 0.490689
endloop
endfacet
facet normal 0.098017 -0.995185 0.000000
outer loop
vertex 0.050683 -0.254799 0.490689
vertex 0.050683 -0.254799 0.526495
vertex 0.000000 -0.259791 0.526495
endloop
endfacet
facet normal 0.098018 -0.995185 0.000000
outer loop
vertex 0.000000 -0.259791 0.526495
vertex 0.000000 -0.259791 0.490689
vertex 0.050683 -0.254799 0.490689
endloop
endfacet
facet normal 0.290284 -0.956940 0.000000
outer loop
vertex 0.099418 -0.240016 0.490689
vertex 0.099418 -0.240016 0.526495
vertex 0.050683 -0.254799 0.526495
endloop
endfacet
facet normal 0.290285 -0.956940 0.000000
outer loop
vertex 0.050683 -0.254799 0.526495
vertex 0.050683 -0.254799 0.490689
vertex 0.099418 -0.240016 0.490689
endloop
endfacet
facet normal 0.471396 -0.881921 0.000000
outer loop
vertex 0.144332 -0.216009 0.490689
vertex 0.144332 -0.216009 0.526495
vertex 0.099418 -0.240016 0.526495
endloop
endfacet
facet normal 0.471397 -0.881921 0.000000
outer loop
vertex 0.099418 -0.240016 0.526495
vertex 0.099418 -0.240016 0.490689
vertex 0.144332 -0.216009 0.490689
endloop
endfacet
facet normal 0.634393 -0.773010 0.000000
outer loop
vertex 0.183700 -0.183700 0.490689
vertex 0.183700 -0.183700 0.526495
vertex 0.144332 -0.216009 0.526495
endloop
endfacet
facet normal 0.634394 -0.773010 0.000000
outer loop
vertex 0.144332 -0.216009 0.526495
vertex 0.144332 -0.216009 0.490689
vertex 0.183700 -0.183700 0.490689
endloop
endfacet
facet normal 0.773010 -0.634394 0.000000
outer loop
vertex 0.216008 -0.144332 0.490689
vertex 0.216008 -0.144332 0.526495
vertex 0.183700 -0.183700 0.526495
endloop
endfacet
facet normal 0.773011 -0.634393 0.000000
outer loop
vertex 0.183700 -0.183700 0.526495
vertex 0.183700 -0.183700 0.490689
vertex 0.216008 -0.144332 0.490689
endloop
endfacet
facet normal 0.881920 -0.471398 0.000000
outer loop
vertex 0.240016 -0.099418 0.490689
vertex 0.240016 -0.099418 0.526495
vertex 0.216008 -0.144332 0.526495
endloop
endfacet
facet normal 0.881922 -0.471395 0.000000
outer loop
vertex 0.216008 -0.144332 0.526495
vertex 0.216008 -0.144332 0.490689
vertex 0.240016 -0.099418 0.490689
endloop
endfacet
facet normal -0.000002 0.000000 -1.000000
outer loop
vertex 0.099418 -0.240016 0.490689
vertex 0.050683 -0.254799 0.490689
vertex 0.000000 -0.259791 0.490689
endloop
endfacet
facet normal -0.000000 0.000000 -1.000000
outer loop
vertex 0.000000 -0.259791 0.490689
vertex 0.000000 0.000000 0.490689
vertex 0.259791 -0.000000 0.490689
endloop
endfacet
facet normal 0.000007 0.000000 -1.000000
outer loop
vertex 0.259791 -0.000000 0.490689
vertex 0.254799 -0.050683 0.490689
vertex 0.240016 -0.099418 0.490689
endloop
endfacet
facet normal 0.000000 0.000000 -1.000000
outer loop
vertex 0.240016 -0.099418 0.490689
vertex 0.216008 -0.144332 0.490689
vertex 0.183700 -0.183700 0.490689
endloop
endfacet
facet normal -0.000004 0.000000 -1.000000
outer loop
vertex 0.183700 -0.183700 0.490689
vertex 0.144332 -0.216009 0.490689
vertex 0.099418 -0.240016 0.490689
endloop
endfacet
facet normal 0.000000 0.000000 -1.000000
outer loop
vertex 0.099418 -0.240016 0.490689
vertex 0.000000 -0.259791 0.490689
vertex 0.259791 -0.000000 0.490689
endloop
endfacet
facet normal 0.000000 0.000000 -1.000000
outer loop
vertex 0.259791 -0.000000 0.490689
vertex 0.240016 -0.099418 0.490689
vertex 0.183700 -0.183700 0.490689
endloop
endfacet
facet normal -0.000001 0.000000 -1.000000
outer loop
vertex 0.259791 -0.000000 0.490689
vertex 0.183700 -0.183700 0.490689
vertex 0.099418 -0.240016 0.490689
endloop
endfacet
facet normal 0.000000 0.000000 1.000000
outer loop
vertex 0.000000 -0.259791 0.526495
vertex 0.050683 -0.254799 0.526495
vertex 0.099418 -0.240016 0.526495
endloop
endfacet
facet normal 0.000000 0.000000 1.000000
outer loop
vertex 0.099418 -0.240016 0.526495
vertex 0.144332 -0.216009 0.526495
vertex 0.183700 -0.183700 0.526495
endloop
endfacet
facet normal 0.000000 0.000000 1.000000
outer loop
vertex 0.183700 -0.183700 0.526495
vertex 0.216008 -0.144332 0.526495
vertex 0.240016 -0.099418 0.526495
endloop
endfacet
facet normal -0.000007 0.000000 1.000000
outer loop
vertex 0.240016 -0.099418 0.526495
vertex 0.254799 -0.050683 0.526495
vertex 0.259791 0.000000 0.526495
endloop
endfacet
facet normal 0.000000 0.000000 1.000000
outer loop
vertex 0.259791 0.000000 0.526495
vertex 0.000000 0.000000 0.526495
vertex 0.000000 -0.259791 0.526495
endloop
endfacet
facet normal 0.000000 0.000000 1.000000
outer loop
vertex 0.000000 -0.259791 0.526495
vertex 0.099418 -0.240016 0.526495
vertex 0.183700 -0.183700 0.526495
endloop
endfacet
facet normal 0.000000 0.000000 1.000000
outer loop
vertex 0.183700 -0.183700 0.526495
vertex 0.240016 -0.099418 0.526495
vertex 0.259791 0.000000 0.526495
endloop
endfacet
facet normal 0.000000 0.000000 1.000000
outer loop
vertex 0.183700 -0.183700 0.526495
vertex 0.259791 0.000000 0.526495
vertex 0.000000 -0.259791 0.526495
endloop
endfacet
endsolid Exported from Blender-2.78 (sub 0)
