solid Exported from Blender-2.79 (sub 0)
facet normal 1.000000 0.000000 0.000000
outer loop
vertex 0.199979 -0.404832 1.805000
vertex 0.199979 -0.404832 0.152557
vertex 0.199979 0.223374 0.152557
endloop
endfacet
facet normal 1.000000 0.000000 0.000000
outer loop
vertex 0.199979 0.223374 0.152557
vertex 0.199979 0.223374 1.805000
vertex 0.199979 -0.404832 1.805000
endloop
endfacet
facet normal -1.000000 0.000000 0.000000
outer loop
vertex 0.169959 0.223374 0.152557
vertex 0.169959 -0.404832 0.152557
vertex 0.169959 -0.404832 1.805000
endloop
endfacet
facet normal -1.000000 0.000000 0.000000
outer loop
vertex 0.169959 -0.404832 1.805000
vertex 0.169959 0.223374 1.805000
vertex 0.169959 0.223374 0.152557
endloop
endfacet
facet normal 0.000000 1.000000 0.000000
outer loop
vertex 0.199979 0.223374 0.152557
vertex 0.169959 0.223374 0.152557
vertex 0.169959 0.223374 1.805000
endloop
endfacet
facet normal 0.000000 1.000000 0.000000
outer loop
vertex 0.169959 0.223374 1.805000
vertex 0.199979 0.223374 1.805000
vertex 0.199979 0.223374 0.152557
endloop
endfacet
facet normal 0.000000 0.000000 1.000000
outer loop
vertex 0.169959 -0.404832 1.805000
vertex 0.199979 -0.404832 1.805000
vertex 0.199979 0.223374 1.805000
endloop
endfacet
facet normal 0.000000 0.000000 1.000000
outer loop
vertex 0.199979 0.223374 1.805000
vertex 0.169959 0.223374 1.805000
vertex 0.169959 -0.404832 1.805000
endloop
endfacet
facet normal 0.000000 0.000000 -1.000000
outer loop
vertex 0.199979 -0.404832 0.152557
vertex 0.169959 -0.404832 0.152557
vertex 0.169959 0.223374 0.152557
endloop
endfacet
facet normal 0.000000 0.000000 -1.000000
outer loop
vertex 0.169959 0.223374 0.152557
vertex 0.199979 0.223374 0.152557
vertex 0.199979 -0.404832 0.152557
endloop
endfacet
facet normal 0.000000 -1.000000 0.000000
outer loop
vertex 0.199979 -0.404832 1.805000
vertex 0.169959 -0.404832 1.805000
vertex 0.169959 -0.404832 0.152557
endloop
endfacet
facet normal 0.000000 -1.000000 0.000000
outer loop
vertex 0.169959 -0.404832 0.152557
vertex 0.199979 -0.404832 0.152557
vertex 0.199979 -0.404832 1.805000
endloop
endfacet
facet normal 1.000000 0.000000 0.000000
outer loop
vertex 0.230000 0.000000 1.805000
vertex 0.230000 0.000000 0.152557
vertex 0.230000 0.628206 0.152557
endloop
endfacet
facet normal 1.000000 0.000000 0.000000
outer loop
vertex 0.230000 0.628206 0.152557
vertex 0.230000 0.628206 1.805000
vertex 0.230000 0.000000 1.805000
endloop
endfacet
facet normal -1.000000 0.000000 0.000000
outer loop
vertex 0.199979 0.628206 0.152557
vertex 0.199979 0.000000 0.152557
vertex 0.199979 0.000000 1.805000
endloop
endfacet
facet normal -1.000000 0.000000 0.000000
outer loop
vertex 0.199979 0.000000 1.805000
vertex 0.199979 0.628206 1.805000
vertex 0.199979 0.628206 0.152557
endloop
endfacet
facet normal 0.000000 1.000000 0.000000
outer loop
vertex 0.230000 0.628206 0.152557
vertex 0.199979 0.628206 0.152557
vertex 0.199979 0.628206 1.805000
endloop
endfacet
facet normal 0.000000 1.000000 0.000000
outer loop
vertex 0.199979 0.628206 1.805000
vertex 0.230000 0.628206 1.805000
vertex 0.230000 0.628206 0.152557
endloop
endfacet
facet normal 0.000000 0.000000 1.000000
outer loop
vertex 0.199979 0.000000 1.805000
vertex 0.230000 0.000000 1.805000
vertex 0.230000 0.628206 1.805000
endloop
endfacet
facet normal 0.000000 0.000000 1.000000
outer loop
vertex 0.230000 0.628206 1.805000
vertex 0.199979 0.628206 1.805000
vertex 0.199979 0.000000 1.805000
endloop
endfacet
facet normal 0.000000 0.000000 -1.000000
outer loop
vertex 0.230000 0.000000 0.152557
vertex 0.199979 0.000000 0.152557
vertex 0.199979 0.628206 0.152557
endloop
endfacet
facet normal 0.000000 0.000000 -1.000000
outer loop
vertex 0.199979 0.628206 0.152557
vertex 0.230000 0.628206 0.152557
vertex 0.230000 0.000000 0.152557
endloop
endfacet
facet normal 0.000000 -1.000000 0.000000
outer loop
vertex 0.230000 0.000000 1.805000
vertex 0.199979 0.000000 1.805000
vertex 0.199979 0.000000 0.152557
endloop
endfacet
facet normal 0.000000 -1.000000 0.000000
outer loop
vertex 0.199979 0.000000 0.152557
vertex 0.230000 0.000000 0.152557
vertex 0.230000 0.000000 1.805000
endloop
endfacet
facet normal -1.000000 0.000000 0.000000
outer loop
vertex 0.199979 -0.333670 1.089422
vertex 0.199979 -0.333670 1.109422
vertex 0.199979 -0.309285 1.109422
endloop
endfacet
facet normal -1.000000 0.000000 0.000000
outer loop
vertex 0.199979 -0.309285 1.109422
vertex 0.199979 -0.309285 1.089422
vertex 0.199979 -0.333670 1.089422
endloop
endfacet
facet normal 0.000000 1.000000 0.000000
outer loop
vertex 0.228115 -0.309285 1.089422
vertex 0.228115 -0.309285 1.109422
vertex 0.244402 -0.309285 1.109422
endloop
endfacet
facet normal 0.000000 1.000000 0.000000
outer loop
vertex 0.244402 -0.309285 1.109422
vertex 0.244402 -0.309285 1.089422
vertex 0.228115 -0.309285 1.089422
endloop
endfacet
facet normal 1.000000 0.000000 0.000000
outer loop
vertex 0.244402 -0.309285 1.089422
vertex 0.244402 -0.309285 1.109422
vertex 0.244402 -0.333670 1.109422
endloop
endfacet
facet normal 1.000000 0.000000 0.000000
outer loop
vertex 0.244402 -0.333670 1.109422
vertex 0.244402 -0.333670 1.089422
vertex 0.244402 -0.309285 1.089422
endloop
endfacet
facet normal 0.000000 -1.000000 0.000000
outer loop
vertex 0.199979 -0.333670 1.109422
vertex 0.199979 -0.333670 1.089422
vertex 0.228115 -0.333670 1.089422
endloop
endfacet
facet normal 0.000000 -1.000000 0.000000
outer loop
vertex 0.228115 -0.333670 1.089422
vertex 0.228115 -0.333670 1.109422
vertex 0.199979 -0.333670 1.109422
endloop
endfacet
facet normal 0.000000 0.000000 1.000000
outer loop
vertex 0.199979 -0.333670 1.109422
vertex 0.228115 -0.333670 1.109422
vertex 0.228115 -0.309285 1.109422
endloop
endfacet
facet normal 0.000000 0.000000 1.000000
outer loop
vertex 0.228115 -0.309285 1.109422
vertex 0.199979 -0.309285 1.109422
vertex 0.199979 -0.333670 1.109422
endloop
endfacet
facet normal 0.000000 0.000000 1.000000
outer loop
vertex 0.244402 -0.309285 1.109422
vertex 0.228115 -0.309285 1.109422
vertex 0.228115 -0.333670 1.109422
endloop
endfacet
facet normal 0.000000 0.000000 1.000000
outer loop
vertex 0.228115 -0.333670 1.109422
vertex 0.244402 -0.333670 1.109422
vertex 0.244402 -0.309285 1.109422
endloop
endfacet
facet normal 0.000000 -1.000000 0.000000
outer loop
vertex 0.244402 -0.333670 1.089422
vertex 0.244402 -0.333670 1.109422
vertex 0.228115 -0.333670 1.109422
endloop
endfacet
facet normal 0.000000 -1.000000 0.000000
outer loop
vertex 0.228115 -0.333670 1.109422
vertex 0.228115 -0.333670 1.089422
vertex 0.244402 -0.333670 1.089422
endloop
endfacet
facet normal 0.000000 1.000000 0.000000
outer loop
vertex 0.199979 -0.309285 1.089422
vertex 0.199979 -0.309285 1.109422
vertex 0.228115 -0.309285 1.109422
endloop
endfacet
facet normal 0.000000 1.000000 0.000000
outer loop
vertex 0.228115 -0.309285 1.109422
vertex 0.228115 -0.309285 1.089422
vertex 0.199979 -0.309285 1.089422
endloop
endfacet
facet normal 0.000000 0.000000 -1.000000
outer loop
vertex 0.228115 -0.309285 1.089422
vertex 0.228115 -0.333670 1.089422
vertex 0.199979 -0.333670 1.089422
endloop
endfacet
facet normal 0.000000 0.000000 -1.000000
outer loop
vertex 0.199979 -0.333670 1.089422
vertex 0.199979 -0.309285 1.089422
vertex 0.228115 -0.309285 1.089422
endloop
endfacet
facet normal 0.000000 -1.000000 0.000000
outer loop
vertex 0.244402 -0.333670 1.009422
vertex 0.244402 -0.333670 1.089422
vertex 0.228115 -0.333670 1.089422
endloop
endfacet
facet normal 0.000000 -1.000000 0.000000
outer loop
vertex 0.228115 -0.333670 1.089422
vertex 0.228115 -0.333670 1.009422
vertex 0.244402 -0.333670 1.009422
endloop
endfacet
facet normal 1.000000 0.000000 0.000000
outer loop
vertex 0.244402 -0.309285 1.009422
vertex 0.244402 -0.309285 1.089422
vertex 0.244402 -0.333670 1.089422
endloop
endfacet
facet normal 1.000000 0.000000 0.000000
outer loop
vertex 0.244402 -0.333670 1.089422
vertex 0.244402 -0.333670 1.009422
vertex 0.244402 -0.309285 1.009422
endloop
endfacet
facet normal 0.000000 1.000000 0.000000
outer loop
vertex 0.228115 -0.309285 1.009422
vertex 0.228115 -0.309285 1.089422
vertex 0.244402 -0.309285 1.089422
endloop
endfacet
facet normal 0.000000 1.000000 0.000000
outer loop
vertex 0.244402 -0.309285 1.089422
vertex 0.244402 -0.309285 1.009422
vertex 0.228115 -0.309285 1.009422
endloop
endfacet
facet normal -1.000000 0.000000 0.000000
outer loop
vertex 0.228115 -0.333670 1.009422
vertex 0.228115 -0.333670 1.089422
vertex 0.228115 -0.309285 1.089422
endloop
endfacet
facet normal -1.000000 0.000000 0.000000
outer loop
vertex 0.228115 -0.309285 1.089422
vertex 0.228115 -0.309285 1.009422
vertex 0.228115 -0.333670 1.009422
endloop
endfacet
facet normal -1.000000 0.000000 0.000000
outer loop
vertex 0.199979 -0.333670 0.929422
vertex 0.199979 -0.309285 0.929422
vertex 0.199979 -0.309285 0.909422
endloop
endfacet
facet normal -1.000000 0.000000 0.000000
outer loop
vertex 0.199979 -0.309285 0.909422
vertex 0.199979 -0.333670 0.909422
vertex 0.199979 -0.333670 0.929422
endloop
endfacet
facet normal 0.000000 1.000000 0.000000
outer loop
vertex 0.228115 -0.309285 0.929422
vertex 0.244402 -0.309285 0.929422
vertex 0.244402 -0.309285 0.909422
endloop
endfacet
facet normal 0.000000 1.000000 0.000000
outer loop
vertex 0.244402 -0.309285 0.909422
vertex 0.228115 -0.309285 0.909422
vertex 0.228115 -0.309285 0.929422
endloop
endfacet
facet normal 1.000000 0.000000 0.000000
outer loop
vertex 0.244402 -0.309285 0.929422
vertex 0.244402 -0.333670 0.929422
vertex 0.244402 -0.333670 0.909422
endloop
endfacet
facet normal 1.000000 0.000000 0.000000
outer loop
vertex 0.244402 -0.333670 0.909422
vertex 0.244402 -0.309285 0.909422
vertex 0.244402 -0.309285 0.929422
endloop
endfacet
facet normal 0.000000 -1.000000 0.000000
outer loop
vertex 0.228115 -0.333670 0.929422
vertex 0.199979 -0.333670 0.929422
vertex 0.199979 -0.333670 0.909422
endloop
endfacet
facet normal 0.000000 -1.000000 0.000000
outer loop
vertex 0.199979 -0.333670 0.909422
vertex 0.228115 -0.333670 0.909422
vertex 0.228115 -0.333670 0.929422
endloop
endfacet
facet normal 0.000000 0.000000 -1.000000
outer loop
vertex 0.228115 -0.309285 0.909422
vertex 0.228115 -0.333670 0.909422
vertex 0.199979 -0.333670 0.909422
endloop
endfacet
facet normal 0.000000 0.000000 -1.000000
outer loop
vertex 0.199979 -0.333670 0.909422
vertex 0.199979 -0.309285 0.909422
vertex 0.228115 -0.309285 0.909422
endloop
endfacet
facet normal 0.000000 0.000000 -1.000000
outer loop
vertex 0.244402 -0.309285 0.909422
vertex 0.244402 -0.333670 0.909422
vertex 0.228115 -0.333670 0.909422
endloop
endfacet
facet normal 0.000000 0.000000 -1.000000
outer loop
vertex 0.228115 -0.333670 0.909422
vertex 0.228115 -0.309285 0.909422
vertex 0.244402 -0.309285 0.909422
endloop
endfacet
facet normal 0.000000 -1.000000 0.000000
outer loop
vertex 0.244402 -0.333670 0.929422
vertex 0.228115 -0.333670 0.929422
vertex 0.228115 -0.333670 0.909422
endloop
endfacet
facet normal 0.000000 -1.000000 0.000000
outer loop
vertex 0.228115 -0.333670 0.909422
vertex 0.244402 -0.333670 0.909422
vertex 0.244402 -0.333670 0.929422
endloop
endfacet
facet normal 0.000000 1.000000 0.000000
outer loop
vertex 0.199979 -0.309285 0.929422
vertex 0.228115 -0.309285 0.929422
vertex 0.228115 -0.309285 0.909422
endloop
endfacet
facet normal 0.000000 1.000000 0.000000
outer loop
vertex 0.228115 -0.309285 0.909422
vertex 0.199979 -0.309285 0.909422
vertex 0.199979 -0.309285 0.929422
endloop
endfacet
facet normal 0.000000 0.000000 1.000000
outer loop
vertex 0.228115 -0.309285 0.929422
vertex 0.199979 -0.309285 0.929422
vertex 0.199979 -0.333670 0.929422
endloop
endfacet
facet normal 0.000000 0.000000 1.000000
outer loop
vertex 0.199979 -0.333670 0.929422
vertex 0.228115 -0.333670 0.929422
vertex 0.228115 -0.309285 0.929422
endloop
endfacet
facet normal 0.000000 -1.000000 0.000000
outer loop
vertex 0.244402 -0.333670 1.009422
vertex 0.228115 -0.333670 1.009422
vertex 0.228115 -0.333670 0.929422
endloop
endfacet
facet normal 0.000000 -1.000000 0.000000
outer loop
vertex 0.228115 -0.333670 0.929422
vertex 0.244402 -0.333670 0.929422
vertex 0.244402 -0.333670 1.009422
endloop
endfacet
facet normal 1.000000 0.000000 0.000000
outer loop
vertex 0.244402 -0.309285 1.009422
vertex 0.244402 -0.333670 1.009422
vertex 0.244402 -0.333670 0.929422
endloop
endfacet
facet normal 1.000000 0.000000 0.000000
outer loop
vertex 0.244402 -0.333670 0.929422
vertex 0.244402 -0.309285 0.929422
vertex 0.244402 -0.309285 1.009422
endloop
endfacet
facet normal 0.000000 1.000000 0.000000
outer loop
vertex 0.228115 -0.309285 1.009422
vertex 0.244402 -0.309285 1.009422
vertex 0.244402 -0.309285 0.929422
endloop
endfacet
facet normal 0.000000 1.000000 0.000000
outer loop
vertex 0.244402 -0.309285 0.929422
vertex 0.228115 -0.309285 0.929422
vertex 0.228115 -0.309285 1.009422
endloop
endfacet
facet normal -1.000000 0.000000 0.000000
outer loop
vertex 0.228115 -0.333670 1.009422
vertex 0.228115 -0.309285 1.009422
vertex 0.228115 -0.309285 0.929422
endloop
endfacet
facet normal -1.000000 0.000000 0.000000
outer loop
vertex 0.228115 -0.309285 0.929422
vertex 0.228115 -0.333670 0.929422
vertex 0.228115 -0.333670 1.009422
endloop
endfacet
facet normal -1.000000 0.000000 0.000000
outer loop
vertex 0.230000 0.538548 1.089422
vertex 0.230000 0.538548 1.109422
vertex 0.230000 0.562933 1.109422
endloop
endfacet
facet normal -1.000000 0.000000 0.000000
outer loop
vertex 0.230000 0.562933 1.109422
vertex 0.230000 0.562933 1.089422
vertex 0.230000 0.538548 1.089422
endloop
endfacet
facet normal 0.000000 1.000000 0.000000
outer loop
vertex 0.258136 0.562933 1.089422
vertex 0.258136 0.562933 1.109422
vertex 0.274422 0.562933 1.109422
endloop
endfacet
facet normal 0.000000 1.000000 0.000000
outer loop
vertex 0.274422 0.562933 1.109422
vertex 0.274422 0.562933 1.089422
vertex 0.258136 0.562933 1.089422
endloop
endfacet
facet normal 1.000000 0.000000 0.000000
outer loop
vertex 0.274422 0.562933 1.089422
vertex 0.274422 0.562933 1.109422
vertex 0.274422 0.538548 1.109422
endloop
endfacet
facet normal 1.000000 0.000000 0.000000
outer loop
vertex 0.274422 0.538548 1.109422
vertex 0.274422 0.538548 1.089422
vertex 0.274422 0.562933 1.089422
endloop
endfacet
facet normal 0.000000 -1.000000 0.000000
outer loop
vertex 0.230000 0.538548 1.109422
vertex 0.230000 0.538548 1.089422
vertex 0.258136 0.538548 1.089422
endloop
endfacet
facet normal 0.000000 -1.000000 0.000000
outer loop
vertex 0.258136 0.538548 1.089422
vertex 0.258136 0.538548 1.109422
vertex 0.230000 0.538548 1.109422
endloop
endfacet
facet normal 0.000000 0.000000 1.000000
outer loop
vertex 0.230000 0.538548 1.109422
vertex 0.258136 0.538548 1.109422
vertex 0.258136 0.562933 1.109422
endloop
endfacet
facet normal 0.000000 0.000000 1.000000
outer loop
vertex 0.258136 0.562933 1.109422
vertex 0.230000 0.562933 1.109422
vertex 0.230000 0.538548 1.109422
endloop
endfacet
facet normal 0.000000 0.000000 1.000000
outer loop
vertex 0.274422 0.562933 1.109422
vertex 0.258136 0.562933 1.109422
vertex 0.258136 0.538548 1.109422
endloop
endfacet
facet normal 0.000000 0.000000 1.000000
outer loop
vertex 0.258136 0.538548 1.109422
vertex 0.274422 0.538548 1.109422
vertex 0.274422 0.562933 1.109422
endloop
endfacet
facet normal 0.000000 -1.000000 0.000000
outer loop
vertex 0.274422 0.538548 1.089422
vertex 0.274422 0.538548 1.109422
vertex 0.258136 0.538548 1.109422
endloop
endfacet
facet normal 0.000000 -1.000000 0.000000
outer loop
vertex 0.258136 0.538548 1.109422
vertex 0.258136 0.538548 1.089422
vertex 0.274422 0.538548 1.089422
endloop
endfacet
facet normal 0.000000 1.000000 0.000000
outer loop
vertex 0.230000 0.562933 1.089422
vertex 0.230000 0.562933 1.109422
vertex 0.258136 0.562933 1.109422
endloop
endfacet
facet normal 0.000000 1.000000 0.000000
outer loop
vertex 0.258136 0.562933 1.109422
vertex 0.258136 0.562933 1.089422
vertex 0.230000 0.562933 1.089422
endloop
endfacet
facet normal 0.000000 0.000000 -1.000000
outer loop
vertex 0.258136 0.562933 1.089422
vertex 0.258136 0.538548 1.089422
vertex 0.230000 0.538548 1.089422
endloop
endfacet
facet normal 0.000000 0.000000 -1.000000
outer loop
vertex 0.230000 0.538548 1.089422
vertex 0.230000 0.562933 1.089422
vertex 0.258136 0.562933 1.089422
endloop
endfacet
facet normal 0.000000 -1.000000 0.000000
outer loop
vertex 0.274422 0.538548 1.009422
vertex 0.274422 0.538548 1.089422
vertex 0.258136 0.538548 1.089422
endloop
endfacet
facet normal 0.000000 -1.000000 0.000000
outer loop
vertex 0.258136 0.538548 1.089422
vertex 0.258136 0.538548 1.009422
vertex 0.274422 0.538548 1.009422
endloop
endfacet
facet normal 1.000000 0.000000 0.000000
outer loop
vertex 0.274422 0.562933 1.009422
vertex 0.274422 0.562933 1.089422
vertex 0.274422 0.538548 1.089422
endloop
endfacet
facet normal 1.000000 0.000000 0.000000
outer loop
vertex 0.274422 0.538548 1.089422
vertex 0.274422 0.538548 1.009422
vertex 0.274422 0.562933 1.009422
endloop
endfacet
facet normal 0.000000 1.000000 0.000000
outer loop
vertex 0.258136 0.562933 1.009422
vertex 0.258136 0.562933 1.089422
vertex 0.274422 0.562933 1.089422
endloop
endfacet
facet normal 0.000000 1.000000 0.000000
outer loop
vertex 0.274422 0.562933 1.089422
vertex 0.274422 0.562933 1.009422
vertex 0.258136 0.562933 1.009422
endloop
endfacet
facet normal -1.000000 0.000000 0.000000
outer loop
vertex 0.258136 0.538548 1.009422
vertex 0.258136 0.538548 1.089422
vertex 0.258136 0.562933 1.089422
endloop
endfacet
facet normal -1.000000 0.000000 0.000000
outer loop
vertex 0.258136 0.562933 1.089422
vertex 0.258136 0.562933 1.009422
vertex 0.258136 0.538548 1.009422
endloop
endfacet
facet normal -1.000000 0.000000 0.000000
outer loop
vertex 0.230000 0.538548 0.929422
vertex 0.230000 0.562933 0.929422
vertex 0.230000 0.562933 0.909422
endloop
endfacet
facet normal -1.000000 0.000000 0.000000
outer loop
vertex 0.230000 0.562933 0.909422
vertex 0.230000 0.538548 0.909422
vertex 0.230000 0.538548 0.929422
endloop
endfacet
facet normal 0.000000 1.000000 0.000000
outer loop
vertex 0.258136 0.562933 0.929422
vertex 0.274422 0.562933 0.929422
vertex 0.274422 0.562933 0.909422
endloop
endfacet
facet normal 0.000000 1.000000 0.000000
outer loop
vertex 0.274422 0.562933 0.909422
vertex 0.258136 0.562933 0.909422
vertex 0.258136 0.562933 0.929422
endloop
endfacet
facet normal 1.000000 0.000000 0.000000
outer loop
vertex 0.274422 0.562933 0.929422
vertex 0.274422 0.538548 0.929422
vertex 0.274422 0.538548 0.909422
endloop
endfacet
facet normal 1.000000 0.000000 0.000000
outer loop
vertex 0.274422 0.538548 0.909422
vertex 0.274422 0.562933 0.909422
vertex 0.274422 0.562933 0.929422
endloop
endfacet
facet normal 0.000000 -1.000000 0.000000
outer loop
vertex 0.258136 0.538548 0.929422
vertex 0.230000 0.538548 0.929422
vertex 0.230000 0.538548 0.909422
endloop
endfacet
facet normal 0.000000 -1.000000 0.000000
outer loop
vertex 0.230000 0.538548 0.909422
vertex 0.258136 0.538548 0.909422
vertex 0.258136 0.538548 0.929422
endloop
endfacet
facet normal 0.000000 0.000000 -1.000000
outer loop
vertex 0.258136 0.562933 0.909422
vertex 0.258136 0.538548 0.909422
vertex 0.230000 0.538548 0.909422
endloop
endfacet
facet normal 0.000000 0.000000 -1.000000
outer loop
vertex 0.230000 0.538548 0.909422
vertex 0.230000 0.562933 0.909422
vertex 0.258136 0.562933 0.909422
endloop
endfacet
facet normal 0.000000 0.000000 -1.000000
outer loop
vertex 0.274422 0.562933 0.909422
vertex 0.274422 0.538548 0.909422
vertex 0.258136 0.538548 0.909422
endloop
endfacet
facet normal 0.000000 0.000000 -1.000000
outer loop
vertex 0.258136 0.538548 0.909422
vertex 0.258136 0.562933 0.909422
vertex 0.274422 0.562933 0.909422
endloop
endfacet
facet normal 0.000000 -1.000000 0.000000
outer loop
vertex 0.274422 0.538548 0.929422
vertex 0.258136 0.538548 0.929422
vertex 0.258136 0.538548 0.909422
endloop
endfacet
facet normal 0.000000 -1.000000 0.000000
outer loop
vertex 0.258136 0.538548 0.909422
vertex 0.274422 0.538548 0.909422
vertex 0.274422 0.538548 0.929422
endloop
endfacet
facet normal 0.000000 1.000000 0.000000
outer loop
vertex 0.230000 0.562933 0.929422
vertex 0.258136 0.562933 0.929422
vertex 0.258136 0.562933 0.909422
endloop
endfacet
facet normal 0.000000 1.000000 0.000000
outer loop
vertex 0.258136 0.562933 0.909422
vertex 0.230000 0.562933 0.909422
vertex 0.230000 0.562933 0.929422
endloop
endfacet
facet normal 0.000000 0.000000 1.000000
outer loop
vertex 0.258136 0.562933 0.929422
vertex 0.230000 0.562933 0.929422
vertex 0.230000 0.538548 0.929422
endloop
endfacet
facet normal 0.000000 0.000000 1.000000
outer loop
vertex 0.230000 0.538548 0.929422
vertex 0.258136 0.538548 0.929422
vertex 0.258136 0.562933 0.929422
endloop
endfacet
facet normal 0.000000 -1.000000 0.000000
outer loop
vertex 0.274422 0.538548 1.009422
vertex 0.258136 0.538548 1.009422
vertex 0.258136 0.538548 0.929422
endloop
endfacet
facet normal 0.000000 -1.000000 0.000000
outer loop
vertex 0.258136 0.538548 0.929422
vertex 0.274422 0.538548 0.929422
vertex 0.274422 0.538548 1.009422
endloop
endfacet
facet normal 1.000000 0.000000 0.000000
outer loop
vertex 0.274422 0.562933 1.009422
vertex 0.274422 0.538548 1.009422
vertex 0.274422 0.538548 0.929422
endloop
endfacet
facet normal 1.000000 0.000000 0.000000
outer loop
vertex 0.274422 0.538548 0.929422
vertex 0.274422 0.562933 0.929422
vertex 0.274422 0.562933 1.009422
endloop
endfacet
facet normal 0.000000 1.000000 0.000000
outer loop
vertex 0.258136 0.562933 1.009422
vertex 0.274422 0.562933 1.009422
vertex 0.274422 0.562933 0.929422
endloop
endfacet
facet normal 0.000000 1.000000 0.000000
outer loop
vertex 0.274422 0.562933 0.929422
vertex 0.258136 0.562933 0.929422
vertex 0.258136 0.562933 1.009422
endloop
endfacet
facet normal -1.000000 0.000000 0.000000
outer loop
vertex 0.258136 0.538548 1.009422
vertex 0.258136 0.562933 1.009422
vertex 0.258136 0.562933 0.929422
endloop
endfacet
facet normal -1.000000 0.000000 0.000000
outer loop
vertex 0.258136 0.562933 0.929422
vertex 0.258136 0.538548 0.929422
vertex 0.258136 0.538548 1.009422
endloop
endfacet
facet normal -1.000000 0.000000 0.000000
outer loop
vertex -0.250000 0.628206 1.805000
vertex -0.250000 0.628206 1.900000
vertex -0.250000 0.650991 1.900000
endloop
endfacet
facet normal -1.000000 0.000000 0.000000
outer loop
vertex -0.250000 0.650991 1.900000
vertex -0.250000 0.650991 1.805000
vertex -0.250000 0.628206 1.805000
endloop
endfacet
facet normal 0.000000 1.000000 0.000000
outer loop
vertex -0.250000 0.650991 1.805000
vertex -0.250000 0.650991 1.900000
vertex 0.250000 0.650991 1.900000
endloop
endfacet
facet normal 0.000000 1.000000 0.000000
outer loop
vertex 0.250000 0.650991 1.900000
vertex 0.250000 0.650991 1.805000
vertex -0.250000 0.650991 1.805000
endloop
endfacet
facet normal 0.000000 0.000000 1.000000
outer loop
vertex 0.250000 0.628206 1.900000
vertex -0.250000 0.628206 1.900000
vertex -0.250000 0.000000 1.900000
endloop
endfacet
facet normal 0.000000 0.000000 1.000000
outer loop
vertex -0.250000 0.000000 1.900000
vertex 0.250000 0.000000 1.900000
vertex 0.250000 0.628206 1.900000
endloop
endfacet
facet normal 0.000000 0.000000 -1.000000
outer loop
vertex -0.250000 0.628206 0.000000
vertex 0.250000 0.628206 0.000000
vertex 0.250000 0.000000 0.000000
endloop
endfacet
facet normal 0.000000 0.000000 -1.000000
outer loop
vertex 0.250000 0.000000 0.000000
vertex -0.250000 0.000000 0.000000
vertex -0.250000 0.628206 0.000000
endloop
endfacet
facet normal 1.000000 0.000000 0.000000
outer loop
vertex 0.250000 0.628206 1.805000
vertex 0.250000 0.628206 1.900000
vertex 0.250000 0.000000 1.900000
endloop
endfacet
facet normal 1.000000 0.000000 0.000000
outer loop
vertex 0.250000 0.000000 1.900000
vertex 0.250000 0.000000 1.805000
vertex 0.250000 0.628206 1.805000
endloop
endfacet
facet normal 0.000000 0.000000 -1.000000
outer loop
vertex 0.250000 0.628206 1.805000
vertex 0.250000 0.000000 1.805000
vertex 0.149017 0.000000 1.805000
endloop
endfacet
facet normal 0.000000 0.000000 -1.000000
outer loop
vertex 0.149017 0.000000 1.805000
vertex 0.149017 0.628206 1.805000
vertex 0.250000 0.628206 1.805000
endloop
endfacet
facet normal 0.000000 1.000000 0.000000
outer loop
vertex -0.250000 0.650991 0.152557
vertex -0.250000 0.650991 1.805000
vertex 0.250000 0.650991 1.805000
endloop
endfacet
facet normal 0.000000 1.000000 0.000000
outer loop
vertex 0.250000 0.650991 1.805000
vertex 0.250000 0.650991 0.152557
vertex -0.250000 0.650991 0.152557
endloop
endfacet
facet normal -1.000000 0.000000 0.000000
outer loop
vertex -0.250000 0.628206 0.152557
vertex -0.250000 0.628206 1.805000
vertex -0.250000 0.650991 1.805000
endloop
endfacet
facet normal -1.000000 0.000000 0.000000
outer loop
vertex -0.250000 0.650991 1.805000
vertex -0.250000 0.650991 0.152557
vertex -0.250000 0.628206 0.152557
endloop
endfacet
facet normal -1.000000 0.000000 0.000000
outer loop
vertex -0.250000 0.000000 0.152557
vertex -0.250000 0.000000 1.805000
vertex -0.250000 0.628206 1.805000
endloop
endfacet
facet normal -1.000000 0.000000 0.000000
outer loop
vertex -0.250000 0.628206 1.805000
vertex -0.250000 0.628206 0.152557
vertex -0.250000 0.000000 0.152557
endloop
endfacet
facet normal 1.000000 0.000000 0.000000
outer loop
vertex 0.250000 0.650991 0.152557
vertex 0.250000 0.650991 1.805000
vertex 0.250000 0.628206 1.805000
endloop
endfacet
facet normal 1.000000 0.000000 0.000000
outer loop
vertex 0.250000 0.628206 1.805000
vertex 0.250000 0.628206 0.152557
vertex 0.250000 0.650991 0.152557
endloop
endfacet
facet normal 1.000000 0.000000 0.000000
outer loop
vertex 0.250000 0.650991 1.805000
vertex 0.250000 0.650991 1.900000
vertex 0.250000 0.628206 1.900000
endloop
endfacet
facet normal 1.000000 0.000000 0.000000
outer loop
vertex 0.250000 0.628206 1.900000
vertex 0.250000 0.628206 1.805000
vertex 0.250000 0.650991 1.805000
endloop
endfacet
facet normal 0.000000 0.000000 -1.000000
outer loop
vertex -0.250000 0.650991 0.000000
vertex 0.250000 0.650991 0.000000
vertex 0.250000 0.628206 0.000000
endloop
endfacet
facet normal 0.000000 0.000000 -1.000000
outer loop
vertex 0.250000 0.628206 0.000000
vertex -0.250000 0.628206 0.000000
vertex -0.250000 0.650991 0.000000
endloop
endfacet
facet normal 0.000000 0.000000 1.000000
outer loop
vertex 0.250000 0.650991 1.900000
vertex -0.250000 0.650991 1.900000
vertex -0.250000 0.628206 1.900000
endloop
endfacet
facet normal 0.000000 0.000000 1.000000
outer loop
vertex -0.250000 0.628206 1.900000
vertex 0.250000 0.628206 1.900000
vertex 0.250000 0.650991 1.900000
endloop
endfacet
facet normal -1.000000 0.000000 0.000000
outer loop
vertex -0.250000 0.000000 1.805000
vertex -0.250000 0.000000 1.900000
vertex -0.250000 0.628206 1.900000
endloop
endfacet
facet normal -1.000000 0.000000 0.000000
outer loop
vertex -0.250000 0.628206 1.900000
vertex -0.250000 0.628206 1.805000
vertex -0.250000 0.000000 1.805000
endloop
endfacet
facet normal 1.000000 0.000000 0.000000
outer loop
vertex 0.250000 0.650991 0.000000
vertex 0.250000 0.650991 0.152557
vertex 0.250000 0.628206 0.152557
endloop
endfacet
facet normal 1.000000 0.000000 0.000000
outer loop
vertex 0.250000 0.628206 0.152557
vertex 0.250000 0.628206 0.000000
vertex 0.250000 0.650991 0.000000
endloop
endfacet
facet normal -1.000000 0.000000 0.000000
outer loop
vertex -0.250000 0.000000 0.000000
vertex -0.250000 0.000000 0.152557
vertex -0.250000 0.628206 0.152557
endloop
endfacet
facet normal -1.000000 0.000000 0.000000
outer loop
vertex -0.250000 0.628206 0.152557
vertex -0.250000 0.628206 0.000000
vertex -0.250000 0.000000 0.000000
endloop
endfacet
facet normal -1.000000 0.000000 0.000000
outer loop
vertex -0.250000 0.650991 0.152557
vertex -0.250000 0.650991 0.000000
vertex -0.250000 0.628206 0.000000
endloop
endfacet
facet normal -1.000000 0.000000 0.000000
outer loop
vertex -0.250000 0.628206 0.000000
vertex -0.250000 0.628206 0.152557
vertex -0.250000 0.650991 0.152557
endloop
endfacet
facet normal 0.000000 1.000000 0.000000
outer loop
vertex -0.250000 0.650991 0.000000
vertex -0.250000 0.650991 0.152557
vertex 0.250000 0.650991 0.152557
endloop
endfacet
facet normal 0.000000 1.000000 0.000000
outer loop
vertex 0.250000 0.650991 0.152557
vertex 0.250000 0.650991 0.000000
vertex -0.250000 0.650991 0.000000
endloop
endfacet
facet normal 1.000000 0.000000 0.000000
outer loop
vertex 0.250000 0.628206 0.000000
vertex 0.250000 0.628206 0.152557
vertex 0.250000 0.000000 0.152557
endloop
endfacet
facet normal 1.000000 0.000000 0.000000
outer loop
vertex 0.250000 0.000000 0.152557
vertex 0.250000 0.000000 0.000000
vertex 0.250000 0.628206 0.000000
endloop
endfacet
facet normal 0.000000 -1.000000 0.000000
outer loop
vertex 0.250000 0.628206 0.152557
vertex 0.250000 0.628206 1.805000
vertex 0.149017 0.628206 1.805000
endloop
endfacet
facet normal 0.000000 -1.000000 0.000000
outer loop
vertex 0.149017 0.628206 1.805000
vertex 0.149017 0.628206 0.152557
vertex 0.250000 0.628206 0.152557
endloop
endfacet
facet normal 0.000000 0.000000 1.000000
outer loop
vertex 0.250000 0.000000 0.152557
vertex 0.250000 0.628206 0.152557
vertex 0.149017 0.628206 0.152557
endloop
endfacet
facet normal 0.000000 0.000000 1.000000
outer loop
vertex 0.149017 0.628206 0.152557
vertex 0.149017 0.000000 0.152557
vertex 0.250000 0.000000 0.152557
endloop
endfacet
facet normal -1.000000 0.000000 0.000000
outer loop
vertex 0.149017 0.000000 0.152557
vertex 0.149017 0.628206 0.152557
vertex 0.149017 0.628206 0.047681
endloop
endfacet
facet normal -1.000000 0.000000 0.000000
outer loop
vertex 0.149017 0.628206 0.047681
vertex 0.149017 0.000000 0.047681
vertex 0.149017 0.000000 0.152557
endloop
endfacet
facet normal 0.000000 0.000000 1.000000
outer loop
vertex 0.149017 0.000000 0.047681
vertex 0.149017 0.628206 0.047681
vertex -0.250000 0.628206 0.047681
endloop
endfacet
facet normal 0.000000 0.000000 1.000000
outer loop
vertex -0.250000 0.628206 0.047681
vertex -0.250000 0.000000 0.047681
vertex 0.149017 0.000000 0.047681
endloop
endfacet
facet normal 0.000000 -1.000000 0.000000
outer loop
vertex 0.250000 0.628206 1.900000
vertex -0.250000 0.628206 1.900000
vertex -0.250000 0.628206 0.047681
endloop
endfacet
facet normal 0.000000 -1.000000 0.000000
outer loop
vertex -0.250000 0.628206 0.047681
vertex 0.250000 0.628206 0.047681
vertex 0.250000 0.628206 1.900000
endloop
endfacet
facet normal -1.000000 0.000000 0.000000
outer loop
vertex -0.250000 -0.628206 1.805000
vertex -0.250000 -0.650991 1.805000
vertex -0.250000 -0.650991 1.900000
endloop
endfacet
facet normal -1.000000 0.000000 0.000000
outer loop
vertex -0.250000 -0.650991 1.900000
vertex -0.250000 -0.628206 1.900000
vertex -0.250000 -0.628206 1.805000
endloop
endfacet
facet normal 0.000000 -1.000000 0.000000
outer loop
vertex -0.250000 -0.650991 1.805000
vertex 0.250000 -0.650991 1.805000
vertex 0.250000 -0.650991 1.900000
endloop
endfacet
facet normal 0.000000 -1.000000 0.000000
outer loop
vertex 0.250000 -0.650991 1.900000
vertex -0.250000 -0.650991 1.900000
vertex -0.250000 -0.650991 1.805000
endloop
endfacet
facet normal 0.000000 0.000000 1.000000
outer loop
vertex 0.250000 -0.628206 1.900000
vertex 0.250000 0.000000 1.900000
vertex -0.250000 0.000000 1.900000
endloop
endfacet
facet normal 0.000000 0.000000 1.000000
outer loop
vertex -0.250000 0.000000 1.900000
vertex -0.250000 -0.628206 1.900000
vertex 0.250000 -0.628206 1.900000
endloop
endfacet
facet normal 0.000000 0.000000 -1.000000
outer loop
vertex -0.250000 -0.628206 0.000000
vertex -0.250000 0.000000 0.000000
vertex 0.250000 0.000000 0.000000
endloop
endfacet
facet normal 0.000000 0.000000 -1.000000
outer loop
vertex 0.250000 0.000000 0.000000
vertex 0.250000 -0.628206 0.000000
vertex -0.250000 -0.628206 0.000000
endloop
endfacet
facet normal 1.000000 0.000000 0.000000
outer loop
vertex 0.250000 -0.628206 1.805000
vertex 0.250000 0.000000 1.805000
vertex 0.250000 0.000000 1.900000
endloop
endfacet
facet normal 1.000000 0.000000 0.000000
outer loop
vertex 0.250000 0.000000 1.900000
vertex 0.250000 -0.628206 1.900000
vertex 0.250000 -0.628206 1.805000
endloop
endfacet
facet normal 0.000000 0.000000 -1.000000
outer loop
vertex 0.250000 -0.628206 1.805000
vertex 0.149017 -0.628206 1.805000
vertex 0.149017 0.000000 1.805000
endloop
endfacet
facet normal 0.000000 0.000000 -1.000000
outer loop
vertex 0.149017 0.000000 1.805000
vertex 0.250000 0.000000 1.805000
vertex 0.250000 -0.628206 1.805000
endloop
endfacet
facet normal 0.000000 -1.000000 0.000000
outer loop
vertex -0.250000 -0.650991 0.152557
vertex 0.250000 -0.650991 0.152557
vertex 0.250000 -0.650991 1.805000
endloop
endfacet
facet normal 0.000000 -1.000000 0.000000
outer loop
vertex 0.250000 -0.650991 1.805000
vertex -0.250000 -0.650991 1.805000
vertex -0.250000 -0.650991 0.152557
endloop
endfacet
facet normal -1.000000 0.000000 0.000000
outer loop
vertex -0.250000 -0.628206 0.152557
vertex -0.250000 -0.650991 0.152557
vertex -0.250000 -0.650991 1.805000
endloop
endfacet
facet normal -1.000000 0.000000 0.000000
outer loop
vertex -0.250000 -0.650991 1.805000
vertex -0.250000 -0.628206 1.805000
vertex -0.250000 -0.628206 0.152557
endloop
endfacet
facet normal -1.000000 0.000000 0.000000
outer loop
vertex -0.250000 0.000000 0.152557
vertex -0.250000 -0.628206 0.152557
vertex -0.250000 -0.628206 1.805000
endloop
endfacet
facet normal -1.000000 0.000000 0.000000
outer loop
vertex -0.250000 -0.628206 1.805000
vertex -0.250000 0.000000 1.805000
vertex -0.250000 0.000000 0.152557
endloop
endfacet
facet normal 1.000000 0.000000 0.000000
outer loop
vertex 0.250000 -0.650991 0.152557
vertex 0.250000 -0.628206 0.152557
vertex 0.250000 -0.628206 1.805000
endloop
endfacet
facet normal 1.000000 0.000000 0.000000
outer loop
vertex 0.250000 -0.628206 1.805000
vertex 0.250000 -0.650991 1.805000
vertex 0.250000 -0.650991 0.152557
endloop
endfacet
facet normal 1.000000 0.000000 0.000000
outer loop
vertex 0.250000 -0.650991 1.805000
vertex 0.250000 -0.628206 1.805000
vertex 0.250000 -0.628206 1.900000
endloop
endfacet
facet normal 1.000000 0.000000 0.000000
outer loop
vertex 0.250000 -0.628206 1.900000
vertex 0.250000 -0.650991 1.900000
vertex 0.250000 -0.650991 1.805000
endloop
endfacet
facet normal 0.000000 0.000000 -1.000000
outer loop
vertex -0.250000 -0.650991 0.000000
vertex -0.250000 -0.628206 0.000000
vertex 0.250000 -0.628206 0.000000
endloop
endfacet
facet normal 0.000000 0.000000 -1.000000
outer loop
vertex 0.250000 -0.628206 0.000000
vertex 0.250000 -0.650991 0.000000
vertex -0.250000 -0.650991 0.000000
endloop
endfacet
facet normal 0.000000 0.000000 1.000000
outer loop
vertex 0.250000 -0.650991 1.900000
vertex 0.250000 -0.628206 1.900000
vertex -0.250000 -0.628206 1.900000
endloop
endfacet
facet normal 0.000000 0.000000 1.000000
outer loop
vertex -0.250000 -0.628206 1.900000
vertex -0.250000 -0.650991 1.900000
vertex 0.250000 -0.650991 1.900000
endloop
endfacet
facet normal -1.000000 0.000000 0.000000
outer loop
vertex -0.250000 0.000000 1.805000
vertex -0.250000 -0.628206 1.805000
vertex -0.250000 -0.628206 1.900000
endloop
endfacet
facet normal -1.000000 0.000000 0.000000
outer loop
vertex -0.250000 -0.628206 1.900000
vertex -0.250000 0.000000 1.900000
vertex -0.250000 0.000000 1.805000
endloop
endfacet
facet normal 1.000000 0.000000 0.000000
outer loop
vertex 0.250000 -0.650991 0.000000
vertex 0.250000 -0.628206 0.000000
vertex 0.250000 -0.628206 0.152557
endloop
endfacet
facet normal 1.000000 0.000000 0.000000
outer loop
vertex 0.250000 -0.628206 0.152557
vertex 0.250000 -0.650991 0.152557
vertex 0.250000 -0.650991 0.000000
endloop
endfacet
facet normal -1.000000 0.000000 0.000000
outer loop
vertex -0.250000 0.000000 0.000000
vertex -0.250000 -0.628206 0.000000
vertex -0.250000 -0.628206 0.152557
endloop
endfacet
facet normal -1.000000 0.000000 0.000000
outer loop
vertex -0.250000 -0.628206 0.152557
vertex -0.250000 0.000000 0.152557
vertex -0.250000 0.000000 0.000000
endloop
endfacet
facet normal -1.000000 0.000000 0.000000
outer loop
vertex -0.250000 -0.628206 0.000000
vertex -0.250000 -0.650991 0.000000
vertex -0.250000 -0.650991 0.152557
endloop
endfacet
facet normal -1.000000 0.000000 0.000000
outer loop
vertex -0.250000 -0.650991 0.152557
vertex -0.250000 -0.628206 0.152557
vertex -0.250000 -0.628206 0.000000
endloop
endfacet
facet normal 0.000000 -1.000000 0.000000
outer loop
vertex -0.250000 -0.650991 0.000000
vertex 0.250000 -0.650991 0.000000
vertex 0.250000 -0.650991 0.152557
endloop
endfacet
facet normal 0.000000 -1.000000 0.000000
outer loop
vertex 0.250000 -0.650991 0.152557
vertex -0.250000 -0.650991 0.152557
vertex -0.250000 -0.650991 0.000000
endloop
endfacet
facet normal 1.000000 0.000000 0.000000
outer loop
vertex 0.250000 -0.628206 0.000000
vertex 0.250000 0.000000 0.000000
vertex 0.250000 0.000000 0.152557
endloop
endfacet
facet normal 1.000000 0.000000 0.000000
outer loop
vertex 0.250000 0.000000 0.152557
vertex 0.250000 -0.628206 0.152557
vertex 0.250000 -0.628206 0.000000
endloop
endfacet
facet normal 0.000000 1.000000 0.000000
outer loop
vertex 0.250000 -0.628206 0.152557
vertex 0.149017 -0.628206 0.152557
vertex 0.149017 -0.628206 1.805000
endloop
endfacet
facet normal 0.000000 1.000000 0.000000
outer loop
vertex 0.149017 -0.628206 1.805000
vertex 0.250000 -0.628206 1.805000
vertex 0.250000 -0.628206 0.152557
endloop
endfacet
facet normal 0.000000 0.000000 1.000000
outer loop
vertex 0.250000 0.000000 0.152557
vertex 0.149017 0.000000 0.152557
vertex 0.149017 -0.628206 0.152557
endloop
endfacet
facet normal 0.000000 0.000000 1.000000
outer loop
vertex 0.149017 -0.628206 0.152557
vertex 0.250000 -0.628206 0.152557
vertex 0.250000 0.000000 0.152557
endloop
endfacet
facet normal -1.000000 0.000000 0.000000
outer loop
vertex 0.149017 0.000000 0.152557
vertex 0.149017 0.000000 0.047681
vertex 0.149017 -0.628206 0.047681
endloop
endfacet
facet normal -1.000000 0.000000 0.000000
outer loop
vertex 0.149017 -0.628206 0.047681
vertex 0.149017 -0.628206 0.152557
vertex 0.149017 0.000000 0.152557
endloop
endfacet
facet normal 0.000000 0.000000 1.000000
outer loop
vertex 0.149017 0.000000 0.047681
vertex -0.250000 0.000000 0.047681
vertex -0.250000 -0.628206 0.047681
endloop
endfacet
facet normal 0.000000 0.000000 1.000000
outer loop
vertex -0.250000 -0.628206 0.047681
vertex 0.149017 -0.628206 0.047681
vertex 0.149017 0.000000 0.047681
endloop
endfacet
facet normal 0.000000 1.000000 0.000000
outer loop
vertex 0.250000 -0.628206 1.900000
vertex 0.250000 -0.628206 0.047681
vertex -0.250000 -0.628206 0.047681
endloop
endfacet
facet normal 0.000000 1.000000 0.000000
outer loop
vertex -0.250000 -0.628206 0.047681
vertex -0.250000 -0.628206 1.900000
vertex 0.250000 -0.628206 1.900000
endloop
endfacet
endsolid Exported from Blender-2.79 (sub 0)
